<svg width="72" height="72" viewBox="0 0 72 72" fill="none" xmlns="http://www.w3.org/2000/svg">
<g clip-path="url(#clip0_179_12703)">
<rect width="72" height="72" fill="white"/>
<path d="M36 72C55.8822 72 72 55.8822 72 36C72 16.1177 55.8822 0 36 0C16.1177 0 0 16.1177 0 36C0 55.8822 16.1177 72 36 72Z" fill="#E7AF0E"/>
<mask id="mask0_179_12703" style="mask-type:alpha" maskUnits="userSpaceOnUse" x="0" y="0" width="72" height="72">
<path d="M36 72C55.8822 72 72 55.8822 72 36C72 16.1177 55.8822 0 36 0C16.1177 0 0 16.1177 0 36C0 55.8822 16.1177 72 36 72Z" fill="#A1A8AE"/>
</mask>
<g mask="url(#mask0_179_12703)">
<path opacity="0.5" d="M193.5 -91.5L-18 82L-47 8L-44 -88.5L64.5 -183L193.5 -91.5Z" fill="#FFE291"/>
</g>
<path d="M45.974 33.7033V26.8151C45.975 25.5047 45.7177 24.2069 45.2169 22.9959C44.7161 21.785 43.9815 20.6846 43.0553 19.7576C42.129 18.8307 41.0291 18.0954 39.8185 17.5937C38.608 17.092 37.3104 16.8337 36 16.8337C34.6895 16.8337 33.3919 17.092 32.1814 17.5937C30.9708 18.0954 29.8709 18.8307 28.9446 19.7576C28.0184 20.6846 27.2838 21.785 26.783 22.9959C26.2822 24.2069 26.0249 25.5047 26.0259 26.8151V33.7033C24.6926 33.7633 23.4339 34.3351 22.5114 35.2995C21.5889 36.264 21.0738 37.5469 21.0731 38.8815V55.1591H50.9268V38.8815C50.9261 37.5469 50.411 36.264 49.4885 35.2995C48.566 34.3351 47.3073 33.7633 45.974 33.7033ZM36 20.3528C37.7132 20.3548 39.3557 21.0363 40.5671 22.2478C41.7786 23.4593 42.46 25.1018 42.4619 26.8151V33.6913H29.5381V26.8151C29.54 25.1018 30.2213 23.4593 31.4328 22.2478C32.6442 21.0363 34.2867 20.3548 36 20.3528Z" fill="white"/>
<path d="M38.6833 41.742C38.6834 41.2793 38.5639 40.8244 38.3364 40.4215C38.1089 40.0187 37.7811 39.6815 37.3848 39.4427C36.9885 39.2039 36.5372 39.0716 36.0747 39.0587C35.6122 39.0457 35.1542 39.1526 34.7452 39.3689C34.3362 39.5853 33.9901 39.9037 33.7404 40.2932C33.4908 40.6828 33.3461 41.1303 33.3205 41.5923C33.2948 42.0542 33.389 42.515 33.594 42.9298C33.7989 43.3446 34.1077 43.6994 34.4902 43.9597V49.7924H37.5089V43.9597C37.8708 43.7139 38.167 43.3833 38.3717 42.9968C38.5764 42.6102 38.6834 42.1794 38.6833 41.742Z" fill="#E7AF0E"/>
</g>
<defs>
<clipPath id="clip0_179_12703">
<rect width="72" height="72" fill="white"/>
</clipPath>
</defs>
</svg>
