<svg width="236" height="160" viewBox="0 0 236 160" fill="none" xmlns="http://www.w3.org/2000/svg">
<g clip-path="url(#clip0_1417_152734)">
<rect width="236" height="160" fill="white"/>
<g clip-path="url(#clip1_1417_152734)">
<path d="M118 151C172.676 151 217 145.851 217 139.5C217 133.149 172.676 128 118 128C63.3238 128 19 133.149 19 139.5C19 145.851 63.3238 151 118 151Z" fill="#EFEFEF"/>
<path d="M105.5 10.0001C103.3 9.90008 101.2 10.2001 99.1001 10.5001C94.4001 11.2001 90.0001 12.7001 85.9001 15.0001C81.6001 17.3001 77.9001 20.3001 74.7001 24.0001C70.7001 28.6001 67.8001 33.8001 66.1001 39.7001C64.3001 45.7001 64.5001 51.9001 64.6001 58.1001C64.6001 62.5001 64.6001 66.8001 64.6001 71.2001C67.0001 70.7001 69.5001 73.0001 71.9001 72.6001C76.0001 71.9001 80.2001 71.2001 84.3001 70.5001C84.1001 70.0001 84.1001 66.6001 84.1001 66.1001C84.1001 63.4001 84.1001 60.8001 84.1001 58.1001C84.2001 55.0001 84.0001 52.0001 84.3001 48.9001C84.9001 42.8001 87.8001 37.9001 92.5001 34.1001C96.3001 31.1001 100.7 29.9001 105.4 29.6001C105.9 29.2001 106 28.5001 106 27.9001C106 22.5001 106 17.1001 106 11.8001C106 11.1001 106 10.5001 105.5 10.0001Z" fill="#E0EAEF"/>
<path d="M145.7 43.6C143.9 34.3 139.6 26.5 132.5 20.2C124.7 13.5 115.7 10.1 105.5 10C105.5 16.5 105.5 23 105.5 29.5C106.9 29.7 108.4 29.8 109.8 30.1C118.8 31.8 126 39.9 126.7 49C126.9 52 126.8 55.1 126.9 58.1C126.9 61.3 126.9 64.5 126.8 67.7C126.8 71.3 128.3 71.3 128.4 71.3C134.9 72.1 140 70.6 146.4 72C146.4 67.6 146.4 62.5 146.4 58.1C146.3 53.2 146.6 48.4 145.7 43.6Z" fill="#B3D1D6"/>
<path d="M51.6001 80.2996V131.4C51.6001 135.5 54.5001 139.1 58.6001 139.9L77.3001 143.6L105.8 146.5V67.5996L77.6001 69.7996L58.3001 71.8996C54.4001 72.7996 51.6001 76.2996 51.6001 80.2996Z" fill="#FED944"/>
<path d="M159.4 80.2996V131.4C159.4 135.5 156.5 139.1 152.4 139.9L133.7 143.6L105.2 146.5V67.5996L133.4 69.7996L152.7 71.8996C156.6 72.7996 159.4 76.2996 159.4 80.2996Z" fill="#FEB555"/>
<path d="M105.9 92.3008C105.8 92.3008 105.7 92.3008 105.5 92.3008C105.4 92.3008 105.3 92.3008 105.1 92.3008C99.0998 92.7008 93.7998 98.0008 93.8998 104.801C93.9998 109.901 96.5998 113.601 101.2 115.801C102.1 116.201 102.4 116.701 102.3 117.601C102.3 120.801 102.3 123.901 102.3 127.101C102.3 128.101 102.6 128.501 103.7 128.501C104.2 128.501 104.7 128.501 105.2 128.501C105.3 128.501 105.4 128.501 105.6 128.501C105.7 128.501 105.8 128.501 106 128.501C106.5 128.501 107 128.501 107.5 128.501C108.6 128.601 108.9 128.201 108.9 127.101C108.8 123.901 108.9 120.801 108.9 117.601C108.9 116.701 109.2 116.201 110 115.801C114.6 113.601 117.2 109.801 117.3 104.801C117.2 98.0008 111.9 92.6008 105.9 92.3008Z" fill="#FE7C48"/>
<path d="M180 27C160.1 27 144 43.1 144 63C144 70.9 146.5 78.2 150.9 84.1L142 97L160.9 93.5C166.4 97 173 99 180 99C199.9 99 216 82.9 216 63C216 43.1 199.9 27 180 27Z" fill="#1253A5"/>
<path d="M164.2 52.2C164.2 50.2 164.8 48.2 166.1 46.1C167.4 44 169.3 42.3 171.7 41C174.1 39.7 177.1 39 180.4 39C183.5 39 186.2 39.6 188.5 40.7C190.8 41.8 192.7 43.4 193.9 45.3C195.2 47.2 195.8 49.4 195.8 51.6C195.8 53.4 195.4 55 194.7 56.3C194 57.7 193.1 58.8 192.1 59.8C191.1 60.8 189.3 62.4 186.7 64.8C186 65.5 185.4 66 185 66.5C184.6 67 184.2 67.5 184 67.9C183.8 68.3 183.6 68.7 183.5 69.1C183.4 69.5 183.2 70.2 183 71.3C182.6 73.5 181.3 74.6 179.2 74.6C178.1 74.6 177.2 74.2 176.4 73.5C175.6 72.8 175.3 71.7 175.3 70.3C175.3 68.5 175.6 67 176.1 65.7C176.7 64.4 177.4 63.3 178.3 62.3C179.2 61.3 180.4 60.1 182 58.8C183.4 57.6 184.3 56.7 184.9 56.1C185.5 55.5 186 54.8 186.4 54.1C186.8 53.4 187 52.6 187 51.7C187 50 186.4 48.6 185.1 47.4C183.8 46.2 182.2 45.7 180.2 45.7C177.9 45.7 176.2 46.3 175.1 47.5C174 48.7 173.1 50.4 172.3 52.7C171.6 55.1 170.2 56.3 168.2 56.3C167 56.3 166 55.9 165.2 55C164.4 54.1 164.2 53.2 164.2 52.2ZM179.7 87C178.4 87 177.3 86.6 176.3 85.7C175.3 84.9 174.9 83.7 174.9 82.2C174.9 80.9 175.4 79.7 176.3 78.8C177.2 77.9 178.4 77.4 179.7 77.4C181 77.4 182.2 77.9 183.1 78.8C184 79.7 184.5 80.8 184.5 82.2C184.5 83.7 184 84.8 183.1 85.7C182.1 86.6 181 87 179.7 87Z" fill="white"/>
</g>
</g>
<defs>
<clipPath id="clip0_1417_152734">
<rect width="236" height="160" fill="white"/>
</clipPath>
<clipPath id="clip1_1417_152734">
<rect width="198" height="141" fill="white" transform="translate(19 10)"/>
</clipPath>
</defs>
</svg>
