<svg width="24" height="24" viewBox="0 0 24 24" fill="none" xmlns="http://www.w3.org/2000/svg">
<g clip-path="url(#clip0_1417_154146)">
<path fill-rule="evenodd" clip-rule="evenodd" d="M17 12C19.7614 12 22 14.2386 22 17C22 19.7614 19.7614 22 17 22C14.2386 22 12 19.7614 12 17C12 14.2386 14.2386 12 17 12ZM17 2C18.0544 2 18.9182 2.81588 18.9945 3.85074L19 4V9C19 9.55228 18.5523 10 18 10C17.4477 10 17 9.55228 17 9V4H4V20H10C10.5523 20 11 20.4477 11 21C11 21.5128 10.614 21.9355 10.1166 21.9933L10 22H4C2.94564 22 2.08183 21.1841 2.00549 20.1493L2 20V4C2 2.94564 2.81588 2.08183 3.85074 2.00549L4 2H17ZM17 13.5C15.067 13.5 13.5 15.067 13.5 17C13.5 18.933 15.067 20.5 17 20.5C18.933 20.5 20.5 18.933 20.5 17C20.5 15.067 18.933 13.5 17 13.5ZM17 14.25C17.3797 14.25 17.6935 14.5322 17.7432 14.8982L17.75 15V16.6893L18.5303 17.4697C18.8232 17.7626 18.8232 18.2374 18.5303 18.5303C18.2641 18.7966 17.8474 18.8208 17.5538 18.6029L17.4697 18.5303L16.25 17.3107V15C16.25 14.5858 16.5858 14.25 17 14.25ZM7 16H9C9.55228 16 10 16.4477 10 17C10 17.5128 9.61396 17.9355 9.11662 17.9933L9 18H7C6.44772 18 6 17.5523 6 17C6 16.4872 6.38604 16.0645 6.88338 16.0067L7 16H9H7ZM11 11C11.5523 11 12 11.4477 12 12C12 12.5128 11.614 12.9355 11.1166 12.9933L11 13H7C6.44772 13 6 12.5523 6 12C6 11.4872 6.38604 11.0645 6.88338 11.0067L7 11H11ZM14 6C14.5523 6 15 6.44772 15 7C15 7.51284 14.614 7.93551 14.1166 7.99327L14 8H7C6.44772 8 6 7.55228 6 7C6 6.48716 6.38604 6.06449 6.88338 6.00673L7 6H14Z" fill="#25262B"/>
</g>
<defs>
<clipPath id="clip0_1417_154146">
<rect width="24" height="24" fill="white"/>
</clipPath>
</defs>
</svg>
