<svg width="236" height="160" viewBox="0 0 236 160" fill="none" xmlns="http://www.w3.org/2000/svg">
<g clip-path="url(#clip0_51_9482)">
<path d="M236 81.8714C234.505 84.3764 232.336 85.3112 229.42 85.1616C225.643 84.9747 221.83 85.1242 218.016 85.0868C214.576 85.0494 212.595 83.3295 212.52 80.4506C212.445 77.4595 214.314 75.777 217.866 75.7396C221.755 75.7022 225.681 75.8891 229.569 75.6648C232.336 75.5152 234.467 76.3752 236.037 78.6185C236 79.7028 236 80.7871 236 81.8714Z" fill="#EFC319"/>
<path d="M31.407 122.812C33.6503 123.037 35.2207 123.971 36.0059 126.103C36.7536 128.196 36.1554 130.103 34.4729 131.15C30.061 133.954 25.5369 136.572 20.9007 138.964C18.6947 140.124 16.6009 139.151 15.2923 137.095C14.0585 135.113 14.0958 132.795 15.9653 131.449C20.4894 128.159 25.4247 125.504 30.4349 123.037C30.734 122.887 31.1453 122.85 31.407 122.812Z" fill="#EFC319"/>
<path d="M216.408 21.4506C218.764 21.3758 220.297 22.3853 221.082 24.3295C221.867 26.3485 221.568 28.4797 219.698 29.6762C215.249 32.443 210.725 35.0976 206.089 37.4905C204.032 38.5374 201.976 37.6774 200.667 35.6958C199.359 33.7142 199.321 31.4334 201.153 30.0127C205.603 26.6103 210.613 24.0678 215.586 21.5253C215.81 21.4132 216.221 21.4879 216.408 21.4506Z" fill="#EFC319"/>
<path d="M221.381 134.59C221.418 137.843 218.24 140.423 215.324 138.964C210.576 136.646 205.977 133.917 201.49 131.075C199.434 129.767 199.172 127.037 200.518 125.056C201.901 122.999 203.958 122.102 206.126 123.224C210.688 125.617 215.1 128.234 219.474 130.888C220.82 131.674 221.418 133.02 221.381 134.59Z" fill="#EFC319"/>
<path d="M20.1152 21.4132C25.0132 24.1426 31.1076 26.3859 35.6317 31.0596C37.0525 32.5551 36.4169 34.7237 35.0335 36.2566C33.6501 37.827 31.7059 38.4626 29.8738 37.4905C25.3497 35.0602 20.863 32.4803 16.4885 29.7883C14.5817 28.6293 14.1704 26.5729 14.9182 24.4791C15.5912 22.4975 17.1241 21.488 20.1152 21.4132Z" fill="#EFC319"/>
<path d="M11.8525 75.7395C14.208 75.7395 16.5635 75.6648 18.919 75.7769C21.798 75.8891 23.5179 77.7212 23.5179 80.3758C23.5179 82.993 21.7232 85.012 18.9564 85.0868C14.1706 85.199 9.3848 85.199 4.59899 85.0868C1.86959 84.9746 -0.0746462 82.7313 0.00013195 80.2636C0.0749101 77.7212 1.98175 75.8517 4.78594 75.7395C7.14145 75.6648 9.49696 75.7395 11.8525 75.7395Z" fill="#EFC319"/>
<path d="M76.7971 121.354C69.6558 114.288 64.5335 105.95 61.991 96.2661C56.3453 74.917 61.0189 55.9233 76.1989 39.8086C85.434 29.9753 97.062 24.2547 110.522 22.6096C129.104 20.3663 145.144 25.8625 158.754 38.6122C158.904 38.7617 159.053 38.9487 159.203 39.1356C154.753 43.5475 150.304 47.922 145.855 52.2966C145.556 52.5957 145.443 52.8948 145.481 53.3061C143.649 53.2313 142.303 53.9791 141.106 55.3625C139.349 57.4563 137.48 59.4753 135.648 61.5317C131.31 66.3923 126.973 71.2154 122.636 76.076C122.038 76.0013 121.701 76.4125 121.365 76.7864C117.289 80.8618 113.214 84.9372 109.139 88.9753C108.802 89.3118 108.466 89.6109 108.428 90.1343C107.755 89.3492 107.12 88.564 106.447 87.7788C102.558 82.9556 98.7071 78.095 94.7812 73.2718C92.9866 71.0659 90.3693 70.692 88.3503 72.2623C86.2565 73.9075 86.0322 76.5621 87.7895 78.8428C88.4251 79.6654 89.0607 80.4506 89.6963 81.2357C93.7344 86.3206 97.7724 91.3682 101.81 96.4531C101.474 96.7148 101.137 96.9391 100.838 97.2383C93.0614 104.978 85.2844 112.755 77.5075 120.532C77.2458 120.793 77.0214 121.093 76.7971 121.354Z" fill="#63B96B"/>
<path d="M145.481 53.3435C145.443 52.9322 145.556 52.6331 145.855 52.334C150.304 47.9594 154.753 43.5475 159.203 39.173C163.652 43.3232 167.054 48.2212 169.859 53.5678C174.757 62.9899 176.888 73.0475 176.252 83.6286C174.682 109.913 156.062 131.524 131.011 136.983C110.709 141.395 92.837 136.272 77.5449 122.214C77.2831 121.952 77.0588 121.653 76.8345 121.392C77.0588 121.093 77.2831 120.793 77.5449 120.569C85.3218 112.792 93.0987 105.053 100.876 97.2757C101.175 96.9766 101.511 96.7522 101.848 96.4905C102.895 97.7991 103.979 99.0703 105.026 100.379C107.456 103.407 110.298 103.52 112.878 100.603C124.618 87.4423 136.321 74.2814 148.023 61.1204C150.715 58.0545 149.444 54.2408 145.481 53.3435Z" fill="#4AAD50"/>
<path d="M145.481 53.3435C149.444 54.2408 150.715 58.0545 148.023 61.083C136.32 74.244 124.618 87.4049 112.877 100.566C110.298 103.482 107.456 103.37 105.026 100.342C103.979 99.0329 102.894 97.7617 101.848 96.4531C97.8096 91.3682 93.7715 86.3206 89.7335 81.2357C89.0979 80.4506 88.4249 79.628 87.8267 78.8428C86.0694 76.5621 86.2937 73.9075 88.3875 72.2623C90.4065 70.692 93.0238 71.0659 94.8184 73.2718C98.7069 78.095 102.595 82.9556 106.484 87.7788C107.119 88.564 107.792 89.3492 108.465 90.1343C108.839 90.4708 108.877 91.6673 109.774 90.6578C114.074 85.7972 118.374 80.9366 122.673 76.076C127.01 71.2154 131.348 66.3923 135.685 61.5317C137.517 59.4753 139.386 57.4563 141.144 55.3625C142.265 54.0165 143.649 53.2313 145.481 53.3435Z" fill="#FEFEFE"/>
<path d="M122.636 76.076C118.336 80.9366 114.037 85.7972 109.737 90.6578C108.84 91.6673 108.802 90.5082 108.428 90.1343C108.466 89.6109 108.802 89.3118 109.139 88.9753C113.214 84.8998 117.289 80.8244 121.365 76.7864C121.701 76.4125 122.038 76.0012 122.636 76.076Z" fill="#4AAD50"/>
<path d="M118 15.3561C135.349 15.3561 151.65 22.1236 163.951 34.3872C176.215 46.6508 182.982 62.9525 182.982 80.3384C182.982 97.6869 176.215 113.989 163.951 126.29C151.688 138.553 135.386 145.321 118 145.321C100.614 145.321 84.35 138.553 72.049 126.29C59.7854 114.026 53.018 97.7243 53.018 80.3384C53.018 62.9899 59.7854 46.6882 72.049 34.3872C84.35 22.1236 100.652 15.3561 118 15.3561ZM118 9C78.6295 9 46.6992 40.9303 46.6992 80.3384C46.6992 119.709 78.6295 151.677 118.038 151.677C157.446 151.677 189.376 119.747 189.376 80.3384C189.339 40.9303 157.408 9 118 9Z" fill="#4AAD50"/>
</g>
<defs>
<clipPath id="clip0_51_9482">
<rect width="236" height="142.639" fill="white" transform="translate(0 9)"/>
</clipPath>
</defs>
</svg>
