<svg width="192" height="135" viewBox="0 0 192 135" fill="none" xmlns="http://www.w3.org/2000/svg">
<path d="M59.1133 122.136C59.2629 111.441 62.9275 102.093 69.5837 93.8661C73.3232 89.2292 77.8105 85.4149 82.7466 82.1242C85.9625 80.0301 87.907 77.1134 87.9818 73.1496C88.0566 69.3353 86.3365 66.269 83.2701 64.1749C79.5307 61.6321 75.9408 58.9397 72.7997 55.7238C66.0687 48.7684 61.5065 40.5416 59.7116 30.8938C59.2629 28.5754 59.0385 26.1821 59.1133 23.7889C59.7116 23.1906 60.5343 23.3402 61.2822 23.3402C71.7526 23.3402 82.2231 23.3402 92.6935 23.3402C105.333 23.3402 117.897 23.3402 130.537 23.3402C131.285 23.3402 132.182 23.1158 132.855 23.7889C132.706 34.4837 129.041 43.8323 122.385 52.0591C118.57 56.7708 114.008 60.6598 108.997 64.0253C103.762 67.5404 102.416 73.2991 105.632 78.6839C106.305 79.8806 107.352 80.778 108.474 81.5259C112.438 84.1435 116.177 86.9855 119.468 90.4258C126.049 97.3812 130.537 105.458 132.257 114.957C132.706 117.275 132.93 119.668 132.855 122.062C132.631 122.435 132.182 122.51 131.808 122.51C129.49 122.51 127.246 122.66 124.928 122.435C124.18 122.211 123.88 121.613 123.581 121.014C119.692 113.835 114.158 108.151 107.427 103.663C104.66 101.794 102.341 99.6996 100.92 96.6333C100.023 94.6888 99.4993 92.6695 99.4993 90.5754C99.4993 84.2931 99.4245 78.0108 99.4993 71.7286C99.5741 66.9421 101.519 62.9035 105.408 60.0615C107.95 58.1918 110.643 56.4716 112.961 54.3776C117.299 50.5633 120.964 46.1508 123.731 40.9903C123.806 40.8408 123.806 40.766 123.806 40.6164C123.507 40.3172 123.207 40.4668 122.833 40.4668C105.034 40.4668 87.2339 40.4668 69.3594 40.4668C67.9384 40.4668 67.9384 40.4668 68.6115 41.7382C72.1266 48.0953 76.9878 53.1809 82.8214 57.4439C84.5415 58.7153 86.4112 59.6876 87.9818 61.2581C90.8986 64.2497 92.3944 67.8396 92.4691 71.9529C92.5439 78.0856 92.5439 84.1435 92.4691 90.2762C92.3944 95.5862 90.2255 99.8492 85.7381 102.841C80.6525 106.281 76.0156 110.17 72.2013 115.031C70.8551 116.826 69.5837 118.621 68.5367 120.566C68.1628 121.239 67.8636 122.062 66.9661 122.361C64.6477 122.66 62.404 122.435 60.0855 122.435C59.7864 122.585 59.3377 122.51 59.1133 122.136Z" fill="#EBECEE"/>
<path d="M124.554 122.136C124.329 122.136 124.03 122.211 123.806 122.211C105.258 122.211 86.7105 122.211 68.2376 122.211C68.0133 122.211 67.7141 122.211 67.4897 122.136C71.3788 114.209 77.2871 108.076 84.6164 103.364C89.8516 99.9988 92.3944 95.3619 92.2449 89.1544C92.1701 83.8444 92.1701 78.4596 92.2449 73.1496C92.3197 67.0169 89.8516 62.4548 84.6912 59.164C77.7358 54.6767 72.2014 48.918 68.2376 41.7382C68.0133 41.2895 67.6393 40.8408 67.5645 40.1677C86.5609 40.1677 105.483 40.1677 124.554 40.1677C123.058 43.3088 121.188 46.076 119.019 48.6936C115.429 53.0314 111.241 56.6212 106.604 59.6128C103.239 61.7817 101.145 64.7732 100.172 68.6622C99.8733 69.8589 99.7985 71.1303 99.7985 72.3269C99.7985 78.1604 99.7985 83.9192 99.7985 89.7527C99.7985 95.4367 102.117 99.8492 106.903 102.99C114.158 107.702 120.141 113.76 124.18 121.463C124.329 121.688 124.404 121.912 124.554 122.136Z" fill="#FAB049"/>
<path d="M130.537 23.7889H61.4318C57.842 23.7889 55 20.9469 55 17.4318C55 13.842 57.842 11 61.4318 11H130.537C134.052 11 136.969 13.842 136.969 17.4318C136.894 20.9469 134.052 23.7889 130.537 23.7889Z" fill="#A1A8AE"/>
<path d="M130.537 135H61.4318C57.9168 135 55 132.158 55 128.568C55 125.053 57.842 122.136 61.4318 122.136H130.537C134.052 122.136 136.969 124.978 136.969 128.568C136.894 132.083 134.052 135 130.537 135Z" fill="#A1A8AE"/>
<path d="M191.314 60.8712C189.818 63.3763 187.65 64.311 184.734 64.1615C180.957 63.9745 177.144 64.1241 173.33 64.0867C169.89 64.0493 167.908 62.3294 167.834 59.4505C167.759 56.4593 169.628 54.7768 173.18 54.7394C177.069 54.702 180.995 54.889 184.883 54.6647C187.65 54.5151 189.781 55.3751 191.351 57.6184C191.314 58.7027 191.314 59.787 191.314 60.8712Z" fill="#EFC319"/>
<path d="M31.4089 101.812C33.6523 102.037 35.2226 102.971 36.0078 105.103C36.7556 107.196 36.1574 109.103 34.4749 110.15C30.0629 112.954 25.5389 115.571 20.9026 117.964C18.6967 119.123 16.6029 118.151 15.2942 116.095C14.0604 114.113 14.0978 111.795 15.9672 110.449C20.4913 107.159 25.4267 104.504 30.4368 102.037C30.7359 101.887 31.1472 101.85 31.4089 101.812Z" fill="#EFC319"/>
<path d="M171.722 0.450407C174.078 0.375629 175.611 1.38513 176.396 3.32937C177.181 5.34838 176.882 7.47956 175.012 8.67601C170.563 11.4428 166.039 14.0974 161.403 16.4903C159.346 17.5372 157.29 16.6773 155.981 14.6957C154.673 12.714 154.635 10.4333 156.467 9.01251C160.917 5.6101 165.927 3.06764 170.9 0.525186C171.124 0.413018 171.535 0.487796 171.722 0.450407Z" fill="#EFC319"/>
<path d="M176.695 113.59C176.732 116.843 173.554 119.422 170.638 117.964C165.89 115.646 161.291 112.917 156.804 110.075C154.748 108.767 154.486 106.037 155.832 104.056C157.215 101.999 159.272 101.102 161.44 102.223C166.002 104.616 170.414 107.234 174.788 109.888C176.134 110.673 176.732 112.019 176.695 113.59Z" fill="#EFC319"/>
<path d="M20.1172 0.413086C25.0152 3.14249 31.1096 5.38584 35.6337 10.0595C37.0545 11.555 36.4188 13.7236 35.0354 15.2566C33.652 16.8269 31.7078 17.4625 29.8757 16.4904C25.3517 14.0601 20.865 11.4803 16.4904 8.78824C14.5836 7.62918 14.1723 5.57278 14.9201 3.47899C15.5931 1.49737 17.1261 0.487864 20.1172 0.413086Z" fill="#EFC319"/>
<path d="M11.8544 54.7395C14.2099 54.7395 16.5655 54.6648 18.921 54.7769C21.7999 54.8891 23.5198 56.7212 23.5198 59.3758C23.5198 61.993 21.7252 64.012 18.9584 64.0868C14.1726 64.199 9.38675 64.199 4.60094 64.0868C1.87154 63.9746 -0.0726931 61.7313 0.00208508 59.2636C0.0768633 56.7212 1.98371 54.8517 4.78789 54.7395C7.1434 54.6648 9.49892 54.7395 11.8544 54.7395Z" fill="#EFC319"/>
</svg>
