<svg width="236" height="160" viewBox="0 0 236 160" fill="none" xmlns="http://www.w3.org/2000/svg">
<path d="M31.124 66.1999C31.124 66.1999 33.524 40.6999 55.924 28.3999C78.324 16.0999 100.724 25.2999 121.124 26.4999C131.824 27.0999 141.524 21.4999 152.024 19.7999C185.324 14.2999 212.424 50.0999 208.424 77.8999C204.924 102 189.324 119.8 160.424 133.7C131.524 147.6 111.624 158.4 77.524 149.3C43.324 140.1 29.524 99.1 31.124 66.1999Z" fill="#FAFAFA"/>
<path d="M126.5 12L54 45L52.5 50.5L93.5 142.5L99 147.5L174 110.5L126.5 12Z" fill="#4175B7"/>
<path d="M133.526 12.4019C132.98 11.3112 132.162 10.2205 131.072 9.40256C129.981 8.58458 128.89 8.03925 127.527 7.49393C127.254 6.9486 137.07 41.8494 135.98 60.1177C142.523 59.2997 148.795 59.2997 155.339 60.1177L133.526 12.4019Z" fill="#4175B7"/>
<path fill-rule="evenodd" clip-rule="evenodd" d="M121.528 7.76656L54.4532 38.5774C53.3626 39.1227 52.2719 39.668 51.454 40.7587C50.636 41.5767 50.0907 42.6673 49.5453 43.758C49 44.8486 49 45.9393 49 47.3026C49 48.3932 49.2727 49.7565 49.818 50.8472L72.4489 99.9263C72.449 99.9262 72.4491 99.926 72.4492 99.9259C72.4492 99.9261 72.4492 99.9262 72.4492 99.9264L93.4442 144.916C93.5805 145.188 93.7169 145.393 93.8532 145.597C93.9895 145.802 94.1258 146.006 94.2622 146.279H94.262C94.5687 146.647 94.8065 146.962 95.0217 147.247C95.7633 148.229 96.2388 148.859 98.3519 150.096C100.261 150.642 103.805 150.369 105.441 149.551L172.243 118.74C173.334 118.195 174.425 117.649 175.243 116.559C176.061 115.741 176.606 114.65 177.151 113.56L177.151 113.559C177.697 112.469 177.697 111.378 177.697 110.015C177.697 108.924 177.424 107.561 176.879 106.47L155.338 60.1177C149.067 58.7544 142.251 58.7544 135.979 60.1177C135.979 60.1177 135.979 60.1177 135.979 60.1177C135.979 60.1177 135.979 60.1177 135.979 60.1177C137.07 42.122 134.071 24.1263 127.527 7.49389C125.618 6.67591 123.437 6.94858 121.528 7.76656ZM131.339 60.8312C130.929 60.9051 130.52 60.9817 130.111 61.0611C130.516 60.9972 130.919 60.9173 131.339 60.8312ZM97.2609 74.4887C93.8772 76.7177 90.6816 79.1776 87.6904 81.8439L88.2636 81.3853L89.3543 80.5674L89.8996 80.022L90.9902 79.2041C92.6262 77.8407 94.5348 76.4774 96.4435 75.1141C96.7158 74.9023 96.9882 74.6938 97.2609 74.4887ZM85.6817 83.6946C82.7335 86.5019 80.0007 89.5172 77.5006 92.7146C77.7115 92.4828 77.9433 92.251 78.1751 92.0192L78.9931 90.9285C79.2382 90.6834 79.4282 90.4383 79.6375 90.1684C79.8937 89.8379 80.1788 89.4702 80.6291 89.0199C81.0381 88.6109 81.4471 88.1337 81.8561 87.6566C82.2651 87.1794 82.674 86.7022 83.083 86.2933C83.2648 86.1115 83.4769 85.9297 83.689 85.7479C84.1131 85.3844 84.5372 85.0208 84.719 84.6573L85.6817 83.6946ZM76.9053 93.4851C76.815 93.6035 76.725 93.722 76.6353 93.8408C76.6939 93.7762 76.7529 93.7141 76.8118 93.6551C76.8401 93.5985 76.8714 93.5418 76.9053 93.4851ZM75.729 95.0643C74.9482 96.1388 74.1927 97.2321 73.4631 98.3433L74.0852 97.4724L75.4485 95.5638C75.5233 95.4141 75.6187 95.2438 75.729 95.0643ZM135.979 60.1214C135.843 61.2108 135.775 62.3002 135.707 63.3897C135.701 63.4874 135.695 63.5851 135.688 63.6828C135.793 62.513 135.886 61.3331 135.979 60.1214ZM133.994 75.9719C133.884 76.4342 133.773 76.933 133.662 77.4319C133.526 78.0453 133.389 78.6588 133.253 79.2041C133.253 79.3799 133.246 79.5486 133.233 79.7125C133.428 78.8402 133.613 77.9471 133.798 77.0228C133.886 76.6725 133.945 76.3222 133.994 75.9719ZM105.292 135.281C105.186 135.399 105.08 135.518 104.975 135.636C105.087 135.608 105.144 135.516 105.218 135.397C105.24 135.361 105.264 135.321 105.292 135.281ZM104.171 136.563C104.294 136.416 104.42 136.268 104.548 136.121C104.429 136.271 104.303 136.419 104.171 136.563Z" fill="#4175B7"/>
<path d="M137.616 17.3098L134.616 18.6731L140.615 31.7609L143.614 30.3976C143.887 30.1249 144.432 29.8522 144.705 29.5796C144.978 29.3069 145.25 29.0342 145.25 28.4889C145.523 28.2163 145.523 27.6709 145.523 27.3983C145.523 26.853 145.523 26.5803 145.25 26.3076L141.978 18.9458C141.706 18.1278 140.888 17.5824 140.342 17.3098C139.252 17.0371 138.434 17.0371 137.616 17.3098Z" fill="#F5AAC6"/>
<path d="M145.795 34.7601L142.796 36.1234L148.795 49.2112L151.794 47.8479C152.067 47.5752 152.612 47.3026 152.885 47.0299C153.157 46.7572 153.43 46.4846 153.43 45.9393C153.703 45.6666 153.703 45.1213 153.703 44.5759C153.703 44.0306 153.703 43.758 153.43 43.4853L150.158 36.1234C149.885 35.3054 149.067 34.7601 148.249 34.4875C147.431 34.2148 146.341 34.2148 145.795 34.7601Z" fill="#FED357"/>
<path d="M153.975 52.2105L150.976 53.5738L156.975 66.6616L159.974 65.2983C160.247 65.0256 160.792 64.753 161.065 64.4803C161.337 64.2077 161.61 63.935 161.61 63.3897C161.883 63.117 161.883 62.5717 161.883 62.0264C161.883 61.481 161.883 61.2084 161.61 60.9357L158.338 53.5738C158.065 52.7558 157.247 52.2105 156.429 51.9379C155.611 51.9379 154.521 51.9379 153.975 52.2105Z" fill="#B779B6"/>
<path d="M161.882 69.3882L158.883 70.7515L164.881 83.8393L167.881 82.476C168.699 82.2033 169.244 81.3854 169.517 80.5674C169.789 79.7494 169.789 78.9314 169.517 78.1134L166.245 70.7515C165.972 70.4789 165.699 69.9336 165.427 69.6609C165.154 69.3882 164.881 69.1156 164.336 69.1156C163.791 69.1156 163.518 68.8429 162.973 68.8429C162.7 69.1156 162.155 69.3882 161.882 69.3882Z" fill="#F69AA1"/>
<path d="M169.789 86.8387L166.79 88.202L172.789 101.29L175.788 99.9264C176.606 99.6538 177.151 98.8358 177.424 98.2905C177.697 97.4725 177.697 96.6545 177.424 95.8365L174.152 88.4746C173.879 87.6567 173.061 87.1113 172.243 86.8387C171.425 86.566 170.607 86.566 169.789 86.8387Z" fill="#9AD38E"/>
<path d="M58.5436 54.9371L51.727 58.209C51.4544 58.4817 51.1817 58.4817 50.909 58.7544C50.6364 59.027 50.3637 59.2997 50.3637 59.5723C50.3637 59.845 50.0911 60.3903 50.0911 60.663C50.0911 60.9356 50.0911 61.481 50.3637 61.7536C50.6364 62.0263 50.6364 62.299 50.909 62.5716C51.1817 62.8443 51.4544 63.1169 51.727 63.1169C51.9997 63.1169 52.545 63.3896 52.8177 63.3896C53.0903 63.3896 53.6357 63.3896 53.9083 63.1169L60.7249 59.845C60.9975 59.5723 61.2702 59.5723 61.5429 59.2997C61.8155 59.027 62.0882 58.7544 62.0882 58.4817C62.0882 58.209 62.3609 57.6637 62.3609 57.391C62.3609 57.1184 62.3609 56.5731 62.0882 56.3004C61.8155 56.0277 61.8155 55.7551 61.5429 55.4824C61.2702 55.2098 60.9975 54.9371 60.7249 54.9371C60.4522 54.9371 59.9069 54.6644 59.6342 54.6644C59.0889 54.6644 58.8162 54.6644 58.5436 54.9371Z" fill="#61A3EB"/>
<path d="M65.3599 70.2063L58.5434 73.4782C57.9981 73.7509 57.4527 74.2962 57.1801 75.1142C56.9074 75.9322 56.9074 76.4775 57.1801 77.2955C57.4527 77.8408 57.9981 78.3861 58.8161 78.6588C59.634 78.9314 60.1794 78.9314 60.9974 78.6588L67.8139 75.3868C68.3592 75.1142 68.9046 74.5689 69.1772 73.7509C69.4499 73.2056 69.4499 72.3876 69.1772 71.8422C68.9046 71.2969 68.3592 70.7516 67.8139 70.4789C66.9959 69.9336 66.1779 69.9336 65.3599 70.2063Z" fill="#61A3EB"/>
<path d="M72.4493 85.2026L65.6328 88.4745C65.3601 88.4745 64.8148 88.7472 64.5421 89.0198C64.2694 89.2925 63.9968 89.5652 63.9968 89.8378C63.9968 90.3832 63.7241 90.6558 63.7241 91.2012C63.7241 91.4738 63.7241 92.0191 63.9968 92.2918C64.2694 92.5644 64.2694 92.8371 64.5421 93.1098C64.8148 93.3824 65.0874 93.6551 65.6328 93.6551C65.9054 93.6551 66.4507 93.9278 66.7234 93.6551C66.9961 93.6551 67.5414 93.3824 67.8141 93.3824L74.6306 90.3832C75.1759 90.1105 75.7213 89.5652 75.9939 88.7472C76.2666 88.2019 76.2666 87.3839 75.9939 86.8385C75.7213 86.2932 75.1759 85.7479 74.6306 85.4752C73.8126 85.2026 73.2673 85.2026 72.4493 85.2026Z" fill="#61A3EB"/>
<path d="M79.5386 100.472L72.7221 103.744C72.4494 103.744 71.9041 104.016 71.6314 104.289C71.3588 104.562 71.0861 104.834 70.8134 105.107C70.5408 105.38 70.5408 105.925 70.5408 106.198C70.5408 106.47 70.5408 107.016 70.8134 107.288C71.0861 107.561 71.0861 107.834 71.6314 108.106C71.9041 108.379 72.1767 108.652 72.7221 108.652C72.9947 108.652 73.5401 108.924 73.8127 108.652C74.0854 108.652 74.6307 108.379 74.9034 108.379L81.7199 105.107C81.9926 105.107 82.5379 104.834 82.8106 104.562C83.0832 104.289 83.3559 104.016 83.6285 103.744C83.9012 103.471 83.9012 102.926 83.9012 102.653C83.9012 102.38 83.9012 101.835 83.6285 101.562C83.3559 101.29 83.3559 101.017 82.8106 100.744C82.5379 100.472 82.2652 100.199 81.7199 100.199C81.4473 100.199 80.9019 99.9265 80.6293 100.199C80.3566 100.199 79.8113 100.472 79.5386 100.472Z" fill="#61A3EB"/>
<path d="M86.6275 115.741L79.811 119.013C79.2656 119.285 78.7203 119.831 78.4477 120.649C78.175 121.194 78.175 122.012 78.4477 122.557C78.7203 123.103 79.2656 123.648 79.811 123.921C80.3563 124.193 81.1743 124.193 81.7196 123.921L88.5362 120.649C89.0815 120.376 89.6268 119.831 89.8995 119.013C90.1721 118.467 90.1721 117.649 89.8995 117.104C89.6268 116.559 89.0815 116.013 88.5362 115.741C87.9908 115.468 87.1728 115.468 86.6275 115.741Z" fill="#61A3EB"/>
<path d="M93.7164 131.01L86.8998 134.282C86.6272 134.282 86.0819 134.555 85.8092 134.827C85.5365 135.1 85.2639 135.372 85.2639 135.645C84.9912 135.918 84.9912 136.463 84.9912 136.736C84.9912 137.008 84.9912 137.554 85.2639 137.826C85.5365 138.099 85.5365 138.372 85.8092 138.644C86.0819 138.917 86.3545 139.19 86.8998 139.19C87.1725 139.19 87.7178 139.462 87.9905 139.19C88.2632 139.19 88.8085 138.917 89.0811 138.917L95.8977 135.645C96.443 135.372 96.9884 134.827 97.261 134.009C97.5337 133.464 97.5337 132.646 97.261 132.101C96.9884 131.555 96.443 131.01 95.8977 130.737C95.0797 130.737 94.2617 130.737 93.7164 131.01Z" fill="#61A3EB"/>
</svg>
