<svg width="237" height="160" viewBox="0 0 237 160" fill="none" xmlns="http://www.w3.org/2000/svg">
<g clip-path="url(#clip0_1_2288)">
<path d="M7.65254 18.3557C-1.07518 34.7859 -2.30057 54.1669 3.82635 71.7474C15.58 105.458 46.7648 164.051 120.813 159.8C224.37 153.848 235.624 88.9278 235.624 87.3773C235.624 85.9268 245.177 -9.07786 174.955 21.3817C166.552 25.0078 158.75 29.9093 151.673 35.7612C145.496 40.8628 135.167 48.5902 123.664 53.6418C112.21 58.6683 98.831 55.0672 91.2537 45.0391C72.5728 20.2563 31.0849 -25.7331 7.65254 18.3557Z" fill="#F0F8FC"/>
<path opacity="0.4" d="M169.003 153.648C169.003 154.848 145.896 155.798 117.412 155.798C88.928 155.798 65.8208 154.823 65.8208 153.648C65.8208 152.447 88.928 151.497 117.412 151.497C145.896 151.497 169.003 152.447 169.003 153.648Z" fill="#A1D7E5"/>
<path d="M118.387 3.50098C115.536 3.50098 113.21 5.8267 113.21 8.67759V15.3047H123.564C123.564 15.3047 123.564 10.028 123.564 8.67759C123.564 5.8267 121.263 3.50098 118.387 3.50098ZM118.387 11.6535C116.787 11.6535 115.486 10.3531 115.486 8.75262C115.486 7.15212 116.787 5.85171 118.387 5.85171C119.988 5.85171 121.288 7.15212 121.288 8.75262C121.288 10.3531 119.988 11.6535 118.387 11.6535Z" fill="#E8505B"/>
<g opacity="0.45">
<path d="M121.288 8.75265C121.288 7.15215 119.988 5.85174 118.387 5.85174C118.237 5.85174 118.087 5.87675 117.962 5.90175C118.387 5.7267 118.412 5.62667 119.137 5.62667C120.738 5.62667 122.038 6.92707 122.038 8.52758C122.038 9.97803 121.288 10.7783 120.163 11.0534C120.788 10.5032 121.288 9.62792 121.288 8.75265ZM114.786 14.6545V8.02742C114.786 6.22686 115.561 4.65136 116.962 3.72607C114.786 4.35127 113.21 6.32689 113.21 8.70263V15.3297H123.564C123.564 15.3297 123.564 15.0796 123.564 14.6795H114.786V14.6545Z" fill="#B03D44"/>
</g>
<path d="M163.751 153.623H71.0722C69.7218 153.623 68.6465 152.522 68.6465 151.197V18.1054C68.6465 16.755 69.7468 15.6797 71.0722 15.6797H163.776C165.127 15.6797 166.202 16.78 166.202 18.1054V151.197C166.202 152.522 165.102 153.623 163.751 153.623Z" fill="#F4AF25"/>
<path d="M160.525 21.0815H74.2734V148.221H160.525V21.0815Z" fill="#F7D9A4"/>
<path d="M157.225 24.9575H77.5996V144.32H157.225V24.9575Z" fill="white"/>
<path d="M148.797 17.9555V23.1321H86.0273V17.9555C86.0273 17.5804 86.0774 17.2053 86.2024 16.8802C86.6525 15.4047 88.053 14.3294 89.6785 14.3294H145.171C147.171 14.3044 148.797 15.9299 148.797 17.9555Z" fill="#E8505B"/>
<path opacity="0.45" d="M148.797 21.8316V23.132H86.0273V19.3808C86.0273 18.3805 86.0774 17.5552 86.2024 16.855C86.6525 15.3795 88.053 14.3042 89.6785 14.3042H90.1286C89.1783 15.2295 88.4781 16.6299 88.4781 18.0804V21.8316H148.797Z" fill="#B03D44"/>
<g opacity="0.15">
<path d="M112.61 38.4618H99.6811C99.231 38.4618 98.8809 38.0867 98.8809 37.6616C98.8809 37.2364 99.256 36.8613 99.6811 36.8613H112.61C113.06 36.8613 113.41 37.2364 113.41 37.6616C113.41 38.0867 113.06 38.4618 112.61 38.4618Z" fill="#0964AF"/>
<path d="M151.472 42.5883H141.644C141.194 42.5883 140.844 42.2132 140.844 41.788C140.844 41.3629 141.219 40.9878 141.644 40.9878H151.472C151.922 40.9878 152.272 41.3629 152.272 41.788C152.272 42.2132 151.922 42.5883 151.472 42.5883Z" fill="#0964AF"/>
<path d="M137.368 42.5883H99.6811C99.231 42.5883 98.8809 42.2132 98.8809 41.788C98.8809 41.3629 99.256 40.9878 99.6811 40.9878H137.393C137.843 40.9878 138.193 41.3629 138.193 41.788C138.193 42.2132 137.818 42.5883 137.368 42.5883Z" fill="#0964AF"/>
<path d="M151.472 46.7143H99.6811C99.231 46.7143 98.8809 46.3392 98.8809 45.914C98.8809 45.4889 99.256 45.1138 99.6811 45.1138H151.472C151.922 45.1138 152.273 45.4889 152.273 45.914C152.273 46.3392 151.922 46.7143 151.472 46.7143Z" fill="#0964AF"/>
<path d="M151.472 50.8407H135.017C134.567 50.8407 134.217 50.4656 134.217 50.0405C134.217 49.6154 134.592 49.2402 135.017 49.2402H151.472C151.922 49.2402 152.272 49.6154 152.272 50.0405C152.272 50.4656 151.922 50.8407 151.472 50.8407Z" fill="#0964AF"/>
<path d="M130.916 50.8407H99.6811C99.231 50.8407 98.8809 50.4656 98.8809 50.0405C98.8809 49.6154 99.256 49.2402 99.6811 49.2402H130.916C131.366 49.2402 131.716 49.6154 131.716 50.0405C131.716 50.4656 131.366 50.8407 130.916 50.8407Z" fill="#0964AF"/>
<path d="M151.472 38.4618H116.861C116.411 38.4618 116.061 38.0867 116.061 37.6616C116.061 37.2364 116.436 36.8613 116.861 36.8613H151.472C151.922 36.8613 152.272 37.2364 152.272 37.6616C152.272 38.0867 151.922 38.4618 151.472 38.4618Z" fill="#0964AF"/>
</g>
<g opacity="0.15">
<path d="M112.61 68.0961H99.6811C99.231 68.0961 98.8809 67.721 98.8809 67.2959C98.8809 66.8707 99.256 66.4956 99.6811 66.4956H112.61C113.06 66.4956 113.41 66.8707 113.41 67.2959C113.41 67.721 113.06 68.0961 112.61 68.0961Z" fill="#0964AF"/>
<path d="M151.472 72.2226H141.644C141.194 72.2226 140.844 71.8475 140.844 71.4223C140.844 70.9972 141.219 70.6221 141.644 70.6221H151.472C151.922 70.6221 152.272 70.9972 152.272 71.4223C152.272 71.8475 151.922 72.2226 151.472 72.2226Z" fill="#0964AF"/>
<path d="M137.368 72.2226H99.6811C99.231 72.2226 98.8809 71.8475 98.8809 71.4223C98.8809 70.9972 99.256 70.6221 99.6811 70.6221H137.393C137.843 70.6221 138.193 70.9972 138.193 71.4223C138.193 71.8475 137.818 72.2226 137.368 72.2226Z" fill="#0964AF"/>
<path d="M151.472 76.3485H99.6811C99.231 76.3485 98.8809 75.9734 98.8809 75.5483C98.8809 75.1232 99.256 74.748 99.6811 74.748H151.472C151.922 74.748 152.273 75.1232 152.273 75.5483C152.273 75.9734 151.922 76.3485 151.472 76.3485Z" fill="#0964AF"/>
<path d="M151.472 80.475H135.017C134.567 80.475 134.217 80.0999 134.217 79.6748C134.217 79.2496 134.592 78.8745 135.017 78.8745H151.472C151.922 78.8745 152.272 79.2496 152.272 79.6748C152.272 80.0999 151.922 80.475 151.472 80.475Z" fill="#0964AF"/>
<path d="M130.916 80.475H99.6811C99.231 80.475 98.8809 80.0999 98.8809 79.6748C98.8809 79.2496 99.256 78.8745 99.6811 78.8745H130.916C131.366 78.8745 131.716 79.2496 131.716 79.6748C131.716 80.0999 131.366 80.475 130.916 80.475Z" fill="#0964AF"/>
<path d="M151.472 68.0961H116.861C116.411 68.0961 116.061 67.721 116.061 67.2959C116.061 66.8707 116.436 66.4956 116.861 66.4956H151.472C151.922 66.4956 152.272 66.8707 152.272 67.2959C152.272 67.721 151.922 68.0961 151.472 68.0961Z" fill="#0964AF"/>
</g>
<g opacity="0.15">
<path d="M112.61 96.705H99.6811C99.231 96.705 98.8809 96.3299 98.8809 95.9047C98.8809 95.4796 99.256 95.1045 99.6811 95.1045H112.61C113.06 95.1045 113.41 95.4796 113.41 95.9047C113.41 96.3299 113.06 96.705 112.61 96.705Z" fill="#0964AF"/>
<path d="M151.472 100.831H141.644C141.194 100.831 140.844 100.456 140.844 100.031C140.844 99.6061 141.219 99.231 141.644 99.231H151.472C151.922 99.231 152.272 99.6061 152.272 100.031C152.272 100.456 151.922 100.831 151.472 100.831Z" fill="#0964AF"/>
<path d="M137.368 100.831H99.6811C99.231 100.831 98.8809 100.456 98.8809 100.031C98.8809 99.6061 99.256 99.231 99.6811 99.231H137.393C137.843 99.231 138.193 99.6061 138.193 100.031C138.193 100.456 137.818 100.831 137.368 100.831Z" fill="#0964AF"/>
<path d="M151.472 104.957H99.6811C99.231 104.957 98.8809 104.582 98.8809 104.157C98.8809 103.732 99.256 103.357 99.6811 103.357H151.472C151.922 103.357 152.273 103.732 152.273 104.157C152.273 104.582 151.922 104.957 151.472 104.957Z" fill="#0964AF"/>
<path d="M151.472 109.084H135.017C134.567 109.084 134.217 108.709 134.217 108.284C134.217 107.859 134.592 107.483 135.017 107.483H151.472C151.922 107.483 152.272 107.859 152.272 108.284C152.272 108.709 151.922 109.084 151.472 109.084Z" fill="#0964AF"/>
<path d="M130.916 109.084H99.6811C99.231 109.084 98.8809 108.709 98.8809 108.284C98.8809 107.859 99.256 107.483 99.6811 107.483H130.916C131.366 107.483 131.716 107.859 131.716 108.284C131.716 108.709 131.366 109.084 130.916 109.084Z" fill="#0964AF"/>
<path d="M151.472 96.705H116.861C116.411 96.705 116.061 96.3299 116.061 95.9047C116.061 95.4796 116.436 95.1045 116.861 95.1045H151.472C151.922 95.1045 152.272 95.4796 152.272 95.9047C152.272 96.3299 151.922 96.705 151.472 96.705Z" fill="#0964AF"/>
</g>
<g opacity="0.15">
<path d="M112.61 125.839H99.6811C99.231 125.839 98.8809 125.464 98.8809 125.039C98.8809 124.614 99.256 124.239 99.6811 124.239H112.61C113.06 124.239 113.41 124.614 113.41 125.039C113.41 125.464 113.06 125.839 112.61 125.839Z" fill="#0964AF"/>
<path d="M151.472 129.966H141.644C141.194 129.966 140.844 129.591 140.844 129.165C140.844 128.74 141.219 128.365 141.644 128.365H151.472C151.922 128.365 152.272 128.74 152.272 129.165C152.272 129.591 151.922 129.966 151.472 129.966Z" fill="#0964AF"/>
<path d="M137.368 129.966H99.6811C99.231 129.966 98.8809 129.591 98.8809 129.165C98.8809 128.74 99.256 128.365 99.6811 128.365H137.393C137.843 128.365 138.193 128.74 138.193 129.165C138.193 129.591 137.818 129.966 137.368 129.966Z" fill="#0964AF"/>
<path d="M151.472 134.092H99.6811C99.231 134.092 98.8809 133.717 98.8809 133.291C98.8809 132.866 99.256 132.491 99.6811 132.491H151.472C151.922 132.491 152.273 132.866 152.273 133.291C152.273 133.717 151.922 134.092 151.472 134.092Z" fill="#0964AF"/>
<path d="M151.472 138.218H135.017C134.567 138.218 134.217 137.843 134.217 137.418C134.217 136.993 134.592 136.618 135.017 136.618H151.472C151.922 136.618 152.272 136.993 152.272 137.418C152.272 137.843 151.922 138.218 151.472 138.218Z" fill="#0964AF"/>
<path d="M130.916 138.218H99.6811C99.231 138.218 98.8809 137.843 98.8809 137.418C98.8809 136.993 99.256 136.618 99.6811 136.618H130.916C131.366 136.618 131.716 136.993 131.716 137.418C131.716 137.843 131.366 138.218 130.916 138.218Z" fill="#0964AF"/>
<path d="M151.472 125.839H116.861C116.411 125.839 116.061 125.464 116.061 125.039C116.061 124.614 116.436 124.239 116.861 124.239H151.472C151.922 124.239 152.272 124.614 152.272 125.039C152.272 125.464 151.922 125.839 151.472 125.839Z" fill="#0964AF"/>
</g>
<path d="M94.7547 49.0651H84.0263C83.2761 49.0651 82.6509 48.44 82.6509 47.6897V36.9614C82.6509 36.2111 83.2761 35.5859 84.0263 35.5859H94.7547C95.5049 35.5859 96.1301 36.2111 96.1301 36.9614V47.6897C96.1301 48.44 95.5049 49.0651 94.7547 49.0651ZM84.2764 47.4396H94.5046V37.2114H84.2764V47.4396Z" fill="#C1E1F7"/>
<path d="M94.7547 78.6242H84.0263C83.2761 78.6242 82.6509 77.999 82.6509 77.2488V66.5204C82.6509 65.7702 83.2761 65.145 84.0263 65.145H94.7547C95.5049 65.145 96.1301 65.7702 96.1301 66.5204V77.2488C96.1301 77.999 95.5049 78.6242 94.7547 78.6242ZM84.2764 76.9987H94.5046V66.7705H84.2764V76.9987Z" fill="#C1E1F7"/>
<path d="M94.7547 108.158H84.0263C83.2761 108.158 82.6509 107.533 82.6509 106.783V96.0546C82.6509 95.3044 83.2761 94.6792 84.0263 94.6792H94.7547C95.5049 94.6792 96.1301 95.3044 96.1301 96.0546V106.783C96.1301 107.558 95.5049 108.158 94.7547 108.158ZM84.2764 106.533H94.5046V96.3047H84.2764V106.533Z" fill="#C1E1F7"/>
<path d="M94.7547 137.718H84.0263C83.2761 137.718 82.6509 137.093 82.6509 136.343V125.614C82.6509 124.864 83.2761 124.239 84.0263 124.239H94.7547C95.5049 124.239 96.1301 124.864 96.1301 125.614V136.343C96.1301 137.093 95.5049 137.718 94.7547 137.718ZM84.2764 136.092H94.5046V125.864H84.2764V136.092Z" fill="#C1E1F7"/>
<path d="M89.378 46.7144C89.0529 46.7144 88.7528 46.5643 88.5528 46.3142L84.0764 40.9126C83.7012 40.4624 83.7513 39.7622 84.2264 39.3871C84.6765 39.012 85.3768 39.062 85.7519 39.5371L89.278 43.7885L97.0804 31.4846C97.4055 30.9845 98.0557 30.8344 98.5809 31.1595C99.0811 31.4846 99.2311 32.1348 98.906 32.66L90.3033 46.2392C90.1283 46.5393 89.8032 46.7144 89.453 46.7394C89.428 46.7144 89.403 46.7144 89.378 46.7144Z" fill="#3971E2"/>
<path d="M89.378 76.0235C89.0529 76.0235 88.7528 75.8734 88.5528 75.6233L84.0764 70.2216C83.7012 69.7715 83.7513 69.0713 84.2264 68.6962C84.6765 68.321 85.3768 68.3711 85.7519 68.8462L89.278 73.0975L97.0804 60.7937C97.4055 60.2935 98.0557 60.1435 98.5809 60.4686C99.0811 60.7937 99.2311 61.4439 98.906 61.9691L90.3033 75.5233C90.1283 75.8234 89.8032 75.9984 89.453 76.0235C89.428 76.0235 89.403 76.0235 89.378 76.0235Z" fill="#3971E2"/>
<path d="M89.378 106.033C89.0529 106.033 88.7528 105.883 88.5528 105.633L84.0764 100.231C83.7012 99.7808 83.7513 99.0806 84.2264 98.7054C84.6765 98.3303 85.3768 98.3803 85.7519 98.8555L89.278 103.107L97.0804 90.803C97.4055 90.3028 98.0557 90.1528 98.5809 90.4779C99.0811 90.803 99.2311 91.4532 98.906 91.9783L90.3033 105.533C90.1283 105.833 89.8032 106.008 89.453 106.033C89.428 106.033 89.403 106.033 89.378 106.033Z" fill="#3971E2"/>
<path d="M89.378 135.492C89.0529 135.492 88.7528 135.342 88.5528 135.092L84.0764 129.69C83.7012 129.24 83.7513 128.54 84.2264 128.165C84.6765 127.79 85.3768 127.84 85.7519 128.315L89.278 132.566L97.0804 120.262C97.4055 119.762 98.0557 119.612 98.5809 119.937C99.0811 120.262 99.2311 120.913 98.906 121.438L90.3033 135.017C90.1283 135.317 89.8032 135.492 89.453 135.517C89.428 135.492 89.403 135.492 89.378 135.492Z" fill="#3971E2"/>
<path d="M162.076 148.246C175.362 148.246 186.133 137.475 186.133 124.189C186.133 110.902 175.362 100.131 162.076 100.131C148.789 100.131 138.018 110.902 138.018 124.189C138.018 137.475 148.789 148.246 162.076 148.246Z" fill="white"/>
<path d="M147.296 138.943C144.72 136.392 142.87 133.367 141.944 129.865C139.894 122.138 141.594 115.261 147.071 109.434C150.422 105.883 154.623 103.807 159.475 103.207C166.177 102.407 172.004 104.382 176.905 109.009C176.955 109.059 177.005 109.134 177.08 109.209C175.48 110.809 173.879 112.385 172.254 113.985C172.154 114.085 172.104 114.211 172.129 114.361C171.478 114.336 170.978 114.611 170.553 115.111C169.903 115.861 169.253 116.611 168.578 117.337C167.002 119.087 165.427 120.838 163.876 122.588C163.651 122.563 163.551 122.713 163.401 122.838C161.926 124.314 160.45 125.789 158.975 127.24C158.85 127.365 158.725 127.465 158.725 127.665C158.499 127.39 158.249 127.09 158.024 126.814C156.624 125.064 155.223 123.313 153.823 121.563C153.173 120.763 152.222 120.638 151.497 121.188C150.747 121.788 150.647 122.738 151.297 123.563C151.522 123.864 151.772 124.139 151.997 124.439C153.448 126.264 154.923 128.115 156.374 129.94C156.249 130.04 156.124 130.115 156.024 130.241C153.198 133.041 150.397 135.842 147.596 138.668C147.446 138.743 147.371 138.843 147.296 138.943Z" fill="#63B96B"/>
<path d="M172.129 114.336C172.104 114.186 172.154 114.086 172.254 113.961C173.854 112.385 175.48 110.785 177.08 109.184C178.681 110.685 179.931 112.46 180.931 114.386C182.707 117.787 183.482 121.438 183.257 125.264C182.707 134.767 175.955 142.595 166.902 144.57C159.575 146.171 153.098 144.32 147.571 139.218C147.471 139.118 147.396 139.018 147.296 138.918C147.371 138.818 147.471 138.718 147.546 138.618C150.347 135.817 153.173 132.992 155.974 130.191C156.074 130.091 156.199 129.991 156.324 129.891C156.699 130.366 157.099 130.816 157.474 131.291C158.349 132.391 159.375 132.416 160.325 131.366C164.576 126.615 168.803 121.863 173.029 117.087C174.029 116.036 173.554 114.661 172.129 114.336Z" fill="#4AAD50"/>
<path d="M172.128 114.336C173.579 114.661 174.029 116.036 173.054 117.136C168.827 121.888 164.576 126.664 160.35 131.416C159.425 132.466 158.374 132.416 157.499 131.341C157.124 130.866 156.724 130.416 156.349 129.94C154.898 128.115 153.423 126.264 151.972 124.439C151.747 124.139 151.497 123.864 151.272 123.563C150.647 122.738 150.722 121.788 151.472 121.188C152.197 120.613 153.148 120.763 153.798 121.563C155.198 123.313 156.599 125.064 157.999 126.814C158.224 127.115 158.474 127.39 158.699 127.665C158.824 127.79 158.849 128.215 159.174 127.84C160.725 126.089 162.3 124.314 163.851 122.563C165.426 120.813 167.002 119.062 168.552 117.311C169.203 116.561 169.878 115.836 170.528 115.086C170.978 114.586 171.478 114.311 172.128 114.336Z" fill="#FEFEFE"/>
<path d="M163.876 122.563C162.326 124.314 160.775 126.089 159.2 127.84C158.875 128.19 158.85 127.79 158.725 127.665C158.75 127.49 158.85 127.365 158.975 127.24C160.45 125.764 161.926 124.289 163.401 122.838C163.526 122.688 163.651 122.538 163.876 122.563Z" fill="#4AAD50"/>
<path d="M162.201 100.606C168.477 100.606 174.379 103.057 178.806 107.484C183.232 111.91 185.683 117.812 185.683 124.089C185.683 130.366 183.232 136.268 178.806 140.694C174.379 145.12 168.477 147.571 162.201 147.571C155.924 147.571 150.022 145.12 145.595 140.694C141.169 136.268 138.718 130.366 138.718 124.089C138.718 117.812 141.169 111.91 145.595 107.484C150.022 103.057 155.924 100.606 162.201 100.606ZM162.201 98.3057C147.946 98.3057 136.417 109.859 136.417 124.089C136.417 138.343 147.971 149.872 162.201 149.872C176.43 149.872 187.984 138.318 187.984 124.089C187.984 109.859 176.43 98.3057 162.201 98.3057Z" fill="#4AAD50"/>
</g>
<defs>
<clipPath id="clip0_1_2288">
<rect width="236.074" height="160" fill="white"/>
</clipPath>
</defs>
</svg>
