<svg width="238" height="178" viewBox="0 0 238 178" fill="none" xmlns="http://www.w3.org/2000/svg">
<path d="M8.61837 18.3635C-0.109363 34.7937 -1.33475 54.1747 4.79217 71.7552C16.5458 105.466 47.7306 164.059 121.779 159.808C225.336 153.856 236.59 88.9356 236.59 87.3851C236.59 85.9346 246.143 -9.07004 175.921 21.3895C167.518 25.0156 159.716 29.9171 152.638 35.769C146.461 40.8706 136.133 48.598 124.63 53.6496C113.176 58.6761 99.7969 55.075 92.2195 45.0469C73.5387 20.2641 32.0507 -25.7252 8.61837 18.3635Z" fill="#F0F8FC"/>
<path opacity="0.4" d="M169.969 153.655C169.969 154.855 146.862 155.805 118.378 155.805C89.8938 155.805 66.7866 154.83 66.7866 153.655C66.7866 152.454 89.8938 151.504 118.378 151.504C146.862 151.504 169.969 152.454 169.969 153.655Z" fill="#A1D7E5"/>
<path d="M119.353 3.50781C116.502 3.50781 114.176 5.83354 114.176 8.68443V15.3115H124.53C124.53 15.3115 124.53 10.0349 124.53 8.68443C124.53 5.83354 122.229 3.50781 119.353 3.50781ZM119.353 11.6604C117.752 11.6604 116.452 10.36 116.452 8.75945C116.452 7.15895 117.752 5.85855 119.353 5.85855C120.953 5.85855 122.254 7.15895 122.254 8.75945C122.254 10.36 120.953 11.6604 119.353 11.6604Z" fill="#E8505B"/>
<g opacity="0.45">
<path d="M122.254 8.75899C122.254 7.15849 120.953 5.85809 119.353 5.85809C119.203 5.85809 119.053 5.88309 118.928 5.9081C119.353 5.73305 119.378 5.63302 120.103 5.63302C121.704 5.63302 123.004 6.93342 123.004 8.53392C123.004 9.98438 122.254 10.7846 121.128 11.0597C121.754 10.5095 122.254 9.63427 122.254 8.75899ZM115.752 14.6608V8.03377C115.752 6.2332 116.527 4.65771 117.927 3.73242C115.752 4.35762 114.176 6.33323 114.176 8.70898V15.336H124.53C124.53 15.336 124.53 15.086 124.53 14.6858H115.752V14.6608Z" fill="#B03D44"/>
</g>
<path d="M164.717 153.631H72.0381C70.6876 153.631 69.6123 152.53 69.6123 151.205V18.1133C69.6123 16.7628 70.7127 15.6875 72.0381 15.6875H164.742C166.092 15.6875 167.168 16.7878 167.168 18.1133V151.205C167.168 152.53 166.067 153.631 164.717 153.631Z" fill="#F4AF25"/>
<path d="M161.491 21.0879H75.2393V148.228H161.491V21.0879Z" fill="#F7D9A4"/>
<path d="M158.19 24.9648H78.5654V144.327H158.19V24.9648Z" fill="white"/>
<path d="M149.763 17.9624V23.139H86.9932V17.9624C86.9932 17.5872 87.0432 17.2121 87.1682 16.887C87.6184 15.4116 89.0188 14.3362 90.6443 14.3362H146.137C148.137 14.3112 149.763 15.9367 149.763 17.9624Z" fill="#E8505B"/>
<path opacity="0.45" d="M149.763 21.8379V23.1383H86.9932V19.3871C86.9932 18.3868 87.0432 17.5616 87.1682 16.8613C87.6184 15.3859 89.0188 14.3105 90.6443 14.3105H91.0944C90.1441 15.2358 89.4439 16.6363 89.4439 18.0867V21.8379H149.763Z" fill="#B03D44"/>
<g opacity="0.15">
<path d="M113.576 38.4696H100.647C100.197 38.4696 99.8467 38.0945 99.8467 37.6694C99.8467 37.2443 100.222 36.8691 100.647 36.8691H113.576C114.026 36.8691 114.376 37.2443 114.376 37.6694C114.376 38.0945 114.026 38.4696 113.576 38.4696Z" fill="#0964AF"/>
<path d="M152.438 42.5966H142.61C142.16 42.5966 141.81 42.2215 141.81 41.7963C141.81 41.3712 142.185 40.9961 142.61 40.9961H152.438C152.888 40.9961 153.238 41.3712 153.238 41.7963C153.238 42.2215 152.888 42.5966 152.438 42.5966Z" fill="#0964AF"/>
<path d="M138.334 42.5966H100.647C100.197 42.5966 99.8467 42.2215 99.8467 41.7963C99.8467 41.3712 100.222 40.9961 100.647 40.9961H138.359C138.809 40.9961 139.159 41.3712 139.159 41.7963C139.159 42.2215 138.784 42.5966 138.334 42.5966Z" fill="#0964AF"/>
<path d="M152.438 46.7216H100.647C100.197 46.7216 99.8467 46.3465 99.8467 45.9213C99.8467 45.4962 100.222 45.1211 100.647 45.1211H152.438C152.888 45.1211 153.238 45.4962 153.238 45.9213C153.238 46.3465 152.888 46.7216 152.438 46.7216Z" fill="#0964AF"/>
<path d="M152.438 50.8485H135.983C135.533 50.8485 135.183 50.4734 135.183 50.0483C135.183 49.6232 135.558 49.248 135.983 49.248H152.438C152.888 49.248 153.238 49.6232 153.238 50.0483C153.238 50.4734 152.888 50.8485 152.438 50.8485Z" fill="#0964AF"/>
<path d="M131.882 50.8485H100.647C100.197 50.8485 99.8467 50.4734 99.8467 50.0483C99.8467 49.6232 100.222 49.248 100.647 49.248H131.882C132.332 49.248 132.682 49.6232 132.682 50.0483C132.682 50.4734 132.332 50.8485 131.882 50.8485Z" fill="#0964AF"/>
<path d="M152.438 38.4696H117.827C117.377 38.4696 117.027 38.0945 117.027 37.6694C117.027 37.2443 117.402 36.8691 117.827 36.8691H152.438C152.888 36.8691 153.238 37.2443 153.238 37.6694C153.238 38.0945 152.888 38.4696 152.438 38.4696Z" fill="#0964AF"/>
</g>
<g opacity="0.15">
<path d="M113.576 68.1044H100.647C100.197 68.1044 99.8467 67.7293 99.8467 67.3042C99.8467 66.879 100.222 66.5039 100.647 66.5039H113.576C114.026 66.5039 114.376 66.879 114.376 67.3042C114.376 67.7293 114.026 68.1044 113.576 68.1044Z" fill="#0964AF"/>
<path d="M152.438 72.2314H142.61C142.16 72.2314 141.81 71.8562 141.81 71.4311C141.81 71.006 142.185 70.6309 142.61 70.6309H152.438C152.888 70.6309 153.238 71.006 153.238 71.4311C153.238 71.8562 152.888 72.2314 152.438 72.2314Z" fill="#0964AF"/>
<path d="M138.334 72.2314H100.647C100.197 72.2314 99.8467 71.8562 99.8467 71.4311C99.8467 71.006 100.222 70.6309 100.647 70.6309H138.359C138.809 70.6309 139.159 71.006 139.159 71.4311C139.159 71.8562 138.784 72.2314 138.334 72.2314Z" fill="#0964AF"/>
<path d="M152.438 76.3564H100.647C100.197 76.3564 99.8467 75.9812 99.8467 75.5561C99.8467 75.131 100.222 74.7559 100.647 74.7559H152.438C152.888 74.7559 153.238 75.131 153.238 75.5561C153.238 75.9812 152.888 76.3564 152.438 76.3564Z" fill="#0964AF"/>
<path d="M152.438 80.4833H135.983C135.533 80.4833 135.183 80.1082 135.183 79.6831C135.183 79.2579 135.558 78.8828 135.983 78.8828H152.438C152.888 78.8828 153.238 79.2579 153.238 79.6831C153.238 80.1082 152.888 80.4833 152.438 80.4833Z" fill="#0964AF"/>
<path d="M131.882 80.4833H100.647C100.197 80.4833 99.8467 80.1082 99.8467 79.6831C99.8467 79.2579 100.222 78.8828 100.647 78.8828H131.882C132.332 78.8828 132.682 79.2579 132.682 79.6831C132.682 80.1082 132.332 80.4833 131.882 80.4833Z" fill="#0964AF"/>
<path d="M152.438 68.1044H117.827C117.377 68.1044 117.027 67.7293 117.027 67.3042C117.027 66.879 117.402 66.5039 117.827 66.5039H152.438C152.888 66.5039 153.238 66.879 153.238 67.3042C153.238 67.7293 152.888 68.1044 152.438 68.1044Z" fill="#0964AF"/>
</g>
<g opacity="0.15">
<path d="M113.576 96.7138H100.647C100.197 96.7138 99.8467 96.3387 99.8467 95.9135C99.8467 95.4884 100.222 95.1133 100.647 95.1133H113.576C114.026 95.1133 114.376 95.4884 114.376 95.9135C114.376 96.3387 114.026 96.7138 113.576 96.7138Z" fill="#0964AF"/>
<path d="M152.438 100.841H142.61C142.16 100.841 141.81 100.466 141.81 100.04C141.81 99.6154 142.185 99.2402 142.61 99.2402H152.438C152.888 99.2402 153.238 99.6154 153.238 100.04C153.238 100.466 152.888 100.841 152.438 100.841Z" fill="#0964AF"/>
<path d="M138.334 100.841H100.647C100.197 100.841 99.8467 100.466 99.8467 100.04C99.8467 99.6154 100.222 99.2402 100.647 99.2402H138.359C138.809 99.2402 139.159 99.6154 139.159 100.04C139.159 100.466 138.784 100.841 138.334 100.841Z" fill="#0964AF"/>
<path d="M152.438 104.966H100.647C100.197 104.966 99.8467 104.591 99.8467 104.165C99.8467 103.74 100.222 103.365 100.647 103.365H152.438C152.888 103.365 153.238 103.74 153.238 104.165C153.238 104.591 152.888 104.966 152.438 104.966Z" fill="#0964AF"/>
<path d="M152.438 109.093H135.983C135.533 109.093 135.183 108.718 135.183 108.292C135.183 107.867 135.558 107.492 135.983 107.492H152.438C152.888 107.492 153.238 107.867 153.238 108.292C153.238 108.718 152.888 109.093 152.438 109.093Z" fill="#0964AF"/>
<path d="M131.882 109.093H100.647C100.197 109.093 99.8467 108.718 99.8467 108.292C99.8467 107.867 100.222 107.492 100.647 107.492H131.882C132.332 107.492 132.682 107.867 132.682 108.292C132.682 108.718 132.332 109.093 131.882 109.093Z" fill="#0964AF"/>
<path d="M152.438 96.7138H117.827C117.377 96.7138 117.027 96.3387 117.027 95.9135C117.027 95.4884 117.402 95.1133 117.827 95.1133H152.438C152.888 95.1133 153.238 95.4884 153.238 95.9135C153.238 96.3387 152.888 96.7138 152.438 96.7138Z" fill="#0964AF"/>
</g>
<g opacity="0.15">
<path d="M113.576 125.847H100.647C100.197 125.847 99.8467 125.471 99.8467 125.046C99.8467 124.621 100.222 124.246 100.647 124.246H113.576C114.026 124.246 114.376 124.621 114.376 125.046C114.376 125.471 114.026 125.847 113.576 125.847Z" fill="#0964AF"/>
<path d="M152.438 129.974H142.61C142.16 129.974 141.81 129.598 141.81 129.173C141.81 128.748 142.185 128.373 142.61 128.373H152.438C152.888 128.373 153.238 128.748 153.238 129.173C153.238 129.598 152.888 129.974 152.438 129.974Z" fill="#0964AF"/>
<path d="M138.334 129.974H100.647C100.197 129.974 99.8467 129.598 99.8467 129.173C99.8467 128.748 100.222 128.373 100.647 128.373H138.359C138.809 128.373 139.159 128.748 139.159 129.173C139.159 129.598 138.784 129.974 138.334 129.974Z" fill="#0964AF"/>
<path d="M152.438 134.099H100.647C100.197 134.099 99.8467 133.723 99.8467 133.298C99.8467 132.873 100.222 132.498 100.647 132.498H152.438C152.888 132.498 153.238 132.873 153.238 133.298C153.238 133.723 152.888 134.099 152.438 134.099Z" fill="#0964AF"/>
<path d="M152.438 138.226H135.983C135.533 138.226 135.183 137.85 135.183 137.425C135.183 137 135.558 136.625 135.983 136.625H152.438C152.888 136.625 153.238 137 153.238 137.425C153.238 137.85 152.888 138.226 152.438 138.226Z" fill="#0964AF"/>
<path d="M131.882 138.226H100.647C100.197 138.226 99.8467 137.85 99.8467 137.425C99.8467 137 100.222 136.625 100.647 136.625H131.882C132.332 136.625 132.682 137 132.682 137.425C132.682 137.85 132.332 138.226 131.882 138.226Z" fill="#0964AF"/>
<path d="M152.438 125.847H117.827C117.377 125.847 117.027 125.471 117.027 125.046C117.027 124.621 117.402 124.246 117.827 124.246H152.438C152.888 124.246 153.238 124.621 153.238 125.046C153.238 125.471 152.888 125.847 152.438 125.847Z" fill="#0964AF"/>
</g>
<path d="M95.7205 49.073H84.9921C84.2419 49.073 83.6167 48.4478 83.6167 47.6975V36.9692C83.6167 36.2189 84.2419 35.5938 84.9921 35.5938H95.7205C96.4707 35.5938 97.0959 36.2189 97.0959 36.9692V47.6975C97.0959 48.4478 96.4707 49.073 95.7205 49.073ZM85.2422 47.4475H95.4704V37.2193H85.2422V47.4475Z" fill="#C1E1F7"/>
<path d="M95.7205 78.6316H84.9921C84.2419 78.6316 83.6167 78.0064 83.6167 77.2561V66.5278C83.6167 65.7775 84.2419 65.1523 84.9921 65.1523H95.7205C96.4707 65.1523 97.0959 65.7775 97.0959 66.5278V77.2561C97.0959 78.0064 96.4707 78.6316 95.7205 78.6316ZM85.2422 77.006H95.4704V66.7779H85.2422V77.006Z" fill="#C1E1F7"/>
<path d="M95.7205 108.167H84.9921C84.2419 108.167 83.6167 107.542 83.6167 106.791V96.0629C83.6167 95.3127 84.2419 94.6875 84.9921 94.6875H95.7205C96.4707 94.6875 97.0959 95.3127 97.0959 96.0629V106.791C97.0959 107.567 96.4707 108.167 95.7205 108.167ZM85.2422 106.541H95.4704V96.313H85.2422V106.541Z" fill="#C1E1F7"/>
<path d="M95.7205 137.725H84.9921C84.2419 137.725 83.6167 137.1 83.6167 136.35V125.622C83.6167 124.871 84.2419 124.246 84.9921 124.246H95.7205C96.4707 124.246 97.0959 124.871 97.0959 125.622V136.35C97.0959 137.1 96.4707 137.725 95.7205 137.725ZM85.2422 136.1H95.4704V125.872H85.2422V136.1Z" fill="#C1E1F7"/>
<path d="M154.502 107.008C156.041 104.341 159.89 104.341 161.43 107.008L187.411 152.008C188.95 154.674 187.026 158.008 183.947 158.008H131.985C128.906 158.008 126.981 154.674 128.521 152.008L154.502 107.008Z" fill="#8A706D"/>
<path d="M156.234 110.008C157.004 108.674 158.928 108.674 159.698 110.008L183.947 152.008C184.716 153.341 183.754 155.008 182.215 155.008H133.717C132.178 155.008 131.215 153.341 131.985 152.008L156.234 110.008Z" fill="#FAB049"/>
<rect x="154.966" y="119.008" width="6" height="21" rx="3" fill="white"/>
<circle cx="157.966" cy="148.008" r="4" fill="white"/>
</svg>
