<svg width="236" height="160" viewBox="0 0 236 160" fill="none" xmlns="http://www.w3.org/2000/svg">
<path d="M153.27 151.005L36.0766 33.8112C34.1584 31.8885 33.0811 29.2834 33.0811 26.5674C33.0811 23.8515 34.1584 21.2464 36.0766 19.3237C37.9993 17.4054 40.6044 16.3281 43.3204 16.3281C46.0363 16.3281 48.6414 17.4054 50.5641 19.3237L167.758 136.517C169.676 138.44 170.753 141.045 170.753 143.761C170.753 146.477 169.676 149.082 167.758 151.005C163.748 154.998 157.264 154.998 153.27 151.005Z" fill="#EDEDED"/>
<path d="M167.677 33.7311L50.4831 150.925C48.5604 152.843 45.9553 153.92 43.2393 153.92C40.5233 153.92 37.9183 152.843 35.9956 150.925C34.0773 149.002 33 146.397 33 143.681C33 140.965 34.0773 138.36 35.9956 136.437L153.189 19.2436C155.112 17.3253 157.717 16.248 160.433 16.248C163.149 16.248 165.754 17.3253 167.677 19.2436C168.63 20.1937 169.386 21.3227 169.902 22.5657C170.419 23.8087 170.684 25.1414 170.684 26.4874C170.684 27.8333 170.419 29.166 169.902 30.409C169.386 31.6521 168.63 32.781 167.677 33.7311Z" fill="#EDEDED"/>
<path d="M144.781 54.0388C144.781 55.0574 144.748 56.0599 144.667 57.0624L104.697 97.0485C103.695 97.1294 102.676 97.1617 101.641 97.1617C94.1066 97.1617 87.0569 95.2376 80.8965 91.8421L139.445 33.3262C142.873 39.4543 144.781 46.504 144.781 54.0388Z" fill="#DB3832"/>
<path d="M101.609 71.1451L87.1212 85.6488L58.6151 57.1427C58.5343 56.1079 58.502 55.0892 58.502 54.0382C58.502 46.5358 60.4261 39.486 63.7893 33.3418L101.609 71.1451ZM122.354 91.89C116.914 94.8601 110.896 96.6195 104.713 97.048L116.112 85.6488L122.354 91.89Z" fill="#DB3832"/>
<path d="M171.605 112.651L163.941 121.011L129.76 89.1739L137.424 80.8145L171.605 112.651Z" fill="#647A7F"/>
<path opacity="0.18" d="M130.277 89.659L152.881 95.2212L137.941 81.2996C137.925 81.2996 134.109 86.409 130.277 89.659ZM111.521 90.6453C103.323 91.4053 95.2061 90.3543 87.4126 87.7672C79.9425 85.2772 72.1975 81.3643 66.6515 75.6242C64.3555 73.2474 62.3182 70.5957 60.8145 67.6367C64.6142 78.1628 72.343 87.2336 83.1763 92.4078C99.6688 100.282 118.603 96.8704 131.425 85.261C125.264 88.3331 118.296 90.0147 111.521 90.6453Z" fill="#010101"/>
<path d="M201.389 145.927L198.09 149.532C197.576 150.098 196.954 150.556 196.261 150.879C195.568 151.203 194.818 151.386 194.054 151.418C193.29 151.449 192.527 151.329 191.81 151.063C191.093 150.798 190.436 150.393 189.876 149.872L154.838 117.243C154.653 117.068 154.544 116.828 154.535 116.573C154.526 116.319 154.617 116.072 154.789 115.884L164.685 105.083C165.041 104.695 165.655 104.663 166.043 105.035L201.082 137.664C203.442 139.847 203.572 143.55 201.389 145.927Z" fill="#35454D"/>
<path d="M172.301 110.598L160.902 123.032L159.446 121.674L170.845 109.24L172.301 110.598ZM175.712 113.913L164.313 126.363L162.858 125.005L174.273 112.571L175.712 113.913Z" fill="#F5BF45"/>
<path d="M136.421 85.633C118.765 104.89 88.9003 106.135 69.8532 88.398C50.806 70.6605 49.6741 40.5536 67.3308 21.2963C84.9874 2.03888 114.852 0.793861 133.899 18.5313C152.946 36.2688 154.078 66.3757 136.421 85.633ZM70.4838 24.2229C54.444 41.734 55.4627 69.0921 72.7798 85.2126C90.0968 101.333 117.229 100.201 133.284 82.7064C149.34 65.2115 148.306 37.8372 130.988 21.7167C113.671 5.59608 86.5235 6.72792 70.4838 24.2229Z" fill="#263238"/>
<path d="M113.784 17.0609C107.931 14.296 101.011 13.8594 94.7207 15.2823C89.2879 16.5273 83.6288 19.7612 81.1387 24.9999C80.7668 25.7922 81.5753 26.9402 82.4484 26.3258C86.5069 23.48 90.6623 21.087 95.5454 20.0522C101.124 18.8557 106.524 20.133 111.925 21.4912C114.463 22.1057 116.323 18.2574 113.784 17.0609Z" fill="#EDEDED"/>
<path d="M93.3466 96.3687C69.8368 91.8252 54.4276 68.8489 59.0197 45.1289C63.5955 21.4088 86.4586 5.80567 109.968 10.3492C133.478 14.8927 148.887 37.869 144.295 61.589C139.703 85.3091 116.856 100.912 93.3466 96.3687ZM109.791 11.1576C86.7335 6.71113 64.307 22.0071 59.812 45.2744C55.3169 68.5417 70.435 91.0976 93.4922 95.5441C116.549 99.9906 138.976 84.6946 143.471 61.4273C147.966 38.16 132.864 15.6041 109.791 11.1576Z" fill="#F5BF45"/>
</svg>
