<svg width="200" height="164" viewBox="0 0 200 164" fill="none" xmlns="http://www.w3.org/2000/svg">
<path d="M7.52734 75.3867V77.0673" stroke="#FFEBB5" stroke-width="2.921" stroke-linecap="round"/>
<path d="M3.73682 76.2969L5.11591 77.7106" stroke="#FFEBB5" stroke-width="2.921" stroke-linecap="round"/>
<path d="M2.12354 80.0586H4.07355" stroke="#FFEBB5" stroke-width="2.921" stroke-linecap="round"/>
<path d="M3.57812 83.8903L4.95722 82.4766" stroke="#FFEBB5" stroke-width="2.921" stroke-linecap="round"/>
<path d="M7.52734 84.3505V82.6699" stroke="#FFEBB5" stroke-width="2.921" stroke-linecap="round"/>
<path d="M10.34 83.2298L9.21484 82.1094" stroke="#FFEBB5" stroke-width="2.921" stroke-linecap="round"/>
<path d="M12.5905 80.4297H10.9028" stroke="#FFEBB5" stroke-width="2.921" stroke-linecap="round"/>
<path d="M11.465 76.5078L10.3398 77.6282" stroke="#FFEBB5" stroke-width="2.921" stroke-linecap="round"/>
<path d="M98.1006 2V3.12041" stroke="#FFEBB5" stroke-width="2.921" stroke-linecap="round"/>
<path d="M94.7256 5.36133H95.8507" stroke="#FFEBB5" stroke-width="2.921" stroke-linecap="round"/>
<path d="M98.1006 8.72198V7.60156" stroke="#FFEBB5" stroke-width="2.921" stroke-linecap="round"/>
<path d="M100.913 5.36133H99.7881" stroke="#FFEBB5" stroke-width="2.921" stroke-linecap="round"/>
<path d="M32.8428 49.0566V50.7373" stroke="#FFEBB5" stroke-width="2.921" stroke-linecap="round"/>
<path d="M27.7798 54.0996H29.4675" stroke="#FFEBB5" stroke-width="2.921" stroke-linecap="round"/>
<path d="M32.8428 58.581V56.9004" stroke="#FFEBB5" stroke-width="2.921" stroke-linecap="round"/>
<path d="M37.343 54.0996H35.6553" stroke="#FFEBB5" stroke-width="2.921" stroke-linecap="round"/>
<path d="M153.937 110.143C155.282 110.143 156.372 111.229 156.372 112.568C156.372 113.907 155.282 114.993 153.937 114.993C152.593 114.993 151.502 113.907 151.502 112.568" stroke="#FFEBB5" stroke-width="2.921" stroke-linecap="round"/>
<path fill-rule="evenodd" clip-rule="evenodd" d="M165.08 88.1392C166.526 87.6901 168.742 85.9295 169.255 84.0352C169.72 85.7097 171.67 87.6901 173.429 87.8399C171.449 88.5383 169.555 90.6129 169.255 92.2427C169.05 90.5815 166.431 88.3813 165.08 88.1392Z" fill="#FFEBB5"/>
<path fill-rule="evenodd" clip-rule="evenodd" d="M16.6807 109.396C17.4037 109.171 18.5113 108.291 18.7678 107.344C19.0003 108.181 19.9751 109.171 20.8549 109.246C19.8648 109.595 18.9182 110.632 18.7678 111.447C18.6656 110.617 17.356 109.516 16.6807 109.396Z" fill="#FFEBB5"/>
<path fill-rule="evenodd" clip-rule="evenodd" d="M30.0996 31.4645C30.0996 32.5035 29.2543 33.345 28.2117 33.345C27.1686 33.345 26.3237 32.5035 26.3237 31.4645C26.3237 30.426 27.1686 29.584 28.2117 29.584C29.2543 29.584 30.0996 30.426 30.0996 31.4645Z" fill="#FFEBB5"/>
<path fill-rule="evenodd" clip-rule="evenodd" d="M156.168 36.5142C156.168 38.25 154.755 39.6572 153.012 39.6572C151.269 39.6572 149.856 38.25 149.856 36.5142C149.856 34.7783 151.269 33.3711 153.012 33.3711C154.755 33.3711 156.168 34.7783 156.168 36.5142Z" fill="#FFEBB5"/>
<path fill-rule="evenodd" clip-rule="evenodd" d="M199.877 27.9991C199.877 29.3763 198.756 30.4923 197.374 30.4923C195.992 30.4923 194.871 29.3763 194.871 27.9991C194.871 26.6219 195.992 25.5059 197.374 25.5059C198.756 25.5059 199.877 26.6219 199.877 27.9991Z" fill="#FFEBB5"/>
<path fill-rule="evenodd" clip-rule="evenodd" d="M65.3835 144.443C65.3835 145.311 64.6771 146.015 63.8055 146.015C62.9344 146.015 62.228 145.311 62.228 144.443C62.228 143.575 62.9344 142.871 63.8055 142.871C64.6771 142.871 65.3835 143.575 65.3835 144.443Z" stroke="#FFEBB5" stroke-width="2.921" stroke-linecap="round"/>
<path fill-rule="evenodd" clip-rule="evenodd" d="M64.4448 19.3844C64.4448 20.4234 63.5995 21.2649 62.5569 21.2649C61.5143 21.2649 60.6689 20.4234 60.6689 19.3844C60.6689 18.3459 61.5143 17.5039 62.5569 17.5039C63.5995 17.5039 64.4448 18.3459 64.4448 19.3844Z" stroke="#FFEBB5" stroke-width="2.921" stroke-linecap="round"/>
<path fill-rule="evenodd" clip-rule="evenodd" d="M112.602 161.848C111.396 162.305 110.045 161.701 109.587 160.5C109.128 159.299 109.733 157.953 110.94 157.497C112.146 157.039 113.496 157.643 113.955 158.844C114.415 160.046 113.808 161.391 112.602 161.848Z" stroke="#FFEBB5" stroke-width="2.921" stroke-linecap="round"/>
<path fill-rule="evenodd" clip-rule="evenodd" d="M99.3466 24.4727C85.506 24.4727 72.7848 29.2704 62.7402 37.2974H46.5061C44.397 37.2974 42.6713 39.0287 42.6713 41.1448C42.6713 43.2609 44.397 44.9922 46.5061 44.9922H54.7681H57.1892C59.2983 44.9922 61.024 46.7235 61.024 48.8396C61.024 49.8964 60.5919 50.8608 59.8965 51.5559C59.2037 52.2536 58.2425 52.687 57.1892 52.687H52.0239H49.1718H35.2573C33.1482 52.687 31.4225 54.4184 31.4225 56.5344C31.4225 58.6505 33.1482 60.3819 35.2573 60.3819H45.2186C42.2116 67.4719 40.546 75.2732 40.546 83.4663C40.546 86.4391 40.7659 89.3606 41.1877 92.2154C41.3641 93.4081 41.5763 94.5905 41.8243 95.7601C49.0593 94.6495 56.7341 93.7569 64.7463 93.1054L65.3383 93.6465L65.2639 93.7304L64.661 93.1824C56.6507 93.8298 48.9778 94.7168 41.7445 95.8204C47.3803 122.333 70.9869 142.226 99.253 142.226C112.488 142.226 124.7 137.862 134.527 130.501H144.989C147.097 130.501 148.823 128.781 148.823 126.678C148.823 125.628 148.391 124.67 147.696 123.979C147.003 123.286 146.042 122.855 144.989 122.855H140.439C138.33 122.855 136.605 121.135 136.605 119.032C136.605 117.982 137.037 117.024 137.732 116.333C138.425 115.64 139.386 115.209 140.439 115.209H164.928C167.036 115.209 168.761 113.488 168.761 111.386C168.761 110.336 168.33 109.377 167.634 108.687C166.939 107.993 165.983 107.563 164.928 107.563H152.92C154.453 104.155 155.67 100.576 156.531 96.8603C138.821 93.7406 118.108 91.9462 95.9737 91.9462C85.5624 91.9462 75.4674 92.3433 65.8501 93.0892L65.9172 93.0131C75.5426 92.2615 85.6461 91.8614 96.0665 91.8614C118.206 91.8614 138.924 93.6671 156.639 96.8066C157.321 93.8364 157.782 90.7816 157.999 87.6575C158.099 86.2724 158.147 84.8745 158.147 83.4663C158.147 50.8839 131.822 24.4727 99.3466 24.4727ZM23.6129 52.5091H21.2889C19.1523 52.5091 17.4043 54.2754 17.4043 56.4342C17.4043 58.593 19.1523 60.3593 21.2889 60.3593H23.6129C25.7494 60.3593 27.4974 58.593 27.4974 56.4342C27.4974 54.2754 25.7494 52.5091 23.6129 52.5091ZM156.465 130.45C154.306 130.45 152.54 128.684 152.54 126.525C152.54 124.367 154.306 122.6 156.465 122.6C158.624 122.6 160.39 124.367 160.39 126.525C160.39 128.684 158.624 130.45 156.465 130.45Z" fill="#F5F7FD"/>
<path d="M56.1407 114.635C58.1497 115.17 60.2931 115.17 62.4366 115.17H101.418H140.398C142.542 115.17 144.686 115.17 146.694 114.635C154.732 112.491 158.348 103.516 153.927 96.1486C140.13 73.2418 126.199 50.3359 112.267 27.4296C109.722 23.1426 105.57 21.1337 101.417 21C97.2649 21 93.246 23.1435 90.5672 27.4296C76.5017 50.2017 62.7045 73.1083 48.9071 96.1486C44.4866 103.516 48.1036 112.491 56.1402 114.635H56.1407ZM101.418 102.713C98.0687 102.713 95.3898 100.034 95.2551 96.6848C95.2551 93.336 97.934 90.6571 101.418 90.6571C104.766 90.6571 107.58 93.336 107.58 96.6848C107.445 100.033 104.766 102.578 101.418 102.713ZM94.7198 52.2115C94.8534 48.3273 97.5333 45.6475 101.284 45.5138H101.417H101.551C105.435 45.5138 108.115 48.3273 108.115 52.2115C108.249 56.3639 108.249 72.4385 108.115 76.3234C107.981 80.4758 105.436 82.6193 101.417 82.6193C97.3985 82.6193 94.8533 80.4758 94.7196 76.3234C94.586 72.4383 94.586 56.3639 94.7196 52.2115H94.7198Z" fill="#EE2F24"/>
</svg>
