<svg width="236" height="160" viewBox="0 0 236 160" fill="none" xmlns="http://www.w3.org/2000/svg">
<path d="M24.4038 73.3867V75.0673" stroke="#FFEBB5" stroke-width="2.921" stroke-linecap="round"/>
<path d="M20.6133 74.2969L21.9924 75.7106" stroke="#FFEBB5" stroke-width="2.921" stroke-linecap="round"/>
<path d="M19 78.0586H20.95" stroke="#FFEBB5" stroke-width="2.921" stroke-linecap="round"/>
<path d="M20.4546 81.8903L21.8337 80.4766" stroke="#FFEBB5" stroke-width="2.921" stroke-linecap="round"/>
<path d="M24.4038 82.3505V80.6699" stroke="#FFEBB5" stroke-width="2.921" stroke-linecap="round"/>
<path d="M27.2164 81.2298L26.0913 80.1094" stroke="#FFEBB5" stroke-width="2.921" stroke-linecap="round"/>
<path d="M29.467 78.4297H27.7793" stroke="#FFEBB5" stroke-width="2.921" stroke-linecap="round"/>
<path d="M28.3414 74.5078L27.2163 75.6282" stroke="#FFEBB5" stroke-width="2.921" stroke-linecap="round"/>
<path d="M114.977 0V1.12041" stroke="#FFEBB5" stroke-width="2.921" stroke-linecap="round"/>
<path d="M111.602 3.36133H112.727" stroke="#FFEBB5" stroke-width="2.921" stroke-linecap="round"/>
<path d="M114.977 6.72198V5.60156" stroke="#FFEBB5" stroke-width="2.921" stroke-linecap="round"/>
<path d="M117.79 3.36133H116.665" stroke="#FFEBB5" stroke-width="2.921" stroke-linecap="round"/>
<path d="M49.7192 47.0566V48.7373" stroke="#FFEBB5" stroke-width="2.921" stroke-linecap="round"/>
<path d="M44.6562 52.0996H46.344" stroke="#FFEBB5" stroke-width="2.921" stroke-linecap="round"/>
<path d="M49.7192 56.581V54.9004" stroke="#FFEBB5" stroke-width="2.921" stroke-linecap="round"/>
<path d="M54.2194 52.0996H52.5317" stroke="#FFEBB5" stroke-width="2.921" stroke-linecap="round"/>
<path d="M170.814 108.143C172.158 108.143 173.248 109.229 173.248 110.568C173.248 111.907 172.158 112.993 170.814 112.993C169.469 112.993 168.379 111.907 168.379 110.568" stroke="#FFEBB5" stroke-width="2.921" stroke-linecap="round"/>
<path fill-rule="evenodd" clip-rule="evenodd" d="M181.957 86.1392C183.402 85.6901 185.618 83.9295 186.131 82.0352C186.596 83.7097 188.546 85.6901 190.306 85.8399C188.325 86.5383 186.432 88.6129 186.131 90.2427C185.927 88.5815 183.308 86.3813 181.957 86.1392Z" fill="#FFEBB5"/>
<path fill-rule="evenodd" clip-rule="evenodd" d="M33.5571 107.396C34.2802 107.171 35.3878 106.291 35.6442 105.344C35.8768 106.181 36.8516 107.171 37.7313 107.246C36.7413 107.595 35.7947 108.632 35.6442 109.447C35.542 108.617 34.2324 107.516 33.5571 107.396Z" fill="#FFEBB5"/>
<path fill-rule="evenodd" clip-rule="evenodd" d="M46.9761 29.4645C46.9761 30.5035 46.1307 31.345 45.0881 31.345C44.0451 31.345 43.2002 30.5035 43.2002 29.4645C43.2002 28.426 44.0451 27.584 45.0881 27.584C46.1307 27.584 46.9761 28.426 46.9761 29.4645Z" fill="#FFEBB5"/>
<path fill-rule="evenodd" clip-rule="evenodd" d="M173.044 34.5142C173.044 36.25 171.631 37.6572 169.889 37.6572C168.146 37.6572 166.733 36.25 166.733 34.5142C166.733 32.7783 168.146 31.3711 169.889 31.3711C171.631 31.3711 173.044 32.7783 173.044 34.5142Z" fill="#FFEBB5"/>
<path fill-rule="evenodd" clip-rule="evenodd" d="M216.753 25.9991C216.753 27.3763 215.633 28.4923 214.251 28.4923C212.868 28.4923 211.748 27.3763 211.748 25.9991C211.748 24.6219 212.868 23.5059 214.251 23.5059C215.633 23.5059 216.753 24.6219 216.753 25.9991Z" fill="#FFEBB5"/>
<path fill-rule="evenodd" clip-rule="evenodd" d="M82.26 142.443C82.26 143.311 81.5536 144.015 80.682 144.015C79.8109 144.015 79.1045 143.311 79.1045 142.443C79.1045 141.575 79.8109 140.871 80.682 140.871C81.5536 140.871 82.26 141.575 82.26 142.443Z" stroke="#FFEBB5" stroke-width="2.921" stroke-linecap="round"/>
<path fill-rule="evenodd" clip-rule="evenodd" d="M81.3213 17.3844C81.3213 18.4234 80.4759 19.2649 79.4333 19.2649C78.3908 19.2649 77.5454 18.4234 77.5454 17.3844C77.5454 16.3459 78.3908 15.5039 79.4333 15.5039C80.4759 15.5039 81.3213 16.3459 81.3213 17.3844Z" stroke="#FFEBB5" stroke-width="2.921" stroke-linecap="round"/>
<path fill-rule="evenodd" clip-rule="evenodd" d="M129.479 159.848C128.272 160.305 126.922 159.701 126.463 158.5C126.004 157.299 126.61 155.953 127.816 155.497C129.022 155.039 130.373 155.643 130.832 156.844C131.291 158.046 130.685 159.391 129.479 159.848Z" stroke="#FFEBB5" stroke-width="2.921" stroke-linecap="round"/>
<path fill-rule="evenodd" clip-rule="evenodd" d="M116.223 22.4727C102.382 22.4727 89.6613 27.2704 79.6166 35.2974H63.3826C61.2734 35.2974 59.5478 37.0287 59.5478 39.1448C59.5478 41.2609 61.2734 42.9922 63.3826 42.9922H71.6446H74.0656C76.1748 42.9922 77.9004 44.7235 77.9004 46.8396C77.9004 47.8964 77.4684 48.8608 76.773 49.5559C76.0802 50.2536 75.1189 50.687 74.0656 50.687H68.9004H66.0483H52.1338C50.0246 50.687 48.299 52.4184 48.299 54.5344C48.299 56.6505 50.0246 58.3819 52.1338 58.3819H62.0951C59.0881 65.4719 57.4225 73.2732 57.4225 81.4663C57.4225 84.4391 57.6424 87.3606 58.0642 90.2154C58.2406 91.4081 58.4528 92.5905 58.7008 93.7601C65.9358 92.6495 73.6106 91.7569 81.6228 91.1054L82.2148 91.6465L82.1404 91.7304L81.5375 91.1824C73.5272 91.8298 65.8543 92.7168 58.621 93.8204C64.2568 120.333 87.8634 140.226 116.129 140.226C129.364 140.226 141.576 135.862 151.404 128.501H161.865C163.974 128.501 165.699 126.781 165.699 124.678C165.699 123.628 165.267 122.67 164.572 121.979C163.879 121.286 162.918 120.855 161.865 120.855H157.315C155.207 120.855 153.482 119.135 153.482 117.032C153.482 115.982 153.914 115.024 154.609 114.333C155.302 113.64 156.262 113.209 157.315 113.209H181.804C183.913 113.209 185.638 111.488 185.638 109.386C185.638 108.336 185.206 107.377 184.511 106.687C183.816 105.993 182.86 105.563 181.804 105.563H169.796C171.33 102.155 172.546 98.5764 173.408 94.8603C155.698 91.7406 134.984 89.9462 112.85 89.9462C102.439 89.9462 92.3438 90.3433 82.7266 91.0892L82.7937 91.0131C92.4191 90.2615 102.523 89.8614 112.943 89.8614C135.083 89.8614 155.801 91.6671 173.515 94.8066C174.198 91.8364 174.658 88.7816 174.875 85.6575C174.975 84.2724 175.024 82.8745 175.024 81.4663C175.024 48.8839 148.699 22.4727 116.223 22.4727ZM40.4893 50.5091H38.1653C36.0288 50.5091 34.2808 52.2754 34.2808 54.4342C34.2808 56.593 36.0288 58.3593 38.1653 58.3593H40.4893C42.6258 58.3593 44.3739 56.593 44.3739 54.4342C44.3739 52.2754 42.6258 50.5091 40.4893 50.5091ZM173.341 128.45C171.183 128.45 169.416 126.684 169.416 124.525C169.416 122.367 171.183 120.6 173.341 120.6C175.5 120.6 177.266 122.367 177.266 124.525C177.266 126.684 175.5 128.45 173.341 128.45Z" fill="#F5F7FD"/>
<path d="M137.278 10.7871H97.5757C92.9209 10.7871 89.1123 14.6153 89.1123 19.2941V107.449C89.1123 112.128 92.9209 115.956 97.5757 115.956H137.278C141.933 115.956 145.742 112.128 145.742 107.449L145.741 19.2962C145.742 14.6175 141.932 10.7875 137.277 10.7875L137.278 10.7871ZM108.127 17.4803H126.726C127.513 17.4803 128.157 18.1276 128.157 18.9193C128.157 19.7109 127.513 20.3582 126.726 20.3582L108.127 20.3573C107.34 20.3573 106.696 19.71 106.696 18.9184C106.696 18.1276 107.34 17.4803 108.127 17.4803V17.4803ZM117.427 112.335C114.645 112.335 112.388 110.066 112.388 107.269C112.388 104.473 114.645 102.204 117.427 102.204C120.21 102.204 122.467 104.473 122.467 107.269C122.467 110.068 120.21 112.335 117.427 112.335ZM141.692 98.6359H93.1621V26.3284H141.692V98.6359Z" fill="#FED55E"/>
<path fill-rule="evenodd" clip-rule="evenodd" d="M110.287 48.5391H122.162L129.423 56.6198V75.7603C129.423 77.6112 127.962 79.1009 126.226 79.1009H110.287C108.506 79.1009 107.09 77.6113 107.09 75.7603V51.8349C107.09 50.0292 108.506 48.5393 110.287 48.5393L110.287 48.5391ZM121.614 62.4433V66.5965H125.222V63.0754C125.222 62.7143 124.948 62.4433 124.628 62.4433L121.614 62.4433ZM125.222 68.041H121.614V70.1627H125.222V68.041ZM125.222 71.6072H121.614V73.6387H124.628C124.948 73.6387 125.222 73.3678 125.222 73.0066L125.222 71.6072ZM120.198 73.6387V62.4431H111.886C111.566 62.4431 111.292 62.7141 111.292 63.0752V67.3186H116.362V73.6386L120.198 73.6387ZM114.946 73.6387V71.6072H111.292V73.0066C111.292 73.3678 111.566 73.6387 111.886 73.6387L114.946 73.6387ZM111.292 70.1627H114.946V68.7633H111.292V70.1627Z" fill="#6FC05E"/>
</svg>
