<svg width="32" height="20" viewBox="0 0 32 20" fill="none" xmlns="http://www.w3.org/2000/svg">
<defs>
<linearGradient id="paint0_linear_1960_188659" x1="1.94698" y1="19.5618" x2="1.94698" y2="0.81157" gradientUnits="userSpaceOnUse">
<stop offset="0.4158" stop-color="#6FC05E"/>
<stop offset="0.5325" stop-color="#74C15C"/>
<stop offset="0.6661" stop-color="#82C556"/>
<stop offset="0.8078" stop-color="#98CC4D"/>
<stop offset="0.9545" stop-color="#B8D540"/>
<stop offset="0.9656" stop-color="#BBD63F"/>
</linearGradient>
<linearGradient id="paint1_linear_1960_188659" x1="32.869" y1="19.2945" x2="0.455356" y2="4.43828" gradientUnits="userSpaceOnUse">
<stop offset="0.0877" stop-color="#1253A5"/>
<stop offset="0.3069" stop-color="#348BB8"/>
<stop offset="0.4792" stop-color="#4BB1C4"/>
<stop offset="0.5699" stop-color="#54BFC9"/>
<stop offset="1" stop-color="#BBD63F"/>
</linearGradient>
<linearGradient id="paint2_linear_1960_188659" x1="6.26175" y1="-0.241762" x2="29.5581" y2="14.9834" gradientUnits="userSpaceOnUse">
<stop offset="0.348" stop-color="#1253A5"/>
<stop offset="0.3634" stop-color="#1156A5"/>
<stop offset="0.624" stop-color="#058BAC"/>
<stop offset="0.7514" stop-color="#009FAF"/>
<stop offset="1" stop-color="#54BFC9"/>
</linearGradient>
<linearGradient id="paint3_linear_1960_188659" x1="20.0702" y1="10.4665" x2="4.1714" y2="15.5586" gradientUnits="userSpaceOnUse">
<stop stop-color="#009FAF"/>
<stop offset="0.1604" stop-color="#1CAAB8"/>
<stop offset="0.348" stop-color="#34B3BF"/>
<stop offset="0.5447" stop-color="#46BAC5"/>
<stop offset="0.754" stop-color="#51BEC8"/>
<stop offset="0.9976" stop-color="#54BFC9"/>
</linearGradient>
</defs>
<path d="M0.00708008 0V3.87901V7.73318V11.5862H3.88683V7.73318V3.87901V0H0.00708008Z" fill="url(#paint0_linear_1960_188659)"/>
<path d="M29.7121 6.08541C28.1964 4.5746 26.2113 3.81845 24.2243 3.81845C22.2381 3.81845 20.2522 4.5746 18.7359 6.08541L15.992 8.8226L13.2485 6.08541C10.2176 3.06267 5.30394 3.06267 2.27342 6.08541C-0.75748 9.11 -0.75748 14.0103 2.27342 17.0334C5.30357 20.0562 10.2176 20.0562 13.2485 17.0334L15.3159 14.9715L13.2485 11.5594L15.992 14.297L18.7359 17.0334C21.7686 20.0562 26.6815 20.0562 29.7124 17.0334C32.7433 14.0107 32.7433 9.11 29.7121 6.08541ZM10.5046 14.297C9.77185 15.0283 8.79728 15.431 7.7604 15.431C6.72316 15.431 5.74895 15.0283 5.01617 14.297C4.28338 13.5653 3.88028 12.593 3.88028 11.5594C3.88028 10.5251 4.28301 9.55427 5.01617 8.8226C5.74895 8.09204 6.72316 7.68931 7.7604 7.68931C8.79691 7.68931 9.77185 8.09204 10.5046 8.8226L13.2485 11.5594L10.5046 14.297ZM26.9678 14.297C26.2354 15.0283 25.2605 15.431 24.224 15.431C23.1875 15.431 22.2125 15.0283 21.4797 14.297L18.7355 11.5594L21.4797 8.8226C22.2125 8.09204 23.1875 7.68931 24.224 7.68931C25.2601 7.68931 26.2354 8.09204 26.9678 8.8226C27.701 9.55427 28.1056 10.5251 28.1056 11.5594C28.1056 12.593 27.701 13.5653 26.9678 14.297Z" fill="url(#paint1_linear_1960_188659)"/>
<path d="M15.9771 8.80849L18.8874 5.88032C18.8874 5.88032 20.9248 3.81176 24.2242 3.8125C25.8722 3.81287 27.9901 4.36951 29.7123 6.08984C29.7123 6.08984 32.5808 8.66905 31.8936 12.7665C31.8936 12.7665 31.5495 15.9832 28.6354 17.959C27.9271 18.4393 24.8469 20.2712 21.0988 18.6481C21.0988 18.6481 28.5612 16.4742 28.0728 11.2027C27.8614 8.92345 25.85 7.74417 24.3459 7.69893C24.3459 7.69893 22.7227 7.58063 21.4804 8.83111L18.7424 11.5664L15.9771 8.80849Z" fill="url(#paint2_linear_1960_188659)"/>
<path d="M15.3233 14.9845L13.8592 16.4423C13.8592 16.4423 11.942 18.805 8.9693 19.2422C5.99663 19.6798 3.87096 18.3062 3.87096 18.3062C3.87096 18.3062 1.13673 16.9723 0.217416 13.4778C0.217416 13.4778 -0.00546022 12.7146 0.00010242 11.5798C0.00010242 11.5798 3.09627 15.4325 7.73996 15.4325C7.73996 15.4325 9.22963 15.5315 10.4886 14.3285L13.2485 11.5605L15.3233 14.9845Z" fill="url(#paint3_linear_1960_188659)"/>
<path d="M13.2485 11.5605L15.3234 14.9849L15.992 14.2985L13.2485 11.5605Z" fill="#1253A5"/>
</svg>
