<svg fill="none" height="32" viewBox="0 0 152 32" width="152" xmlns="http://www.w3.org/2000/svg" xmlns:xlink="http://www.w3.org/1999/xlink"><linearGradient id="a" gradientUnits="userSpaceOnUse" x1="2.51153" x2="2.51153" y1="28.732" y2="4.54674"><stop offset=".4158" stop-color="#6fc05e"/><stop offset=".5325" stop-color="#74c15c"/><stop offset=".6661" stop-color="#82c556"/><stop offset=".8078" stop-color="#98cc4d"/><stop offset=".9545" stop-color="#b8d540"/><stop offset=".9656" stop-color="#bbd63f"/></linearGradient><linearGradient id="b" gradientUnits="userSpaceOnUse" x1="42.3966" x2=".58745" y1="28.3878" y2="9.22531"><stop offset=".0877" stop-color="#1253a5"/><stop offset=".3069" stop-color="#348bb8"/><stop offset=".4792" stop-color="#4bb1c4"/><stop offset=".5699" stop-color="#54bfc9"/><stop offset="1" stop-color="#bbd63f"/></linearGradient><linearGradient id="c" gradientUnits="userSpaceOnUse" x1="8.07704" x2="38.1262" y1="3.18772" y2="22.8261"><stop offset=".348" stop-color="#1253a5"/><stop offset=".3634" stop-color="#1156a5"/><stop offset=".624" stop-color="#058bac"/><stop offset=".7514" stop-color="#009faf"/><stop offset="1" stop-color="#54bfc9"/></linearGradient><linearGradient id="d" gradientUnits="userSpaceOnUse" x1="25.888" x2="5.38071" y1="16.9999" y2="23.568"><stop offset="0" stop-color="#009faf"/><stop offset=".1604" stop-color="#1caab8"/><stop offset=".348" stop-color="#34b3bf"/><stop offset=".5447" stop-color="#46bac5"/><stop offset=".754" stop-color="#51bec8"/><stop offset=".9976" stop-color="#54bfc9"/></linearGradient><g fill="#1253a5"><path d="m55.5923 17.5279v5.8036h-2.76v-1.2666c-.5482.9265-1.6067 1.4178-3.1001 1.4178-2.3816 0-3.7994-1.3231-3.7994-3.0815 0-1.7956 1.2666-3.0436 4.3667-3.0436h2.3439c0-1.2666-.7563-2.0038-2.3439-2.0038-1.0777 0-2.1927.3593-2.9303.9452l-1.0585-2.0606c1.1155-.7941 2.76-1.2289 4.3859-1.2289 3.1.0005 4.8957 1.4369 4.8957 4.5184zm-2.9489 2.5897v-1.0399h-2.0229c-1.38 0-1.8148.5104-1.8148 1.191 0 .7372.6237 1.2289 1.6636 1.2289.9835 0 1.834-.4539 2.1741-1.38z"/><path d="m75.4409 17.5088v5.8223h-2.9489v-5.3684c0-1.6445-.7372-2.4008-1.9282-2.4008-1.3231 0-2.2496.8505-2.2496 2.6653v5.1039h-2.949v-5.3684c0-1.6445-.6993-2.4008-1.9281-2.4008-1.3045 0-2.2305.8505-2.2305 2.6653v5.1039h-2.949v-10.1699h2.8165v1.1719c.7562-.8696 1.8904-1.3231 3.1948-1.3231 1.4178 0 2.6275.5482 3.3459 1.6637.8127-1.0399 2.1363-1.6637 3.6674-1.6637 2.4199 0 4.1587 1.3987 4.1587 4.4988z"/><path d="m87.3562 17.5279v5.8036h-2.76v-1.2666c-.5481.9265-1.6067 1.4178-3.1001 1.4178-2.3816 0-3.7994-1.3231-3.7994-3.0815 0-1.7956 1.2667-3.0436 4.3667-3.0436h2.3439c0-1.2666-.7563-2.0038-2.3439-2.0038-1.0776 0-2.1926.3593-2.9302.9452l-1.0586-2.0606c1.1155-.7941 2.76-1.2289 4.3859-1.2289 3.1001.0005 4.8957 1.4369 4.8957 4.5184zm-2.9489 2.5897v-1.0399h-2.0229c-1.38 0-1.8148.5104-1.8148 1.191 0 .7372.6238 1.2289 1.6637 1.2289.9829 0 1.8339-.4539 2.174-1.38z"/><path d="m96.3356 13.2214v2.7222c-.2459-.0191-.4348-.0378-.6615-.0378-1.6259 0-2.7031 1.6474-2.7031 2.6242v4.8015h-2.949v-10.1704h2.8165v1.3422c.718-.9829 1.9281-1.2819 3.4971-1.2819z"/><path d="m113.698 18.2464c0 3.1948-2.212 5.2363-5.066 5.2363-1.361 0-2.458-.4348-3.195-1.3231v1.172h-2.817v-14.80597h2.949v5.71277c.757-.8318 1.796-1.2288 3.063-1.2288 2.854.0004 5.066 2.042 5.066 5.2368zm-2.987 0c0-1.7579-1.115-2.8165-2.59-2.8165-1.474 0-2.589 1.0586-2.589 2.8165s1.115 2.8164 2.589 2.8164c1.475 0 2.59-1.0585 2.59-2.8164z"/><path d="m125.119 17.5279v5.8036h-2.76v-1.2666c-.548.9265-1.607 1.4178-3.1 1.4178-2.382 0-3.8-1.3231-3.8-3.0815 0-1.7956 1.267-3.0436 4.367-3.0436h2.344c0-1.2666-.756-2.0038-2.344-2.0038-1.078 0-2.193.3593-2.93.9452l-1.059-2.0606c1.116-.7941 2.76-1.2289 4.386-1.2289 3.1.0005 4.896 1.4369 4.896 4.5184zm-2.949 2.5897v-1.0399h-2.023c-1.38 0-1.815.5104-1.815 1.191 0 .7372.624 1.2289 1.664 1.2289.983 0 1.834-.4539 2.174-1.38z"/><path d="m138.181 17.5088v5.8223h-2.949v-5.3684c0-1.6445-.756-2.4008-2.06-2.4008-1.418 0-2.439.8696-2.439 2.7409v5.0283h-2.949v-10.1699h2.817v1.191c.794-.8696 1.985-1.3422 3.365-1.3422 2.4 0 4.215 1.3987 4.215 4.4988z"/><path d="m145.213 19.3427-1.417 1.3986v2.5897h-2.949v-10.1249h2.949v4.0381l4.309-4.0831h3.517l-4.235 4.3098 4.613 5.8601h-3.573z"/></g><path d="m.00915527 3.5v5.00339 4.97131 4.9695h5.00482473v-4.9695-4.97131-5.00339z" fill="url(#a)"/><path d="m38.3244 11.35c-1.955-1.94877-4.5155-2.9241-7.0784-2.9241-2.562 0-5.1235.97533-7.0794 2.9241l-3.5392 3.5306-3.5387-3.5306c-3.9095-3.89895-10.24741-3.89895-14.15638 0-3.909436 3.9013-3.909436 10.222 0 14.1214 3.90849 3.8989 10.24688 3.8989 14.15638 0l2.6667-2.6595-2.6667-4.4012 3.5387 3.5311 3.5392 3.5296c3.9118 3.8989 10.2488 3.8989 14.1583 0 3.9094-3.8989 3.9094-10.2201-.0005-14.1214zm-24.7745 10.5918c-.9451.9432-2.2022 1.4627-3.5396 1.4627-1.33794 0-2.59453-.5195-3.53972-1.4627-.9452-.9438-1.46515-2.198-1.46515-3.5311 0-1.3341.51948-2.5864 1.46515-3.5301.94519-.9424 2.20178-1.4618 3.53972-1.4618 1.3369 0 2.5945.5194 3.5396 1.4618l3.5393 3.5301zm21.2348 0c-.9447.9432-2.2022 1.4627-3.5392 1.4627-1.3369 0-2.5945-.5195-3.5397-1.4627l-3.5397-3.5311 3.5397-3.5301c.9452-.9424 2.2028-1.4618 3.5397-1.4618 1.3365 0 2.5945.5194 3.5392 1.4618.9457.9437 1.4676 2.196 1.4676 3.5301.0004 1.3331-.5219 2.5873-1.4676 3.5311z" fill="url(#b)"/><path d="m20.6083 14.8614 3.754-3.777s2.6279-2.66812 6.8837-2.66716c2.1257.00047 4.8575.71846 7.0789 2.93746 0 0 3.6999 3.3268 2.8136 8.612 0 0-.4439 4.149-4.2027 6.6976-.9136.6195-4.8867 2.9824-9.7212.8888 0 0 9.6255-2.804 8.9956-9.6036-.2727-2.9398-2.8672-4.4609-4.8073-4.5193 0 0-2.0937-.1526-3.6961 1.4604l-3.5316 3.5282z" fill="url(#c)"/><path d="m19.765 22.8276-1.8885 1.8803s-2.473 3.0475-6.3073 3.6115c-3.83437.5644-6.5762-1.2073-6.5762-1.2073s-3.52677-1.7206-4.712563-6.228c0 0-.28747993-.9844-.28030489-2.4481 0 0 3.99362789 4.9694 9.98334789 4.9694 0 0 1.92152.1278 3.54542-1.424l3.5598-3.5703z" fill="url(#d)"/><path d="m17.0887 18.4106 2.6763 4.417.8624-.8859z" fill="#1253a5"/></svg>
