<svg width="59" height="32" viewBox="0 0 59 32" fill="none" xmlns="http://www.w3.org/2000/svg">
<defs>
<linearGradient id="paint0_linear_1960_188719" x1="20.5059" y1="13.1544" x2="15.5287" y2="5.06549" gradientUnits="userSpaceOnUse">
<stop stop-color="#009761"/>
<stop offset="0.1828" stop-color="#009878"/>
<stop offset="1" stop-color="#009ADA"/>
</linearGradient>
<linearGradient id="paint1_linear_1960_188719" x1="39.3985" y1="19.8659" x2="19.3196" y2="8.27335" gradientUnits="userSpaceOnUse">
<stop stop-color="#8EA461"/>
<stop offset="0.9852" stop-color="#009ADA"/>
<stop offset="1" stop-color="#009ADA"/>
</linearGradient>
</defs>
<path d="M9.87102 24.6676C9.83434 24.6676 9.81599 24.6859 9.81599 24.7226L9.43078 25.6765C9.35741 25.8599 9.32072 26.025 9.32072 26.0983C9.32072 26.2268 9.37575 26.3185 9.59587 26.3185H9.70593C9.79765 26.3185 9.81599 26.3368 9.81599 26.3735C9.81599 26.4285 9.77931 26.4469 9.68759 26.4469C9.46747 26.4469 9.17398 26.4285 8.95385 26.4285C8.88048 26.4285 8.49527 26.4469 8.1284 26.4469C8.03669 26.4469 8 26.4285 8 26.3735C8 26.3368 8.01834 26.3185 8.09172 26.3185C8.14675 26.3185 8.25681 26.3185 8.31184 26.3001C8.64202 26.2634 8.77042 26.025 8.89882 25.6765L10.6414 21.3474C10.7332 21.1456 10.7698 21.0723 10.8432 21.0723C10.8983 21.0723 10.9533 21.1273 11.0083 21.2924C11.1734 21.6776 12.2923 24.4658 12.7326 25.5297C12.9894 26.1534 13.1912 26.2634 13.3379 26.2818C13.448 26.3001 13.5397 26.3185 13.6314 26.3185C13.6864 26.3185 13.7231 26.3185 13.7231 26.3735C13.7231 26.4285 13.6681 26.4469 13.4113 26.4469C13.1545 26.4469 12.6592 26.4469 12.0906 26.4285C11.9622 26.4285 11.8888 26.4285 11.8888 26.3735C11.8888 26.3368 11.9071 26.3185 11.9805 26.3185C12.0355 26.3001 12.0722 26.2451 12.0355 26.1534L11.4852 24.7226C11.4669 24.6859 11.4486 24.6676 11.4119 24.6676H9.87102ZM11.1734 24.2824C11.2101 24.2824 11.2101 24.264 11.2101 24.2457L10.5681 22.503C10.5681 22.4847 10.5497 22.448 10.5314 22.448C10.513 22.448 10.4947 22.4847 10.4947 22.503L9.83434 24.2457C9.83434 24.2824 9.83434 24.3007 9.87102 24.3007H11.1734V24.2824Z" fill="#009ADA"/>
<path d="M15.0256 22.0257C15.044 21.9339 15.0806 21.8789 15.1173 21.8789C15.1724 21.8789 15.2091 21.9156 15.2824 22.0623L16.8966 25.3641L18.5109 22.0257C18.5659 21.9339 18.5842 21.8789 18.6393 21.8789C18.6943 21.8789 18.731 21.9339 18.7493 22.0623L19.2813 25.6943C19.3363 26.0612 19.3913 26.2446 19.5748 26.2997C19.7399 26.3547 19.8683 26.3547 19.9416 26.3547C19.9967 26.3547 20.0334 26.3547 20.0334 26.3914C20.0334 26.4464 19.96 26.4647 19.8866 26.4647C19.7399 26.4647 18.9144 26.4464 18.6759 26.4281C18.5475 26.4097 18.5109 26.3914 18.5109 26.3547C18.5109 26.318 18.5292 26.2997 18.5842 26.2813C18.6209 26.263 18.6393 26.1896 18.6209 26.0245L18.2724 23.4564H18.2541L16.9517 26.0979C16.8233 26.373 16.7866 26.4281 16.7316 26.4281C16.6765 26.4281 16.6215 26.318 16.5298 26.1346C16.383 25.8594 15.9244 24.9606 15.8511 24.7955C15.796 24.6671 15.4475 23.97 15.2274 23.5298H15.2091L14.8972 25.8411C14.8789 25.9511 14.8789 26.0245 14.8789 26.1162C14.8789 26.2263 14.9522 26.2813 15.0623 26.2997C15.1724 26.318 15.2457 26.3363 15.3191 26.3363C15.3741 26.3363 15.4108 26.3547 15.4108 26.373C15.4108 26.4281 15.3558 26.4464 15.2641 26.4464C15.0073 26.4464 14.7505 26.4281 14.6404 26.4281C14.5303 26.4281 14.2369 26.4464 14.0534 26.4464C13.9984 26.4464 13.9434 26.4281 13.9434 26.373C13.9434 26.3363 13.98 26.3363 14.0351 26.3363C14.0718 26.3363 14.1268 26.3363 14.2185 26.318C14.3836 26.2813 14.4386 26.0428 14.457 25.8411L15.0256 22.0257Z" fill="#009ADA"/>
<path d="M21.9042 24.9239C21.8675 24.9239 21.8675 24.9422 21.8492 24.9789L21.5374 25.786C21.4823 25.9328 21.4456 26.0795 21.4456 26.1529C21.4456 26.263 21.5007 26.3363 21.6841 26.3363H21.7575C21.8308 26.3363 21.8492 26.3547 21.8492 26.3914C21.8492 26.4464 21.8125 26.4464 21.7391 26.4464C21.5557 26.4464 21.2989 26.4281 21.1155 26.4281C21.0421 26.4281 20.7302 26.4464 20.4184 26.4464C20.345 26.4464 20.3083 26.4281 20.3083 26.3914C20.3083 26.3547 20.3267 26.3363 20.3817 26.3363C20.4368 26.3363 20.5101 26.3363 20.5652 26.318C20.8403 26.2813 20.9504 26.0795 21.0604 25.786L22.5462 22.1174C22.6196 21.9523 22.6563 21.8789 22.7113 21.8789C22.7664 21.8789 22.803 21.9339 22.8581 22.0623C23.0048 22.3925 23.9403 24.7588 24.3255 25.6576C24.5457 26.1896 24.7291 26.2813 24.8392 26.2997C24.9309 26.318 25.0226 26.318 25.096 26.318C25.151 26.318 25.1693 26.318 25.1693 26.373C25.1693 26.4281 25.1143 26.4281 24.8942 26.4281C24.6741 26.4281 24.2522 26.4281 23.7752 26.4097C23.6652 26.4097 23.5918 26.4097 23.5918 26.3547C23.5918 26.318 23.6102 26.2997 23.6835 26.2997C23.7202 26.2813 23.7752 26.2263 23.7386 26.1713L23.2616 24.9422C23.2433 24.9056 23.2249 24.9056 23.2066 24.9056H21.9042V24.9239ZM23.1149 24.6304C23.1516 24.6304 23.1516 24.6121 23.1516 24.5937L22.6196 23.1263C22.6196 23.1079 22.6013 23.0712 22.5829 23.0712C22.5646 23.0712 22.5462 23.1079 22.5462 23.1263L21.9959 24.5754C21.9959 24.5937 21.9959 24.6121 22.0143 24.6121H23.1149V24.6304Z" fill="#009ADA"/>
<path d="M25.9581 23.6766C25.9581 22.7778 25.9581 22.6127 25.9398 22.4293C25.9215 22.2275 25.8848 22.1358 25.683 22.0991C25.628 22.0808 25.5362 22.0808 25.4445 22.0808C25.3712 22.0808 25.3345 22.0624 25.3345 22.0257C25.3345 21.989 25.3712 21.9707 25.4629 21.9707C25.7747 21.9707 26.1599 21.989 26.27 21.989C26.4718 21.989 26.9303 21.9707 27.1138 21.9707C27.4806 21.9707 27.8842 22.0074 28.196 22.2275C28.3611 22.3376 28.5996 22.6494 28.5996 23.0346C28.5996 23.4749 28.4162 23.8784 27.8108 24.3553C28.3428 25.0157 28.7463 25.5477 29.0949 25.9145C29.425 26.263 29.6635 26.2997 29.7552 26.3181C29.8286 26.3364 29.8653 26.3364 29.9203 26.3364C29.9753 26.3364 29.9937 26.3548 29.9937 26.3915C29.9937 26.4465 29.957 26.4465 29.8836 26.4465H29.315C28.9848 26.4465 28.8381 26.4098 28.673 26.3364C28.4162 26.208 28.196 25.9145 27.8659 25.4559C27.6274 25.1258 27.3522 24.7222 27.2789 24.6305C27.2422 24.5938 27.2055 24.5938 27.1688 24.5938L26.6552 24.5755C26.6185 24.5755 26.6002 24.5938 26.6002 24.6305V24.7222C26.6002 25.2725 26.6002 25.7494 26.6369 25.9879C26.6552 26.153 26.6919 26.2997 26.8753 26.3181C26.967 26.3364 27.0954 26.3364 27.1688 26.3364C27.2238 26.3364 27.2422 26.3548 27.2422 26.3915C27.2422 26.4281 27.2055 26.4465 27.1321 26.4465C26.7836 26.4465 26.3434 26.4281 26.2516 26.4281C26.1416 26.4281 25.7564 26.4465 25.5362 26.4465C25.4629 26.4465 25.4262 26.4281 25.4262 26.3915C25.4262 26.3548 25.4445 26.3364 25.5179 26.3364C25.6096 26.3364 25.683 26.3181 25.738 26.3181C25.8481 26.2997 25.8848 26.1713 25.9031 25.9879C25.9398 25.7311 25.9398 25.2725 25.9398 24.7222V23.6766H25.9581ZM26.6552 24.1536C26.6552 24.2269 26.6735 24.2453 26.7102 24.2636C26.8386 24.3003 27.0037 24.3187 27.1688 24.3187C27.4073 24.3187 27.4806 24.3003 27.5907 24.2269C27.7741 24.0985 27.9392 23.8234 27.9392 23.3465C27.9392 22.5027 27.3889 22.2642 27.0404 22.2642C26.8937 22.2642 26.7836 22.2642 26.7286 22.2825C26.6919 22.3009 26.6735 22.3192 26.6735 22.3743V24.1536H26.6552Z" fill="#009ADA"/>
<path d="M31.9381 23.1084C31.9381 22.0261 31.9381 21.8243 31.9197 21.6042C31.9014 21.3658 31.8464 21.2557 31.6079 21.2007C31.5529 21.1823 31.4245 21.1823 31.3327 21.1823C31.2594 21.1823 31.2043 21.164 31.2043 21.1273C31.2043 21.0723 31.2594 21.0723 31.3694 21.0723C31.7546 21.0723 32.1949 21.0906 32.3416 21.0906C32.6902 21.0906 32.9653 21.0723 33.2038 21.0723C34.4878 21.0723 34.7263 21.7693 34.7263 22.1362C34.7263 22.7232 34.3961 23.0717 33.9925 23.3835C34.5795 23.5853 35.2949 24.0806 35.2949 24.9244C35.2949 25.6948 34.7079 26.4836 33.3872 26.4836C33.2955 26.4836 33.0937 26.4652 32.8919 26.4652C32.6718 26.4469 32.47 26.4469 32.36 26.4469C32.2866 26.4469 32.1215 26.4469 31.9564 26.4469C31.7913 26.4469 31.6079 26.4652 31.4612 26.4652C31.3694 26.4652 31.3144 26.4469 31.3144 26.3918C31.3144 26.3552 31.3511 26.3368 31.4245 26.3368C31.5345 26.3368 31.6262 26.3185 31.6813 26.3001C31.828 26.2634 31.8647 26.1167 31.883 25.9149C31.9197 25.6214 31.9197 25.0528 31.9197 24.3924V23.1084H31.9381ZM32.8002 23.2368C32.8002 23.2918 32.8186 23.3102 32.8552 23.3102C32.9286 23.3285 33.0203 23.3285 33.1854 23.3285C33.4239 23.3285 33.5706 23.2918 33.699 23.2001C33.8825 23.0533 33.9925 22.7965 33.9925 22.448C33.9925 21.9711 33.7174 21.3474 33.0937 21.3474C32.9837 21.3474 32.9286 21.3474 32.8552 21.3658C32.8002 21.3841 32.8002 21.4024 32.8002 21.4942V23.2368ZM33.7357 23.8054C33.589 23.6954 33.4239 23.6403 33.1487 23.6403C33.0203 23.6403 32.947 23.6403 32.8369 23.6403C32.8002 23.6403 32.8002 23.6587 32.8002 23.6954V25.383C32.8002 25.8599 32.8186 25.9699 33.057 26.0617C33.2405 26.135 33.4055 26.1534 33.5706 26.1534C33.8825 26.1534 34.4328 25.9883 34.4328 25.2362C34.4328 24.7776 34.2677 24.1906 33.7357 23.8054Z" fill="#8EA461"/>
<path d="M37.1476 24.9434C37.1109 24.9434 37.1109 24.9618 37.0925 24.9985L36.7807 25.8056C36.7257 25.9523 36.689 26.0991 36.689 26.1724C36.689 26.2825 36.744 26.3559 36.9274 26.3559H37.0192C37.0925 26.3559 37.1109 26.3742 37.1109 26.4109C37.1109 26.4659 37.0742 26.4659 37.0192 26.4659C36.8357 26.4659 36.5789 26.4476 36.3955 26.4476C36.3221 26.4476 36.0103 26.4659 35.6984 26.4659C35.6251 26.4659 35.5884 26.4476 35.5884 26.4109C35.5884 26.3742 35.6067 26.3559 35.6618 26.3559C35.7168 26.3559 35.7902 26.3559 35.8452 26.3375C36.1203 26.3008 36.2304 26.0991 36.3588 25.8056L37.8446 22.1369C37.918 21.9718 37.9547 21.8984 38.0097 21.8984C38.0647 21.8984 38.1014 21.9535 38.1565 22.0819C38.3032 22.4121 39.2571 24.7783 39.6239 25.6772C39.844 26.2091 40.0275 26.3008 40.1375 26.3192C40.2293 26.3375 40.321 26.3375 40.3943 26.3375C40.4494 26.3375 40.4677 26.3375 40.4677 26.3926C40.4677 26.4476 40.4127 26.4476 40.1926 26.4476C39.9724 26.4476 39.5505 26.4476 39.0736 26.4293C38.9636 26.4293 38.8902 26.4293 38.8902 26.3742C38.8902 26.3375 38.9085 26.3192 38.9819 26.3192C39.0186 26.3008 39.0736 26.2458 39.0369 26.1908L38.56 24.9618C38.5417 24.9251 38.5233 24.9251 38.505 24.9251H37.1476V24.9434ZM38.3399 24.6499C38.3766 24.6499 38.3766 24.6316 38.3766 24.6133L37.8446 23.1458C37.8446 23.1274 37.8263 23.0908 37.8079 23.0908C37.7896 23.0908 37.7712 23.1274 37.7712 23.1458L37.2209 24.5949C37.2209 24.6133 37.2209 24.6316 37.2393 24.6316H38.3399V24.6499Z" fill="#8EA461"/>
<path d="M41.6967 25.6588C41.715 26.1174 41.7884 26.2825 41.8984 26.3192C41.9902 26.3559 42.1186 26.3559 42.2103 26.3559C42.2836 26.3559 42.302 26.3742 42.302 26.4109C42.302 26.4659 42.247 26.4659 42.1736 26.4659C41.7884 26.4659 41.5499 26.4476 41.4399 26.4476C41.3848 26.4476 41.1097 26.4659 40.7978 26.4659C40.7245 26.4659 40.6694 26.4659 40.6694 26.4109C40.6694 26.3742 40.7061 26.3559 40.7612 26.3559C40.8345 26.3559 40.9446 26.3559 41.0363 26.3192C41.183 26.2642 41.2197 26.0991 41.2197 25.5855L41.2748 22.1002C41.2748 21.9902 41.2931 21.8984 41.3481 21.8984C41.4215 21.8984 41.4582 21.9718 41.5683 22.0819C41.6416 22.1552 42.5405 23.1091 43.4026 23.9712C43.8061 24.3748 44.6133 25.2369 44.705 25.3286H44.7417L44.6866 22.6689C44.6866 22.302 44.6316 22.1919 44.4849 22.1369C44.3931 22.1002 44.2464 22.1002 44.173 22.1002C44.0996 22.1002 44.0813 22.0819 44.0813 22.0452C44.0813 21.9902 44.1547 21.9902 44.228 21.9902C44.5399 21.9902 44.815 22.0085 44.9434 22.0085C45.0168 22.0085 45.2369 21.9902 45.5304 21.9902C45.6038 21.9902 45.6588 21.9902 45.6588 22.0452C45.6588 22.0819 45.6221 22.1002 45.5488 22.1002C45.4937 22.1002 45.4387 22.1002 45.3653 22.1186C45.2002 22.1736 45.1452 22.2836 45.1452 22.6322L45.0718 26.3742C45.0718 26.5026 45.0535 26.5577 44.9985 26.5577C44.9251 26.5577 44.8701 26.4843 44.7967 26.4293C44.4298 26.0807 43.6594 25.292 43.0541 24.6866C42.4121 24.0446 41.7517 23.3292 41.6416 23.2192H41.6233L41.6967 25.6588Z" fill="#8EA461"/>
<path d="M47.2363 23.9526H47.273C47.4748 23.7324 48.3369 22.852 48.5204 22.6502C48.6855 22.4484 48.8139 22.3017 48.8139 22.2099C48.8139 22.1366 48.7955 22.0999 48.7222 22.0999C48.6671 22.0815 48.6488 22.0815 48.6488 22.0448C48.6488 22.0082 48.6855 21.9898 48.7405 21.9898C48.8689 21.9898 49.1991 22.0082 49.3458 22.0082C49.5293 22.0082 49.8594 21.9898 50.0429 21.9898C50.0979 21.9898 50.1346 22.0082 50.1346 22.0448C50.1346 22.0815 50.0979 22.0999 50.0429 22.0999C49.9512 22.0999 49.8044 22.1182 49.6944 22.1732C49.5109 22.2466 49.3091 22.375 49.0523 22.6135C48.8689 22.7969 47.9701 23.6774 47.7683 23.8975C47.9884 24.1727 49.1441 25.42 49.3825 25.6401C49.6393 25.8969 49.9145 26.1538 50.2263 26.2822C50.4097 26.3555 50.5198 26.3739 50.5932 26.3739C50.6299 26.3739 50.6666 26.3922 50.6666 26.4289C50.6666 26.4656 50.6299 26.4839 50.5198 26.4839H50.0062C49.8228 26.4839 49.7127 26.4839 49.6026 26.4656C49.2725 26.4289 49.1257 26.3005 48.8689 26.0804C48.6121 25.8419 47.4381 24.4845 47.3097 24.3011L47.2363 24.2094H47.1997V24.7413C47.1997 25.2916 47.1997 25.7502 47.218 26.007C47.2363 26.1721 47.2914 26.3005 47.4381 26.3188C47.5298 26.3372 47.6582 26.3372 47.7316 26.3372C47.7867 26.3372 47.805 26.3555 47.805 26.3922C47.805 26.4289 47.75 26.4472 47.6949 26.4472C47.3648 26.4472 46.9979 26.4289 46.8328 26.4289C46.7044 26.4289 46.3192 26.4472 46.0807 26.4472C46.0073 26.4472 45.9707 26.4289 45.9707 26.3922C45.9707 26.3555 45.989 26.3372 46.0624 26.3372C46.1541 26.3372 46.2275 26.3188 46.2825 26.3188C46.4109 26.3005 46.4292 26.1721 46.4476 25.9887C46.4843 25.7319 46.4843 25.2733 46.4843 24.723V23.6774C46.4843 22.7786 46.4843 22.6135 46.4659 22.4117C46.4476 22.2099 46.4109 22.1182 46.2091 22.0815C46.1541 22.0632 46.0624 22.0632 45.9707 22.0632C45.8973 22.0632 45.8606 22.0448 45.8606 22.0082C45.8606 21.9715 45.8973 21.9531 45.989 21.9531C46.3008 21.9531 46.686 21.9715 46.8145 21.9715C46.9612 21.9715 47.3281 21.9531 47.5298 21.9531C47.6216 21.9531 47.6582 21.9715 47.6582 22.0082C47.6582 22.0448 47.6216 22.0632 47.5665 22.0632C47.5115 22.0632 47.4748 22.0632 47.4014 22.0815C47.2363 22.1182 47.1997 22.2099 47.1813 22.4117C47.163 22.5951 47.163 22.7602 47.163 23.6774V23.9526H47.2363Z" fill="#8EA461"/>
<path d="M19.8333 14.3259L19.8092 14.3406H16.9555L16.8066 14.1004V5.33398H19.8333V14.3259Z" fill="url(#paint0_linear_1960_188719)"/>
<path fill-rule="evenodd" clip-rule="evenodd" d="M29.2599 11.9735L31.3877 9.82737C32.58 8.65339 34.1209 8.06641 35.6617 8.06641C37.2209 8.06641 38.7617 8.65339 39.9174 9.84571C42.2837 12.1937 42.2837 16.0091 39.9174 18.3754C37.5511 20.7417 33.7357 20.7417 31.3694 18.3754L29.2415 16.2475L27.1137 18.3754C24.7658 20.7233 20.932 20.7233 18.584 18.357C16.2178 16.0091 16.2178 12.1937 18.584 9.82737C20.932 7.47942 24.7658 7.47942 27.1137 9.82737L29.2599 11.9735ZM19.8314 14.1197C19.8314 14.9268 20.1432 15.6789 20.7119 16.2475C21.2805 16.8162 22.0326 17.128 22.858 17.128C23.6652 17.128 24.4172 16.8162 24.9859 16.2475L27.1137 14.1197L24.9859 11.9919C24.4172 11.4232 23.6652 11.1114 22.858 11.1114C22.0326 11.1114 21.2805 11.4232 20.7119 11.9919C20.1432 12.5605 19.8314 13.3126 19.8314 14.1197ZM31.3877 14.1014L33.5339 16.2475C34.1025 16.8162 34.8546 17.128 35.6617 17.1097C36.4688 17.1097 37.2209 16.7978 37.7895 16.2292C38.3582 15.6606 38.67 14.9085 38.67 14.1014C38.67 13.2943 38.3582 12.5422 37.7895 11.9735C37.2209 11.4049 36.4688 11.0931 35.6617 11.0931C34.8546 11.0931 34.1025 11.4049 33.5339 11.9735L31.3877 14.1014Z" fill="url(#paint1_linear_1960_188719)"/>
<path d="M27.1138 14.1211L28.728 16.7625L29.2416 16.2489L29.2599 16.2673L27.1138 14.1211Z" fill="#0E7F6F"/>
</svg>
