<svg width="236" height="160" viewBox="0 0 236 160" fill="none" xmlns="http://www.w3.org/2000/svg">
<path d="M118 151C172.676 151 217 145.851 217 139.5C217 133.149 172.676 128 118 128C63.3238 128 19 133.149 19 139.5C19 145.851 63.3238 151 118 151Z" fill="#EFEFEF"/>
<path d="M105.5 10.0001C103.3 9.90008 101.2 10.2001 99.1001 10.5001C94.4001 11.2001 90.0001 12.7001 85.9001 15.0001C81.6001 17.3001 77.9001 20.3001 74.7001 24.0001C70.7001 28.6001 67.8001 33.8001 66.1001 39.7001C64.3001 45.7001 64.5001 51.9001 64.6001 58.1001C64.6001 62.5001 64.6001 66.8001 64.6001 71.2001C67.0001 70.7001 69.5001 73.0001 71.9001 72.6001C76.0001 71.9001 80.2001 71.2001 84.3001 70.5001C84.1001 70.0001 84.1001 66.6001 84.1001 66.1001C84.1001 63.4001 84.1001 60.8001 84.1001 58.1001C84.2001 55.0001 84.0001 52.0001 84.3001 48.9001C84.9001 42.8001 87.8001 37.9001 92.5001 34.1001C96.3001 31.1001 100.7 29.9001 105.4 29.6001C105.9 29.2001 106 28.5001 106 27.9001C106 22.5001 106 17.1001 106 11.8001C106 11.1001 106 10.5001 105.5 10.0001Z" fill="#E0EAEF"/>
<path d="M145.7 43.6C143.9 34.3 139.6 26.5 132.5 20.2C124.7 13.5 115.7 10.1 105.5 10C105.5 16.5 105.5 23 105.5 29.5C106.9 29.7 108.4 29.8 109.8 30.1C118.8 31.8 126 39.9 126.7 49C126.9 52 126.8 55.1 126.9 58.1C126.9 61.3 126.9 64.5 126.8 67.7C126.8 71.3 128.3 71.3 128.4 71.3C134.9 72.1 140 70.6 146.4 72C146.4 67.6 146.4 62.5 146.4 58.1C146.3 53.2 146.6 48.4 145.7 43.6Z" fill="#B3D1D6"/>
<path d="M51.6001 80.3001V131.4C51.6001 135.5 54.5001 139.1 58.6001 139.9L77.3001 143.6L105.8 146.5V67.6001L77.6001 69.8001L58.3001 71.9001C54.4001 72.8001 51.6001 76.3001 51.6001 80.3001Z" fill="#FED944"/>
<path d="M159.4 80.3001V131.4C159.4 135.5 156.5 139.1 152.4 139.9L133.7 143.6L105.2 146.5V67.6001L133.4 69.8001L152.7 71.9001C156.6 72.8001 159.4 76.3001 159.4 80.3001Z" fill="#FEB555"/>
<path d="M105.9 92.3C105.8 92.3 105.7 92.3 105.5 92.3C105.4 92.3 105.3 92.3 105.1 92.3C99.1001 92.7 93.8001 98 93.9001 104.8C94.0001 109.9 96.6001 113.6 101.2 115.8C102.1 116.2 102.4 116.7 102.3 117.6C102.3 120.8 102.3 123.9 102.3 127.1C102.3 128.1 102.6 128.5 103.7 128.5C104.2 128.5 104.7 128.5 105.2 128.5C105.3 128.5 105.4 128.5 105.6 128.5C105.7 128.5 105.8 128.5 106 128.5C106.5 128.5 107 128.5 107.5 128.5C108.6 128.6 108.9 128.2 108.9 127.1C108.8 123.9 108.9 120.8 108.9 117.6C108.9 116.7 109.2 116.2 110 115.8C114.6 113.6 117.2 109.8 117.3 104.8C117.2 98 111.9 92.6 105.9 92.3Z" fill="#FE7C48"/>
<path d="M159.8 146.8C175.375 146.8 188 134.175 188 118.6C188 103.026 175.375 90.4001 159.8 90.4001C144.226 90.4001 131.6 103.026 131.6 118.6C131.6 134.175 144.226 146.8 159.8 146.8Z" fill="#E8505B"/>
<path d="M177.9 115H141.7V122.2H177.9V115Z" fill="white"/>
</svg>
