<svg width="236" height="160" viewBox="0 0 236 160" fill="none" xmlns="http://www.w3.org/2000/svg">
<g clip-path="url(#clip0_950_15226)">
<path d="M216.886 138.555C217.077 132.207 172.931 125.727 118.282 124.081C63.6331 122.435 19.1765 126.247 18.9853 132.596C18.7941 138.944 62.9408 145.424 117.59 147.07C172.239 148.715 216.695 144.903 216.886 138.555Z" fill="#EFEFEF"/>
<path d="M107.3 88.1001C107.2 88.1001 107.1 88.1001 106.9 88.1001C106.8 88.1001 106.7 88.1001 106.5 88.1001C100.5 88.3001 94.9999 93.5001 94.8999 100.2C94.8999 105.3 97.2999 109.1 101.8 111.5C102.6 111.9 102.9 112.4 102.9 113.3C102.8 116.5 102.7 119.6 102.6 122.8C102.6 123.8 102.9 124.3 103.9 124.2C104.4 124.2 104.9 124.2 105.4 124.2C105.5 124.2 105.6 124.2 105.8 124.2C105.9 124.2 106 124.2 106.2 124.2C106.7 124.2 107.2 124.2 107.7 124.3C108.7 124.4 109.1 124 109.1 123C109.1 119.8 109.3 116.7 109.4 113.5C109.4 112.6 109.7 112.2 110.6 111.8C115.2 109.7 117.9 106.1 118.2 101C118.4 94.1001 113.3 88.6001 107.3 88.1001Z" fill="#FE7C48"/>
<path d="M98.2001 13.0999C96.2001 12.8999 94.1001 13.1999 92.1001 13.3999C87.7001 13.8999 83.5001 15.1999 79.5001 17.1999C75.4001 19.2999 71.8001 21.9999 68.6001 25.3999C64.7001 29.5999 61.8001 34.4999 60.0001 39.9999C58.1001 45.6999 58.1001 51.4999 58.0001 57.3999C57.9001 61.4999 57.7001 65.6999 57.6001 69.7999C59.9001 69.3999 62.1001 71.6999 64.5001 71.2999C68.4001 70.6999 72.4001 70.1999 76.3001 69.6999C76.1001 69.1999 76.3001 65.9999 76.3001 65.4999C76.4001 62.9999 76.4001 60.3999 76.5001 57.8999C76.7001 54.9999 76.6001 52.0999 77.0001 49.1999C77.8001 43.3999 80.6001 38.8999 85.2001 35.4999C88.8001 32.6999 93.1001 31.6999 97.6001 31.5999C98.1001 31.1999 98.2001 30.5999 98.2001 29.9999C98.4001 24.8999 98.5001 19.7999 98.7001 14.6999C98.6001 14.0999 98.7001 13.4999 98.2001 13.0999Z" fill="#E0EAEF"/>
<path d="M135.2 45.9999C133.8 37.1999 129.9 29.5999 123.3 23.4999C116.3 16.8999 107.8 13.3999 98.2001 13.0999C98.0001 19.2999 97.8001 25.3999 97.6001 31.5999C99.0001 31.7999 100.3 31.9999 101.7 32.1999C110.2 34.0999 116.7 41.9999 117.1 50.4999C117.2 53.3999 117 56.1999 117 59.0999C116.9 62.0999 116.8 65.0999 116.7 68.0999C116.6 71.4999 118 71.5999 118.1 71.5999C124.2 72.4999 129.1 71.2999 135.1 72.7999C135.2 68.6999 135.4 63.7999 135.5 59.6999C135.6 55.0999 136 50.4999 135.2 45.9999Z" fill="#B3D1D6"/>
<path d="M45.2001 78L43.7001 126.3C43.6001 130.2 46.2001 133.6 50.1001 134.5L67.7001 138.5L94.6001 142.1L96.8001 67.5L70.0001 68.8L51.7001 70.3C48.1001 71 45.3001 74.2 45.2001 78Z" fill="#FED944"/>
<path d="M147.2 81.0999L145.7 129.4C145.6 133.3 142.7 136.6 138.9 137.2L121 140.2L94 142.2L96.2 67.5999L122.8 70.4999L141 73.0999C144.8 73.8999 147.3 77.2999 147.2 81.0999Z" fill="#FEB555"/>
<path d="M97.1001 129.1C108.532 129.1 117.8 119.832 117.8 108.4C117.8 96.9677 108.532 87.7 97.1001 87.7C85.6678 87.7 76.4001 96.9677 76.4001 108.4C76.4001 119.832 85.6678 129.1 97.1001 129.1Z" fill="#E8505B"/>
<path d="M110.47 106.097L83.8833 105.296L83.7238 110.593L110.31 111.394L110.47 106.097Z" fill="white"/>
<path d="M118.6 100.6C118.6 99.2999 118.6 97.9999 118.6 96.6999C118.8 96.5999 118.8 96.3999 118.8 96.1999C119 94.7999 119.2 93.4 119.4 92C122.6 75.2 136.4 61.6999 153.3 58.7999C154.6 58.5999 155.9 58.6 157.1 58.2C159.3 58.2 161.5 58.2 163.7 58.2C163.9 58.4 164.1 58.3 164.3 58.4C166 58.6 167.7 58.8 169.4 59.2C184.5 62.8 194.8 72 200.3 86.5C201.9 90.7 202.6 95.1999 202.6 99.6999C202.4 101 202.3 102.2 202.1 103.5C201.4 108.1 200 112.4 197.9 116.5C195.5 121 192.5 125 188.7 128.3C186.1 130.6 183.2 132.7 180.1 134.3C172.7 138.2 164.9 139.6 156.6 138.9C152.5 138.5 148.5 137.6 144.6 136C138.1 133.3 132.6 129.3 128.1 123.8C122.9 117.5 119.8 110.2 118.8 102.1C118.8 101.8 118.8 101.6 118.5 101.5C118.5 101.3 118.5 101.2 118.5 101C118.7 100.8 118.7 100.7 118.6 100.6ZM195.5 100.5C195.7 98.7999 195.5 97.1 195.2 95.4C194 86.9 190.3 79.6999 183.8 74.0999C173.4 65.0999 161.4 62.7 148.5 67.4C136 72 128.5 81.3 126 94.4C125.6 96.4 125.4 98.5 125.6 100.6C125.5 103.2 125.9 105.8 126.5 108.4C130.6 126.1 148.5 138.2 166.4 134.8C180.9 132.1 190.2 123.4 194.5 109.3C195.3 106.3 195.6 103.4 195.5 100.5Z" fill="#608CC3"/>
<path d="M202.5 99.5999C202.7 106.9 200.9 113.9 197.3 120.2C190.9 131.6 181.2 138.8 168.3 141.2C154.5 143.8 142.3 140.2 131.9 130.7C124.8 124.3 120.6 116.2 119 106.8C118.8 105.6 118.8 104.4 118.5 103.3C118.5 102.6 118.5 102 118.5 101.3C118.8 101.4 118.8 101.6 118.8 101.9C119.8 110 122.9 117.3 128.1 123.6C132.6 129.1 138.1 133.1 144.6 135.8C148.4 137.4 152.4 138.4 156.6 138.7C164.9 139.4 172.7 137.9 180.1 134.1C183.2 132.5 186 130.5 188.7 128.1C192.5 124.7 195.5 120.7 197.9 116.3C200 112.2 201.4 107.9 202.1 103.3C202.2 102.2 202.4 100.9 202.5 99.5999Z" fill="#1253A5"/>
<path d="M125.6 100.5C125.4 98.3999 125.6 96.2999 126 94.2999C128.6 81.1999 136 71.8999 148.5 67.2999C161.4 62.5999 173.4 64.9999 183.8 73.9999C190.3 79.5999 193.9 86.7999 195.2 95.2999C195.4 96.9999 195.6 98.6999 195.5 100.4C195.2 101.2 195.2 102.2 195.1 103C193.9 109.5 191.1 115.3 186.7 120.3C183.6 123.8 179.9 126.5 175.8 128.6C171.6 130.7 167.1 131.7 162.5 132C162.1 132 161.6 132.1 161.2 131.7C161.7 131.4 161.9 130.9 161.9 130.3C161.9 129.2 161.9 128 161.9 126.9C161.9 126 161.4 125.4 160.6 125.4C159.8 125.4 159.3 125.9 159.3 126.9C159.3 128 159.3 129.2 159.3 130.3C159.3 130.9 159.5 131.4 160 131.7C159.6 132.1 159.2 132 158.8 132C156.5 131.8 154.2 131.5 151.9 130.9C145 129 139 125.5 134.3 120C129.8 114.9 127.1 109 126 102.3C125.8 101.8 126 101.1 125.6 100.5ZM163 103.8C163.2 104 163.3 104.2 163.5 104.3C166.2 106.5 168.8 108.8 171.5 111C173.5 112.7 175.6 114.4 177.6 116.1C178.1 116.5 178.6 116.6 179.2 116.3C179.8 115.9 179.9 115.4 179.7 114.8C179.6 114.3 179.2 114.1 178.9 113.8C175.6 111 172.4 108.3 169 105.6C167.5 104.4 166.1 103 164.5 101.9C164.8 101.3 164.8 100.6 164.9 99.8999C167.6 97.0999 170.4 94.2999 173.1 91.5999C173.4 91.2999 173.6 90.9999 173.8 90.6999C174.3 89.5999 173.9 88.2999 172.9 87.5999C171.9 86.8999 170.5 86.9999 169.6 87.9999C167 90.5999 164.3 93.2999 161.7 95.9999C160.8 95.8999 159.9 95.8999 159 96.0999C156 93.3999 153.1 90.7999 150.1 88.0999C147.9 86.0999 145.7 84.0999 143.4 82.1999C142.5 81.3999 141.6 81.2999 140.5 81.7999C139.6 82.2999 139.1 83.2999 139.2 84.2999C139.3 85.0999 139.7 85.5999 140.3 86.1999C145.6 90.8999 150.9 95.5999 156.2 100.4C156.3 100.7 156.3 101.1 156.4 101.4C157.1 103.7 160 105.5 163 103.8ZM159.3 71.4999C159.3 72.0999 159.3 72.7999 159.3 73.3999C159.3 74.1999 159.8 74.6999 160.6 74.6999C161.3 74.6999 161.9 74.1999 161.9 73.3999C161.9 72.0999 161.9 70.8999 161.9 69.5999C161.9 68.6999 161.3 68.1999 160.6 68.1999C159.9 68.1999 159.4 68.6999 159.4 69.5999C159.3 70.2999 159.3 70.8999 159.3 71.4999ZM131.9 101.4C132.5 101.4 133.1 101.4 133.7 101.4C133.8 101.4 133.8 101.4 133.9 101.4C134.7 101.3 135.1 100.9 135.2 100.2C135.2 99.4999 134.7 98.8999 133.9 98.8999C132.6 98.8999 131.3 98.8999 130 98.8999C129.2 98.8999 128.7 99.3999 128.7 100.2C128.7 100.9 129.2 101.4 130 101.5C130.7 101.4 131.3 101.4 131.9 101.4ZM189.2 98.7999C188.6 98.7999 187.9 98.7999 187.3 98.7999C186.5 98.7999 186 99.2999 186 100.1C186 100.8 186.5 101.4 187.3 101.4C188.6 101.4 189.9 101.4 191.2 101.4C192 101.4 192.5 100.8 192.5 100.1C192.5 99.3999 192 98.8999 191.2 98.7999C190.4 98.7999 189.8 98.7999 189.2 98.7999Z" fill="#E3EDF8"/>
<path d="M125.6 100.5C126 101.1 125.8 101.8 125.9 102.5C127 109.2 129.7 115.1 134.2 120.2C139 125.6 144.9 129.2 151.8 131.1C154 131.7 156.4 132 158.7 132.2C159.1 132.2 159.6 132.3 159.9 131.9C160.3 132 160.7 132 161.1 131.9C161.5 132.3 162 132.2 162.4 132.2C167 131.9 171.5 130.8 175.7 128.8C179.8 126.7 183.5 124 186.6 120.5C191 115.5 193.8 109.7 195 103.2C195.2 102.3 195.1 101.4 195.4 100.6C195.5 103.5 195.1 106.4 194.3 109.3C190.1 123.4 180.7 132.1 166.2 134.8C148.3 138.2 130.4 126.1 126.3 108.4C125.9 105.7 125.5 103.1 125.6 100.5Z" fill="#D5DEF0"/>
<path d="M156.2 100.3C150.9 95.5999 145.6 90.7999 140.3 86.0999C139.7 85.5999 139.3 84.9999 139.2 84.1999C139.1 83.0999 139.6 82.0999 140.5 81.6999C141.5 81.1999 142.5 81.2999 143.4 82.0999C145.6 84.0999 147.9 85.9999 150.1 87.9999C153.1 90.6999 156 93.2999 159 95.9999C157.8 96.5999 156.8 97.3999 156.4 98.7999C156.2 99.2999 156.3 99.7999 156.2 100.3Z" fill="#415C6D"/>
<path d="M161.8 95.9C164.4 93.2 167 90.6 169.7 87.9C170.6 87 172 86.8 173 87.5C174 88.2 174.4 89.5 173.9 90.6C173.7 91 173.5 91.2 173.2 91.5C170.5 94.3 167.7 97.1 165 99.8C164.8 99.3 164.9 98.8 164.6 98.3C164.1 97.1 163 96.4 161.8 95.9Z" fill="#415C6D"/>
<path d="M164.6 101.9C166.2 103 167.6 104.3 169.1 105.6C172.4 108.3 175.7 111.1 179 113.8C179.3 114.1 179.7 114.3 179.8 114.8C179.9 115.4 179.9 115.9 179.3 116.3C178.7 116.7 178.2 116.5 177.7 116.1C175.7 114.4 173.6 112.7 171.6 111C168.9 108.8 166.3 106.5 163.6 104.3C163.4 104.1 163.3 104 163.1 103.8C163.6 103.2 164.2 102.6 164.6 101.9Z" fill="#E3EDF8"/>
<path d="M161.8 95.8999C163 96.3999 164.1 97.0999 164.6 98.4999C164.5 100.1 162.1 101.8 160.1 101.4C158.5 101.1 157.4 100.1 156.6 98.7999C157 97.3999 158 96.5999 159.2 95.9999C160 95.7999 160.9 95.7999 161.8 95.8999Z" fill="#608CC3"/>
<path d="M156.5 98.8C157.3 100.1 158.4 101.1 160 101.4C162 101.8 164.5 100 164.5 98.5C164.8 98.9 164.7 99.5 164.9 100C164.8 100.7 164.8 101.3 164.5 102C164.1 102.7 163.6 103.3 162.9 103.9C159.9 105.6 157 103.8 156.3 101.5C156.2 101.2 156.2 100.8 156.1 100.5C156.3 99.8 156.2 99.3 156.5 98.8Z" fill="#1253A5"/>
<path d="M159.3 71.5C159.3 70.9 159.3 70.1999 159.3 69.5999C159.3 68.7999 159.8 68.3 160.5 68.2C161.3 68.2 161.8 68.6999 161.8 69.5999C161.8 70.8999 161.8 72.1 161.8 73.4C161.8 74.2 161.3 74.7 160.5 74.7C159.8 74.7 159.3 74.2 159.2 73.4C159.3 72.8 159.3 72.2 159.3 71.5Z" fill="#415C6D"/>
<path d="M131.9 101.4C131.3 101.4 130.6 101.4 130 101.4C129.2 101.4 128.7 100.9 128.7 100.1C128.7 99.4 129.2 98.8 130 98.8C131.3 98.8 132.6 98.8 133.9 98.8C134.7 98.8 135.2 99.4 135.2 100.1C135.2 100.8 134.7 101.3 133.9 101.3C133.8 101.3 133.8 101.3 133.7 101.3C133.2 101.4 132.6 101.4 131.9 101.4Z" fill="#415C6D"/>
<path d="M189.2 98.8C189.8 98.8 190.5 98.8 191.1 98.8C191.9 98.8 192.4 99.3 192.4 100.1C192.4 100.8 191.9 101.4 191.1 101.4C189.8 101.4 188.5 101.4 187.2 101.4C186.4 101.4 185.9 100.8 185.9 100.1C185.9 99.4 186.4 98.9 187.2 98.8C187.9 98.8 188.6 98.8 189.2 98.8Z" fill="#415C6D"/>
<path d="M161.2 131.8C160.8 131.9 160.4 131.9 160 131.8C159.5 131.5 159.3 131 159.3 130.4C159.3 129.3 159.3 128.1 159.3 127C159.3 126.1 159.8 125.5 160.6 125.5C161.4 125.5 161.9 126 161.9 127C161.9 128.1 161.9 129.3 161.9 130.4C161.9 131 161.7 131.5 161.2 131.8Z" fill="#415C6D"/>
</g>
<defs>
<clipPath id="clip0_950_15226">
<rect width="197.9" height="134.5" fill="white" transform="translate(19 13)"/>
</clipPath>
</defs>
</svg>
