<svg width="322" height="138" viewBox="0 0 322 138" fill="none" xmlns="http://www.w3.org/2000/svg">
<path d="M14.9 93V86.44H16.95C17.3967 86.44 17.7933 86.5 18.14 86.62C18.4867 86.7333 18.7567 86.9267 18.95 87.2C19.15 87.4667 19.25 87.8267 19.25 88.28C19.25 88.7867 19.1167 89.1967 18.85 89.51C18.5833 89.8167 18.2233 90.0267 17.77 90.14L19.44 93H18.5L16.92 90.23H15.73V93H14.9ZM15.73 89.55H16.83C17.3433 89.55 17.7367 89.4467 18.01 89.24C18.2833 89.0267 18.42 88.7067 18.42 88.28C18.42 87.8467 18.2833 87.5433 18.01 87.37C17.7367 87.1967 17.3433 87.11 16.83 87.11H15.73V89.55ZM20.9134 95.05V88.14H21.5934L21.6634 88.7H21.6934C21.9134 88.5133 22.1534 88.3533 22.4134 88.22C22.68 88.0867 22.9567 88.02 23.2434 88.02C23.87 88.02 24.3467 88.2467 24.6734 88.7C25 89.1467 25.1634 89.7467 25.1634 90.5C25.1634 91.0467 25.0634 91.5167 24.8634 91.91C24.67 92.3033 24.4134 92.6033 24.0934 92.81C23.78 93.0167 23.4367 93.12 23.0634 93.12C22.8367 93.12 22.61 93.07 22.3834 92.97C22.1634 92.87 21.94 92.7333 21.7134 92.56L21.7334 93.41V95.05H20.9134ZM22.9234 92.43C23.3234 92.43 23.6534 92.26 23.9134 91.92C24.18 91.5733 24.3134 91.1 24.3134 90.5C24.3134 89.9667 24.2134 89.5367 24.0134 89.21C23.82 88.8767 23.4934 88.71 23.0334 88.71C22.8267 88.71 22.6167 88.7667 22.4034 88.88C22.1967 88.9933 21.9734 89.1567 21.7334 89.37V91.92C21.9534 92.1067 22.1667 92.24 22.3734 92.32C22.58 92.3933 22.7634 92.43 22.9234 92.43ZM29.2322 93V92.32H30.6922V87.62H29.5322V87.09C29.8255 87.0367 30.0789 86.9733 30.2922 86.9C30.5122 86.82 30.7089 86.7267 30.8822 86.62H31.5122V92.32H32.8322V93H29.2322ZM36.3029 93.12C35.6629 93.12 35.1596 92.8333 34.7929 92.26C34.4329 91.68 34.2529 90.8567 34.2529 89.79C34.2529 88.7167 34.4329 87.9 34.7929 87.34C35.1596 86.78 35.6629 86.5 36.3029 86.5C36.9362 86.5 37.4329 86.78 37.7929 87.34C38.1596 87.9 38.3429 88.7167 38.3429 89.79C38.3429 90.8567 38.1596 91.68 37.7929 92.26C37.4329 92.8333 36.9362 93.12 36.3029 93.12ZM36.3029 92.46C36.6762 92.46 36.9762 92.25 37.2029 91.83C37.4296 91.4033 37.5429 90.7233 37.5429 89.79C37.5429 88.8567 37.4296 88.1867 37.2029 87.78C36.9762 87.3667 36.6762 87.16 36.3029 87.16C35.9296 87.16 35.6262 87.3667 35.3929 87.78C35.1662 88.1867 35.0529 88.8567 35.0529 89.79C35.0529 90.7233 35.1662 91.4033 35.3929 91.83C35.6262 92.25 35.9296 92.46 36.3029 92.46ZM40.4336 93.12C40.2669 93.12 40.1236 93.0633 40.0036 92.95C39.8903 92.83 39.8336 92.68 39.8336 92.5C39.8336 92.3067 39.8903 92.1533 40.0036 92.04C40.1236 91.92 40.2669 91.86 40.4336 91.86C40.5936 91.86 40.7303 91.92 40.8436 92.04C40.9636 92.1533 41.0236 92.3067 41.0236 92.5C41.0236 92.68 40.9636 92.83 40.8436 92.95C40.7303 93.0633 40.5936 93.12 40.4336 93.12ZM44.5638 93.12C43.9238 93.12 43.4205 92.8333 43.0538 92.26C42.6938 91.68 42.5138 90.8567 42.5138 89.79C42.5138 88.7167 42.6938 87.9 43.0538 87.34C43.4205 86.78 43.9238 86.5 44.5638 86.5C45.1972 86.5 45.6938 86.78 46.0538 87.34C46.4205 87.9 46.6038 88.7167 46.6038 89.79C46.6038 90.8567 46.4205 91.68 46.0538 92.26C45.6938 92.8333 45.1972 93.12 44.5638 93.12ZM44.5638 92.46C44.9372 92.46 45.2372 92.25 45.4638 91.83C45.6905 91.4033 45.8038 90.7233 45.8038 89.79C45.8038 88.8567 45.6905 88.1867 45.4638 87.78C45.2372 87.3667 44.9372 87.16 44.5638 87.16C44.1905 87.16 43.8872 87.3667 43.6538 87.78C43.4272 88.1867 43.3138 88.8567 43.3138 89.79C43.3138 90.7233 43.4272 91.4033 43.6538 91.83C43.8872 92.25 44.1905 92.46 44.5638 92.46ZM49.9345 93.12C49.2945 93.12 48.7912 92.8333 48.4245 92.26C48.0645 91.68 47.8845 90.8567 47.8845 89.79C47.8845 88.7167 48.0645 87.9 48.4245 87.34C48.7912 86.78 49.2945 86.5 49.9345 86.5C50.5679 86.5 51.0645 86.78 51.4245 87.34C51.7912 87.9 51.9745 88.7167 51.9745 89.79C51.9745 90.8567 51.7912 91.68 51.4245 92.26C51.0645 92.8333 50.5679 93.12 49.9345 93.12ZM49.9345 92.46C50.3079 92.46 50.6079 92.25 50.8345 91.83C51.0612 91.4033 51.1745 90.7233 51.1745 89.79C51.1745 88.8567 51.0612 88.1867 50.8345 87.78C50.6079 87.3667 50.3079 87.16 49.9345 87.16C49.5612 87.16 49.2579 87.3667 49.0245 87.78C48.7979 88.1867 48.6845 88.8567 48.6845 89.79C48.6845 90.7233 48.7979 91.4033 49.0245 91.83C49.2579 92.25 49.5612 92.46 49.9345 92.46ZM55.3052 93.12C54.6652 93.12 54.1619 92.8333 53.7952 92.26C53.4352 91.68 53.2552 90.8567 53.2552 89.79C53.2552 88.7167 53.4352 87.9 53.7952 87.34C54.1619 86.78 54.6652 86.5 55.3052 86.5C55.9386 86.5 56.4352 86.78 56.7952 87.34C57.1619 87.9 57.3452 88.7167 57.3452 89.79C57.3452 90.8567 57.1619 91.68 56.7952 92.26C56.4352 92.8333 55.9386 93.12 55.3052 93.12ZM55.3052 92.46C55.6786 92.46 55.9786 92.25 56.2052 91.83C56.4319 91.4033 56.5452 90.7233 56.5452 89.79C56.5452 88.8567 56.4319 88.1867 56.2052 87.78C55.9786 87.3667 55.6786 87.16 55.3052 87.16C54.9319 87.16 54.6286 87.3667 54.3952 87.78C54.1686 88.1867 54.0552 88.8567 54.0552 89.79C54.0552 90.7233 54.1686 91.4033 54.3952 91.83C54.6286 92.25 54.9319 92.46 55.3052 92.46ZM59.4359 93.12C59.2693 93.12 59.1259 93.0633 59.0059 92.95C58.8926 92.83 58.8359 92.68 58.8359 92.5C58.8359 92.3067 58.8926 92.1533 59.0059 92.04C59.1259 91.92 59.2693 91.86 59.4359 91.86C59.5959 91.86 59.7326 91.92 59.8459 92.04C59.9659 92.1533 60.0259 92.3067 60.0259 92.5C60.0259 92.68 59.9659 92.83 59.8459 92.95C59.7326 93.0633 59.5959 93.12 59.4359 93.12ZM63.5662 93.12C62.9262 93.12 62.4228 92.8333 62.0562 92.26C61.6962 91.68 61.5162 90.8567 61.5162 89.79C61.5162 88.7167 61.6962 87.9 62.0562 87.34C62.4228 86.78 62.9262 86.5 63.5662 86.5C64.1995 86.5 64.6962 86.78 65.0562 87.34C65.4228 87.9 65.6062 88.7167 65.6062 89.79C65.6062 90.8567 65.4228 91.68 65.0562 92.26C64.6962 92.8333 64.1995 93.12 63.5662 93.12ZM63.5662 92.46C63.9395 92.46 64.2395 92.25 64.4662 91.83C64.6928 91.4033 64.8062 90.7233 64.8062 89.79C64.8062 88.8567 64.6928 88.1867 64.4662 87.78C64.2395 87.3667 63.9395 87.16 63.5662 87.16C63.1928 87.16 62.8895 87.3667 62.6562 87.78C62.4295 88.1867 62.3162 88.8567 62.3162 89.79C62.3162 90.7233 62.4295 91.4033 62.6562 91.83C62.8895 92.25 63.1928 92.46 63.5662 92.46ZM68.9369 93.12C68.2969 93.12 67.7935 92.8333 67.4269 92.26C67.0669 91.68 66.8869 90.8567 66.8869 89.79C66.8869 88.7167 67.0669 87.9 67.4269 87.34C67.7935 86.78 68.2969 86.5 68.9369 86.5C69.5702 86.5 70.0669 86.78 70.4269 87.34C70.7935 87.9 70.9769 88.7167 70.9769 89.79C70.9769 90.8567 70.7935 91.68 70.4269 92.26C70.0669 92.8333 69.5702 93.12 68.9369 93.12ZM68.9369 92.46C69.3102 92.46 69.6102 92.25 69.8369 91.83C70.0635 91.4033 70.1769 90.7233 70.1769 89.79C70.1769 88.8567 70.0635 88.1867 69.8369 87.78C69.6102 87.3667 69.3102 87.16 68.9369 87.16C68.5635 87.16 68.2602 87.3667 68.0269 87.78C67.8002 88.1867 67.6869 88.8567 67.6869 89.79C67.6869 90.7233 67.8002 91.4033 68.0269 91.83C68.2602 92.25 68.5635 92.46 68.9369 92.46ZM74.3076 93.12C73.6676 93.12 73.1642 92.8333 72.7976 92.26C72.4376 91.68 72.2576 90.8567 72.2576 89.79C72.2576 88.7167 72.4376 87.9 72.7976 87.34C73.1642 86.78 73.6676 86.5 74.3076 86.5C74.9409 86.5 75.4376 86.78 75.7976 87.34C76.1642 87.9 76.3476 88.7167 76.3476 89.79C76.3476 90.8567 76.1642 91.68 75.7976 92.26C75.4376 92.8333 74.9409 93.12 74.3076 93.12ZM74.3076 92.46C74.6809 92.46 74.9809 92.25 75.2076 91.83C75.4342 91.4033 75.5476 90.7233 75.5476 89.79C75.5476 88.8567 75.4342 88.1867 75.2076 87.78C74.9809 87.3667 74.6809 87.16 74.3076 87.16C73.9342 87.16 73.6309 87.3667 73.3976 87.78C73.1709 88.1867 73.0576 88.8567 73.0576 89.79C73.0576 90.7233 73.1709 91.4033 73.3976 91.83C73.6309 92.25 73.9342 92.46 74.3076 92.46ZM80.0002 90.81V90.18H82.3002V90.81H80.0002ZM86.3977 93V86.44H88.4477C88.8943 86.44 89.291 86.5 89.6377 86.62C89.9843 86.7333 90.2543 86.9267 90.4477 87.2C90.6477 87.4667 90.7477 87.8267 90.7477 88.28C90.7477 88.7867 90.6143 89.1967 90.3477 89.51C90.081 89.8167 89.721 90.0267 89.2677 90.14L90.9377 93H89.9977L88.4177 90.23H87.2277V93H86.3977ZM87.2277 89.55H88.3277C88.841 89.55 89.2343 89.4467 89.5077 89.24C89.781 89.0267 89.9177 88.7067 89.9177 88.28C89.9177 87.8467 89.781 87.5433 89.5077 87.37C89.2343 87.1967 88.841 87.11 88.3277 87.11H87.2277V89.55ZM92.411 95.05V88.14H93.091L93.161 88.7H93.191C93.411 88.5133 93.651 88.3533 93.911 88.22C94.1777 88.0867 94.4544 88.02 94.741 88.02C95.3677 88.02 95.8444 88.2467 96.171 88.7C96.4977 89.1467 96.661 89.7467 96.661 90.5C96.661 91.0467 96.561 91.5167 96.361 91.91C96.1677 92.3033 95.911 92.6033 95.591 92.81C95.2777 93.0167 94.9344 93.12 94.561 93.12C94.3344 93.12 94.1077 93.07 93.881 92.97C93.661 92.87 93.4377 92.7333 93.211 92.56L93.231 93.41V95.05H92.411ZM94.421 92.43C94.821 92.43 95.151 92.26 95.411 91.92C95.6777 91.5733 95.811 91.1 95.811 90.5C95.811 89.9667 95.711 89.5367 95.511 89.21C95.3177 88.8767 94.991 88.71 94.531 88.71C94.3244 88.71 94.1144 88.7667 93.901 88.88C93.6944 88.9933 93.471 89.1567 93.231 89.37V91.92C93.451 92.1067 93.6644 92.24 93.871 92.32C94.0777 92.3933 94.261 92.43 94.421 92.43ZM100.98 90.58H102.98V88.73C102.98 88.5567 102.987 88.35 103 88.11C103.013 87.87 103.023 87.6667 103.03 87.5H102.99C102.91 87.6533 102.827 87.8033 102.74 87.95C102.653 88.0967 102.563 88.2467 102.47 88.4L100.98 90.58ZM102.98 93V91.24H100.11V90.7L102.84 86.62H103.76V90.58H104.63V91.24H103.76V93H102.98ZM106.481 88.55C106.481 88.9633 106.577 89.2933 106.771 89.54C106.971 89.78 107.267 89.9 107.661 89.9C107.874 89.9 108.097 89.8333 108.331 89.7C108.571 89.5667 108.794 89.35 109.001 89.05C108.947 88.43 108.801 87.96 108.561 87.64C108.321 87.3133 107.997 87.15 107.591 87.15C107.284 87.15 107.021 87.28 106.801 87.54C106.587 87.7933 106.481 88.13 106.481 88.55ZM107.361 93.12C107.021 93.12 106.721 93.0567 106.461 92.93C106.207 92.7967 105.994 92.6367 105.821 92.45L106.281 91.93C106.414 92.0833 106.571 92.2067 106.751 92.3C106.937 92.3933 107.131 92.44 107.331 92.44C107.631 92.44 107.907 92.3533 108.161 92.18C108.414 92.0067 108.617 91.72 108.771 91.32C108.931 90.92 109.014 90.38 109.021 89.7C108.821 89.9533 108.587 90.1533 108.321 90.3C108.054 90.4467 107.787 90.52 107.521 90.52C106.974 90.52 106.534 90.3567 106.201 90.03C105.874 89.6967 105.711 89.2033 105.711 88.55C105.711 88.1433 105.797 87.7867 105.971 87.48C106.144 87.1733 106.371 86.9333 106.651 86.76C106.937 86.5867 107.251 86.5 107.591 86.5C108.011 86.5 108.387 86.6133 108.721 86.84C109.054 87.0667 109.314 87.4067 109.501 87.86C109.694 88.3133 109.791 88.8833 109.791 89.57C109.791 90.4233 109.674 91.11 109.441 91.63C109.214 92.15 108.917 92.53 108.551 92.77C108.184 93.0033 107.787 93.12 107.361 93.12ZM111.931 93.12C111.765 93.12 111.621 93.0633 111.501 92.95C111.388 92.83 111.331 92.68 111.331 92.5C111.331 92.3067 111.388 92.1533 111.501 92.04C111.621 91.92 111.765 91.86 111.931 91.86C112.091 91.86 112.228 91.92 112.341 92.04C112.461 92.1533 112.521 92.3067 112.521 92.5C112.521 92.68 112.461 92.83 112.341 92.95C112.228 93.0633 112.091 93.12 111.931 93.12ZM114.741 88.55C114.741 88.9633 114.838 89.2933 115.031 89.54C115.231 89.78 115.528 89.9 115.921 89.9C116.135 89.9 116.358 89.8333 116.591 89.7C116.831 89.5667 117.055 89.35 117.261 89.05C117.208 88.43 117.061 87.96 116.821 87.64C116.581 87.3133 116.258 87.15 115.851 87.15C115.545 87.15 115.281 87.28 115.061 87.54C114.848 87.7933 114.741 88.13 114.741 88.55ZM115.621 93.12C115.281 93.12 114.981 93.0567 114.721 92.93C114.468 92.7967 114.255 92.6367 114.081 92.45L114.541 91.93C114.675 92.0833 114.831 92.2067 115.011 92.3C115.198 92.3933 115.391 92.44 115.591 92.44C115.891 92.44 116.168 92.3533 116.421 92.18C116.675 92.0067 116.878 91.72 117.031 91.32C117.191 90.92 117.275 90.38 117.281 89.7C117.081 89.9533 116.848 90.1533 116.581 90.3C116.315 90.4467 116.048 90.52 115.781 90.52C115.235 90.52 114.795 90.3567 114.461 90.03C114.135 89.6967 113.971 89.2033 113.971 88.55C113.971 88.1433 114.058 87.7867 114.231 87.48C114.405 87.1733 114.631 86.9333 114.911 86.76C115.198 86.5867 115.511 86.5 115.851 86.5C116.271 86.5 116.648 86.6133 116.981 86.84C117.315 87.0667 117.575 87.4067 117.761 87.86C117.955 88.3133 118.051 88.8833 118.051 89.57C118.051 90.4233 117.935 91.11 117.701 91.63C117.475 92.15 117.178 92.53 116.811 92.77C116.445 93.0033 116.048 93.12 115.621 93.12ZM120.112 88.55C120.112 88.9633 120.209 89.2933 120.402 89.54C120.602 89.78 120.899 89.9 121.292 89.9C121.506 89.9 121.729 89.8333 121.962 89.7C122.202 89.5667 122.426 89.35 122.632 89.05C122.579 88.43 122.432 87.96 122.192 87.64C121.952 87.3133 121.629 87.15 121.222 87.15C120.916 87.15 120.652 87.28 120.432 87.54C120.219 87.7933 120.112 88.13 120.112 88.55ZM120.992 93.12C120.652 93.12 120.352 93.0567 120.092 92.93C119.839 92.7967 119.626 92.6367 119.452 92.45L119.912 91.93C120.046 92.0833 120.202 92.2067 120.382 92.3C120.569 92.3933 120.762 92.44 120.962 92.44C121.262 92.44 121.539 92.3533 121.792 92.18C122.046 92.0067 122.249 91.72 122.402 91.32C122.562 90.92 122.646 90.38 122.652 89.7C122.452 89.9533 122.219 90.1533 121.952 90.3C121.686 90.4467 121.419 90.52 121.152 90.52C120.606 90.52 120.166 90.3567 119.832 90.03C119.506 89.6967 119.342 89.2033 119.342 88.55C119.342 88.1433 119.429 87.7867 119.602 87.48C119.776 87.1733 120.002 86.9333 120.282 86.76C120.569 86.5867 120.882 86.5 121.222 86.5C121.642 86.5 122.019 86.6133 122.352 86.84C122.686 87.0667 122.946 87.4067 123.132 87.86C123.326 88.3133 123.422 88.8833 123.422 89.57C123.422 90.4233 123.306 91.11 123.072 91.63C122.846 92.15 122.549 92.53 122.182 92.77C121.816 93.0033 121.419 93.12 120.992 93.12ZM125.483 88.55C125.483 88.9633 125.58 89.2933 125.773 89.54C125.973 89.78 126.27 89.9 126.663 89.9C126.876 89.9 127.1 89.8333 127.333 89.7C127.573 89.5667 127.796 89.35 128.003 89.05C127.95 88.43 127.803 87.96 127.563 87.64C127.323 87.3133 127 87.15 126.593 87.15C126.286 87.15 126.023 87.28 125.803 87.54C125.59 87.7933 125.483 88.13 125.483 88.55ZM126.363 93.12C126.023 93.12 125.723 93.0567 125.463 92.93C125.21 92.7967 124.996 92.6367 124.823 92.45L125.283 91.93C125.416 92.0833 125.573 92.2067 125.753 92.3C125.94 92.3933 126.133 92.44 126.333 92.44C126.633 92.44 126.91 92.3533 127.163 92.18C127.416 92.0067 127.62 91.72 127.773 91.32C127.933 90.92 128.016 90.38 128.023 89.7C127.823 89.9533 127.59 90.1533 127.323 90.3C127.056 90.4467 126.79 90.52 126.523 90.52C125.976 90.52 125.536 90.3567 125.203 90.03C124.876 89.6967 124.713 89.2033 124.713 88.55C124.713 88.1433 124.8 87.7867 124.973 87.48C125.146 87.1733 125.373 86.9333 125.653 86.76C125.94 86.5867 126.253 86.5 126.593 86.5C127.013 86.5 127.39 86.6133 127.723 86.84C128.056 87.0667 128.316 87.4067 128.503 87.86C128.696 88.3133 128.793 88.8833 128.793 89.57C128.793 90.4233 128.676 91.11 128.443 91.63C128.216 92.15 127.92 92.53 127.553 92.77C127.186 93.0033 126.79 93.12 126.363 93.12ZM130.934 93.12C130.767 93.12 130.624 93.0633 130.504 92.95C130.39 92.83 130.334 92.68 130.334 92.5C130.334 92.3067 130.39 92.1533 130.504 92.04C130.624 91.92 130.767 91.86 130.934 91.86C131.094 91.86 131.23 91.92 131.344 92.04C131.464 92.1533 131.524 92.3067 131.524 92.5C131.524 92.68 131.464 92.83 131.344 92.95C131.23 93.0633 131.094 93.12 130.934 93.12ZM133.744 88.55C133.744 88.9633 133.84 89.2933 134.034 89.54C134.234 89.78 134.53 89.9 134.924 89.9C135.137 89.9 135.36 89.8333 135.594 89.7C135.834 89.5667 136.057 89.35 136.264 89.05C136.21 88.43 136.064 87.96 135.824 87.64C135.584 87.3133 135.26 87.15 134.854 87.15C134.547 87.15 134.284 87.28 134.064 87.54C133.85 87.7933 133.744 88.13 133.744 88.55ZM134.624 93.12C134.284 93.12 133.984 93.0567 133.724 92.93C133.47 92.7967 133.257 92.6367 133.084 92.45L133.544 91.93C133.677 92.0833 133.834 92.2067 134.014 92.3C134.2 92.3933 134.394 92.44 134.594 92.44C134.894 92.44 135.17 92.3533 135.424 92.18C135.677 92.0067 135.88 91.72 136.034 91.32C136.194 90.92 136.277 90.38 136.284 89.7C136.084 89.9533 135.85 90.1533 135.584 90.3C135.317 90.4467 135.05 90.52 134.784 90.52C134.237 90.52 133.797 90.3567 133.464 90.03C133.137 89.6967 132.974 89.2033 132.974 88.55C132.974 88.1433 133.06 87.7867 133.234 87.48C133.407 87.1733 133.634 86.9333 133.914 86.76C134.2 86.5867 134.514 86.5 134.854 86.5C135.274 86.5 135.65 86.6133 135.984 86.84C136.317 87.0667 136.577 87.4067 136.764 87.86C136.957 88.3133 137.054 88.8833 137.054 89.57C137.054 90.4233 136.937 91.11 136.704 91.63C136.477 92.15 136.18 92.53 135.814 92.77C135.447 93.0033 135.05 93.12 134.624 93.12ZM139.115 88.55C139.115 88.9633 139.211 89.2933 139.405 89.54C139.605 89.78 139.901 89.9 140.295 89.9C140.508 89.9 140.731 89.8333 140.965 89.7C141.205 89.5667 141.428 89.35 141.635 89.05C141.581 88.43 141.435 87.96 141.195 87.64C140.955 87.3133 140.631 87.15 140.225 87.15C139.918 87.15 139.655 87.28 139.435 87.54C139.221 87.7933 139.115 88.13 139.115 88.55ZM139.995 93.12C139.655 93.12 139.355 93.0567 139.095 92.93C138.841 92.7967 138.628 92.6367 138.455 92.45L138.915 91.93C139.048 92.0833 139.205 92.2067 139.385 92.3C139.571 92.3933 139.765 92.44 139.965 92.44C140.265 92.44 140.541 92.3533 140.795 92.18C141.048 92.0067 141.251 91.72 141.405 91.32C141.565 90.92 141.648 90.38 141.655 89.7C141.455 89.9533 141.221 90.1533 140.955 90.3C140.688 90.4467 140.421 90.52 140.155 90.52C139.608 90.52 139.168 90.3567 138.835 90.03C138.508 89.6967 138.345 89.2033 138.345 88.55C138.345 88.1433 138.431 87.7867 138.605 87.48C138.778 87.1733 139.005 86.9333 139.285 86.76C139.571 86.5867 139.885 86.5 140.225 86.5C140.645 86.5 141.021 86.6133 141.355 86.84C141.688 87.0667 141.948 87.4067 142.135 87.86C142.328 88.3133 142.425 88.8833 142.425 89.57C142.425 90.4233 142.308 91.11 142.075 91.63C141.848 92.15 141.551 92.53 141.185 92.77C140.818 93.0033 140.421 93.12 139.995 93.12ZM144.485 88.55C144.485 88.9633 144.582 89.2933 144.775 89.54C144.975 89.78 145.272 89.9 145.665 89.9C145.879 89.9 146.102 89.8333 146.335 89.7C146.575 89.5667 146.799 89.35 147.005 89.05C146.952 88.43 146.805 87.96 146.565 87.64C146.325 87.3133 146.002 87.15 145.595 87.15C145.289 87.15 145.025 87.28 144.805 87.54C144.592 87.7933 144.485 88.13 144.485 88.55ZM145.365 93.12C145.025 93.12 144.725 93.0567 144.465 92.93C144.212 92.7967 143.999 92.6367 143.825 92.45L144.285 91.93C144.419 92.0833 144.575 92.2067 144.755 92.3C144.942 92.3933 145.135 92.44 145.335 92.44C145.635 92.44 145.912 92.3533 146.165 92.18C146.419 92.0067 146.622 91.72 146.775 91.32C146.935 90.92 147.019 90.38 147.025 89.7C146.825 89.9533 146.592 90.1533 146.325 90.3C146.059 90.4467 145.792 90.52 145.525 90.52C144.979 90.52 144.539 90.3567 144.205 90.03C143.879 89.6967 143.715 89.2033 143.715 88.55C143.715 88.1433 143.802 87.7867 143.975 87.48C144.149 87.1733 144.375 86.9333 144.655 86.76C144.942 86.5867 145.255 86.5 145.595 86.5C146.015 86.5 146.392 86.6133 146.725 86.84C147.059 87.0667 147.319 87.4067 147.505 87.86C147.699 88.3133 147.795 88.8833 147.795 89.57C147.795 90.4233 147.679 91.11 147.445 91.63C147.219 92.15 146.922 92.53 146.555 92.77C146.189 93.0033 145.792 93.12 145.365 93.12Z" fill="#25262B"/>
<path d="M259.167 93V92.32H260.627V87.62H259.467V87.09C259.76 87.0367 260.014 86.9733 260.227 86.9C260.447 86.82 260.644 86.7267 260.817 86.62H261.447V92.32H262.767V93H259.167ZM266.088 93.12C265.581 93.12 265.161 93.03 264.828 92.85C264.495 92.67 264.218 92.47 263.998 92.25L264.398 91.71C264.591 91.8967 264.815 92.0667 265.068 92.22C265.321 92.3667 265.635 92.44 266.008 92.44C266.401 92.44 266.731 92.31 266.998 92.05C267.271 91.7833 267.408 91.4267 267.408 90.98C267.408 90.54 267.285 90.1967 267.038 89.95C266.791 89.7033 266.461 89.58 266.048 89.58C265.828 89.58 265.638 89.6133 265.478 89.68C265.325 89.7467 265.151 89.8433 264.958 89.97L264.518 89.69L264.728 86.62H267.918V87.33H265.448L265.278 89.22C265.431 89.14 265.585 89.0767 265.738 89.03C265.891 88.9833 266.065 88.96 266.258 88.96C266.625 88.96 266.955 89.0333 267.248 89.18C267.548 89.32 267.788 89.5367 267.968 89.83C268.148 90.1233 268.238 90.5 268.238 90.96C268.238 91.42 268.135 91.8133 267.928 92.14C267.728 92.46 267.465 92.7033 267.138 92.87C266.811 93.0367 266.461 93.12 266.088 93.12ZM272.341 93V85.88H273.151V90.7H273.181L275.251 88.14H276.161L274.531 90.09L276.381 93H275.481L274.061 90.66L273.151 91.72V93H272.341ZM278.714 93.12C278.307 93.12 277.967 93 277.694 92.76C277.427 92.5133 277.294 92.1733 277.294 91.74C277.294 91.2067 277.531 90.8 278.004 90.52C278.484 90.2333 279.241 90.0333 280.274 89.92C280.274 89.7133 280.244 89.5167 280.184 89.33C280.131 89.1433 280.031 88.9933 279.884 88.88C279.744 88.76 279.541 88.7 279.274 88.7C278.994 88.7 278.731 88.7533 278.484 88.86C278.237 88.9667 278.017 89.0867 277.824 89.22L277.504 88.65C277.731 88.5033 278.007 88.3633 278.334 88.23C278.667 88.09 279.027 88.02 279.414 88.02C280.007 88.02 280.437 88.2033 280.704 88.57C280.971 88.93 281.104 89.4133 281.104 90.02V93H280.424L280.354 92.42H280.324C280.097 92.6067 279.847 92.77 279.574 92.91C279.307 93.05 279.021 93.12 278.714 93.12ZM278.954 92.46C279.187 92.46 279.407 92.4033 279.614 92.29C279.821 92.1767 280.041 92.0167 280.274 91.81V90.46C279.467 90.56 278.901 90.71 278.574 90.91C278.254 91.11 278.094 91.3667 278.094 91.68C278.094 91.9533 278.177 92.1533 278.344 92.28C278.511 92.4 278.714 92.46 278.954 92.46ZM283.903 93.12C283.596 93.12 283.373 93.0267 283.233 92.84C283.1 92.6467 283.033 92.3733 283.033 92.02V85.88H283.853V92.08C283.853 92.2067 283.876 92.3 283.923 92.36C283.97 92.4133 284.023 92.44 284.083 92.44C284.11 92.44 284.133 92.44 284.153 92.44C284.18 92.4333 284.216 92.4267 284.263 92.42L284.373 93.04C284.32 93.0667 284.256 93.0867 284.183 93.1C284.11 93.1133 284.016 93.12 283.903 93.12ZM285.982 93V88.14H286.802V93H285.982ZM286.402 87.14C286.242 87.14 286.109 87.0933 286.002 87C285.902 86.9 285.852 86.7667 285.852 86.6C285.852 86.44 285.902 86.31 286.002 86.21C286.109 86.11 286.242 86.06 286.402 86.06C286.562 86.06 286.692 86.11 286.792 86.21C286.899 86.31 286.952 86.44 286.952 86.6C286.952 86.7667 286.899 86.9 286.792 87C286.692 87.0933 286.562 87.14 286.402 87.14Z" fill="#25262B"/>
<path d="M14.9 126V119.44H16.95C17.3967 119.44 17.7933 119.5 18.14 119.62C18.4867 119.733 18.7567 119.927 18.95 120.2C19.15 120.467 19.25 120.827 19.25 121.28C19.25 121.787 19.1167 122.197 18.85 122.51C18.5833 122.817 18.2233 123.027 17.77 123.14L19.44 126H18.5L16.92 123.23H15.73V126H14.9ZM15.73 122.55H16.83C17.3433 122.55 17.7367 122.447 18.01 122.24C18.2833 122.027 18.42 121.707 18.42 121.28C18.42 120.847 18.2833 120.543 18.01 120.37C17.7367 120.197 17.3433 120.11 16.83 120.11H15.73V122.55ZM20.9134 128.05V121.14H21.5934L21.6634 121.7H21.6934C21.9134 121.513 22.1534 121.353 22.4134 121.22C22.68 121.087 22.9567 121.02 23.2434 121.02C23.87 121.02 24.3467 121.247 24.6734 121.7C25 122.147 25.1634 122.747 25.1634 123.5C25.1634 124.047 25.0634 124.517 24.8634 124.91C24.67 125.303 24.4134 125.603 24.0934 125.81C23.78 126.017 23.4367 126.12 23.0634 126.12C22.8367 126.12 22.61 126.07 22.3834 125.97C22.1634 125.87 21.94 125.733 21.7134 125.56L21.7334 126.41V128.05H20.9134ZM22.9234 125.43C23.3234 125.43 23.6534 125.26 23.9134 124.92C24.18 124.573 24.3134 124.1 24.3134 123.5C24.3134 122.967 24.2134 122.537 24.0134 122.21C23.82 121.877 23.4934 121.71 23.0334 121.71C22.8267 121.71 22.6167 121.767 22.4034 121.88C22.1967 121.993 21.9734 122.157 21.7334 122.37V124.92C21.9534 125.107 22.1667 125.24 22.3734 125.32C22.58 125.393 22.7634 125.43 22.9234 125.43ZM30.7822 126.12C30.2755 126.12 29.8555 126.03 29.5222 125.85C29.1889 125.67 28.9122 125.47 28.6922 125.25L29.0922 124.71C29.2855 124.897 29.5089 125.067 29.7622 125.22C30.0155 125.367 30.3289 125.44 30.7022 125.44C31.0955 125.44 31.4255 125.31 31.6922 125.05C31.9655 124.783 32.1022 124.427 32.1022 123.98C32.1022 123.54 31.9789 123.197 31.7322 122.95C31.4855 122.703 31.1555 122.58 30.7422 122.58C30.5222 122.58 30.3322 122.613 30.1722 122.68C30.0189 122.747 29.8455 122.843 29.6522 122.97L29.2122 122.69L29.4222 119.62H32.6122V120.33H30.1422L29.9722 122.22C30.1255 122.14 30.2789 122.077 30.4322 122.03C30.5855 121.983 30.7589 121.96 30.9522 121.96C31.3189 121.96 31.6489 122.033 31.9422 122.18C32.2422 122.32 32.4822 122.537 32.6622 122.83C32.8422 123.123 32.9322 123.5 32.9322 123.96C32.9322 124.42 32.8289 124.813 32.6222 125.14C32.4222 125.46 32.1589 125.703 31.8322 125.87C31.5055 126.037 31.1555 126.12 30.7822 126.12ZM36.3029 126.12C35.6629 126.12 35.1596 125.833 34.7929 125.26C34.4329 124.68 34.2529 123.857 34.2529 122.79C34.2529 121.717 34.4329 120.9 34.7929 120.34C35.1596 119.78 35.6629 119.5 36.3029 119.5C36.9362 119.5 37.4329 119.78 37.7929 120.34C38.1596 120.9 38.3429 121.717 38.3429 122.79C38.3429 123.857 38.1596 124.68 37.7929 125.26C37.4329 125.833 36.9362 126.12 36.3029 126.12ZM36.3029 125.46C36.6762 125.46 36.9762 125.25 37.2029 124.83C37.4296 124.403 37.5429 123.723 37.5429 122.79C37.5429 121.857 37.4296 121.187 37.2029 120.78C36.9762 120.367 36.6762 120.16 36.3029 120.16C35.9296 120.16 35.6262 120.367 35.3929 120.78C35.1662 121.187 35.0529 121.857 35.0529 122.79C35.0529 123.723 35.1662 124.403 35.3929 124.83C35.6262 125.25 35.9296 125.46 36.3029 125.46ZM40.4336 126.12C40.2669 126.12 40.1236 126.063 40.0036 125.95C39.8903 125.83 39.8336 125.68 39.8336 125.5C39.8336 125.307 39.8903 125.153 40.0036 125.04C40.1236 124.92 40.2669 124.86 40.4336 124.86C40.5936 124.86 40.7303 124.92 40.8436 125.04C40.9636 125.153 41.0236 125.307 41.0236 125.5C41.0236 125.68 40.9636 125.83 40.8436 125.95C40.7303 126.063 40.5936 126.12 40.4336 126.12ZM44.5638 126.12C43.9238 126.12 43.4205 125.833 43.0538 125.26C42.6938 124.68 42.5138 123.857 42.5138 122.79C42.5138 121.717 42.6938 120.9 43.0538 120.34C43.4205 119.78 43.9238 119.5 44.5638 119.5C45.1972 119.5 45.6938 119.78 46.0538 120.34C46.4205 120.9 46.6038 121.717 46.6038 122.79C46.6038 123.857 46.4205 124.68 46.0538 125.26C45.6938 125.833 45.1972 126.12 44.5638 126.12ZM44.5638 125.46C44.9372 125.46 45.2372 125.25 45.4638 124.83C45.6905 124.403 45.8038 123.723 45.8038 122.79C45.8038 121.857 45.6905 121.187 45.4638 120.78C45.2372 120.367 44.9372 120.16 44.5638 120.16C44.1905 120.16 43.8872 120.367 43.6538 120.78C43.4272 121.187 43.3138 121.857 43.3138 122.79C43.3138 123.723 43.4272 124.403 43.6538 124.83C43.8872 125.25 44.1905 125.46 44.5638 125.46ZM49.9345 126.12C49.2945 126.12 48.7912 125.833 48.4245 125.26C48.0645 124.68 47.8845 123.857 47.8845 122.79C47.8845 121.717 48.0645 120.9 48.4245 120.34C48.7912 119.78 49.2945 119.5 49.9345 119.5C50.5679 119.5 51.0645 119.78 51.4245 120.34C51.7912 120.9 51.9745 121.717 51.9745 122.79C51.9745 123.857 51.7912 124.68 51.4245 125.26C51.0645 125.833 50.5679 126.12 49.9345 126.12ZM49.9345 125.46C50.3079 125.46 50.6079 125.25 50.8345 124.83C51.0612 124.403 51.1745 123.723 51.1745 122.79C51.1745 121.857 51.0612 121.187 50.8345 120.78C50.6079 120.367 50.3079 120.16 49.9345 120.16C49.5612 120.16 49.2579 120.367 49.0245 120.78C48.7979 121.187 48.6845 121.857 48.6845 122.79C48.6845 123.723 48.7979 124.403 49.0245 124.83C49.2579 125.25 49.5612 125.46 49.9345 125.46ZM55.3052 126.12C54.6652 126.12 54.1619 125.833 53.7952 125.26C53.4352 124.68 53.2552 123.857 53.2552 122.79C53.2552 121.717 53.4352 120.9 53.7952 120.34C54.1619 119.78 54.6652 119.5 55.3052 119.5C55.9386 119.5 56.4352 119.78 56.7952 120.34C57.1619 120.9 57.3452 121.717 57.3452 122.79C57.3452 123.857 57.1619 124.68 56.7952 125.26C56.4352 125.833 55.9386 126.12 55.3052 126.12ZM55.3052 125.46C55.6786 125.46 55.9786 125.25 56.2052 124.83C56.4319 124.403 56.5452 123.723 56.5452 122.79C56.5452 121.857 56.4319 121.187 56.2052 120.78C55.9786 120.367 55.6786 120.16 55.3052 120.16C54.9319 120.16 54.6286 120.367 54.3952 120.78C54.1686 121.187 54.0552 121.857 54.0552 122.79C54.0552 123.723 54.1686 124.403 54.3952 124.83C54.6286 125.25 54.9319 125.46 55.3052 125.46ZM59.4359 126.12C59.2693 126.12 59.1259 126.063 59.0059 125.95C58.8926 125.83 58.8359 125.68 58.8359 125.5C58.8359 125.307 58.8926 125.153 59.0059 125.04C59.1259 124.92 59.2693 124.86 59.4359 124.86C59.5959 124.86 59.7326 124.92 59.8459 125.04C59.9659 125.153 60.0259 125.307 60.0259 125.5C60.0259 125.68 59.9659 125.83 59.8459 125.95C59.7326 126.063 59.5959 126.12 59.4359 126.12ZM63.5662 126.12C62.9262 126.12 62.4228 125.833 62.0562 125.26C61.6962 124.68 61.5162 123.857 61.5162 122.79C61.5162 121.717 61.6962 120.9 62.0562 120.34C62.4228 119.78 62.9262 119.5 63.5662 119.5C64.1995 119.5 64.6962 119.78 65.0562 120.34C65.4228 120.9 65.6062 121.717 65.6062 122.79C65.6062 123.857 65.4228 124.68 65.0562 125.26C64.6962 125.833 64.1995 126.12 63.5662 126.12ZM63.5662 125.46C63.9395 125.46 64.2395 125.25 64.4662 124.83C64.6928 124.403 64.8062 123.723 64.8062 122.79C64.8062 121.857 64.6928 121.187 64.4662 120.78C64.2395 120.367 63.9395 120.16 63.5662 120.16C63.1928 120.16 62.8895 120.367 62.6562 120.78C62.4295 121.187 62.3162 121.857 62.3162 122.79C62.3162 123.723 62.4295 124.403 62.6562 124.83C62.8895 125.25 63.1928 125.46 63.5662 125.46ZM68.9369 126.12C68.2969 126.12 67.7935 125.833 67.4269 125.26C67.0669 124.68 66.8869 123.857 66.8869 122.79C66.8869 121.717 67.0669 120.9 67.4269 120.34C67.7935 119.78 68.2969 119.5 68.9369 119.5C69.5702 119.5 70.0669 119.78 70.4269 120.34C70.7935 120.9 70.9769 121.717 70.9769 122.79C70.9769 123.857 70.7935 124.68 70.4269 125.26C70.0669 125.833 69.5702 126.12 68.9369 126.12ZM68.9369 125.46C69.3102 125.46 69.6102 125.25 69.8369 124.83C70.0635 124.403 70.1769 123.723 70.1769 122.79C70.1769 121.857 70.0635 121.187 69.8369 120.78C69.6102 120.367 69.3102 120.16 68.9369 120.16C68.5635 120.16 68.2602 120.367 68.0269 120.78C67.8002 121.187 67.6869 121.857 67.6869 122.79C67.6869 123.723 67.8002 124.403 68.0269 124.83C68.2602 125.25 68.5635 125.46 68.9369 125.46ZM74.3076 126.12C73.6676 126.12 73.1642 125.833 72.7976 125.26C72.4376 124.68 72.2576 123.857 72.2576 122.79C72.2576 121.717 72.4376 120.9 72.7976 120.34C73.1642 119.78 73.6676 119.5 74.3076 119.5C74.9409 119.5 75.4376 119.78 75.7976 120.34C76.1642 120.9 76.3476 121.717 76.3476 122.79C76.3476 123.857 76.1642 124.68 75.7976 125.26C75.4376 125.833 74.9409 126.12 74.3076 126.12ZM74.3076 125.46C74.6809 125.46 74.9809 125.25 75.2076 124.83C75.4342 124.403 75.5476 123.723 75.5476 122.79C75.5476 121.857 75.4342 121.187 75.2076 120.78C74.9809 120.367 74.6809 120.16 74.3076 120.16C73.9342 120.16 73.6309 120.367 73.3976 120.78C73.1709 121.187 73.0576 121.857 73.0576 122.79C73.0576 123.723 73.1709 124.403 73.3976 124.83C73.6309 125.25 73.9342 125.46 74.3076 125.46ZM80.0002 123.81V123.18H82.3002V123.81H80.0002ZM87.5877 126.12C87.241 126.12 86.911 126.057 86.5977 125.93C86.2843 125.797 86.011 125.637 85.7777 125.45L86.1877 124.9C86.401 125.067 86.621 125.207 86.8477 125.32C87.0743 125.427 87.331 125.48 87.6177 125.48C87.9377 125.48 88.1777 125.407 88.3377 125.26C88.4977 125.107 88.5777 124.927 88.5777 124.72C88.5777 124.553 88.521 124.413 88.4077 124.3C88.301 124.187 88.161 124.093 87.9877 124.02C87.821 123.94 87.6477 123.867 87.4677 123.8C87.241 123.713 87.0177 123.617 86.7977 123.51C86.5777 123.397 86.3977 123.253 86.2577 123.08C86.1177 122.9 86.0477 122.673 86.0477 122.4C86.0477 122.007 86.1943 121.68 86.4877 121.42C86.7877 121.153 87.201 121.02 87.7277 121.02C88.0277 121.02 88.3077 121.073 88.5677 121.18C88.8277 121.287 89.051 121.417 89.2377 121.57L88.8377 122.09C88.671 121.963 88.4977 121.86 88.3177 121.78C88.1377 121.7 87.941 121.66 87.7277 121.66C87.421 121.66 87.1943 121.73 87.0477 121.87C86.9077 122.01 86.8377 122.173 86.8377 122.36C86.8377 122.513 86.8877 122.64 86.9877 122.74C87.0877 122.833 87.2177 122.917 87.3777 122.99C87.5377 123.057 87.7077 123.127 87.8877 123.2C88.121 123.287 88.351 123.387 88.5777 123.5C88.8043 123.607 88.991 123.753 89.1377 123.94C89.291 124.12 89.3677 124.363 89.3677 124.67C89.3677 124.93 89.2977 125.17 89.1577 125.39C89.0243 125.61 88.8243 125.787 88.5577 125.92C88.2977 126.053 87.9743 126.12 87.5877 126.12ZM92.8771 126.12C92.4438 126.12 92.0504 126.02 91.6971 125.82C91.3438 125.613 91.0638 125.32 90.8571 124.94C90.6504 124.56 90.5471 124.107 90.5471 123.58C90.5471 123.047 90.6504 122.59 90.8571 122.21C91.0704 121.83 91.3438 121.537 91.6771 121.33C92.0104 121.123 92.3604 121.02 92.7271 121.02C93.3471 121.02 93.8238 121.227 94.1571 121.64C94.4971 122.053 94.6671 122.607 94.6671 123.3C94.6671 123.387 94.6638 123.473 94.6571 123.56C94.6571 123.64 94.6504 123.71 94.6371 123.77H91.3571C91.3904 124.283 91.5504 124.693 91.8371 125C92.1304 125.307 92.5104 125.46 92.9771 125.46C93.2104 125.46 93.4238 125.427 93.6171 125.36C93.8171 125.287 94.0071 125.193 94.1871 125.08L94.4771 125.62C94.2704 125.753 94.0338 125.87 93.7671 125.97C93.5071 126.07 93.2104 126.12 92.8771 126.12ZM91.3471 123.18H93.9471C93.9471 122.687 93.8404 122.313 93.6271 122.06C93.4204 121.8 93.1271 121.67 92.7471 121.67C92.4071 121.67 92.1004 121.803 91.8271 122.07C91.5604 122.33 91.4004 122.7 91.3471 123.18ZM97.7004 126.12C97.1804 126.12 96.8171 125.97 96.6104 125.67C96.4104 125.37 96.3104 124.98 96.3104 124.5V121.81H95.5904V121.19L96.3504 121.14L96.4504 119.78H97.1404V121.14H98.4504V121.81H97.1404V124.51C97.1404 124.81 97.1937 125.043 97.3004 125.21C97.4137 125.37 97.6104 125.45 97.8904 125.45C97.9771 125.45 98.0704 125.437 98.1704 125.41C98.2704 125.377 98.3604 125.347 98.4404 125.32L98.6004 125.94C98.4671 125.987 98.3204 126.027 98.1604 126.06C98.0071 126.1 97.8537 126.12 97.7004 126.12ZM101.783 126.12C101.349 126.12 100.956 126.02 100.603 125.82C100.249 125.613 99.9692 125.32 99.7626 124.94C99.5559 124.56 99.4526 124.107 99.4526 123.58C99.4526 123.047 99.5559 122.59 99.7626 122.21C99.9759 121.83 100.249 121.537 100.583 121.33C100.916 121.123 101.266 121.02 101.633 121.02C102.253 121.02 102.729 121.227 103.063 121.64C103.403 122.053 103.573 122.607 103.573 123.3C103.573 123.387 103.569 123.473 103.563 123.56C103.563 123.64 103.556 123.71 103.543 123.77H100.263C100.296 124.283 100.456 124.693 100.743 125C101.036 125.307 101.416 125.46 101.883 125.46C102.116 125.46 102.329 125.427 102.523 125.36C102.723 125.287 102.913 125.193 103.093 125.08L103.383 125.62C103.176 125.753 102.939 125.87 102.673 125.97C102.413 126.07 102.116 126.12 101.783 126.12ZM100.253 123.18H102.853C102.853 122.687 102.746 122.313 102.533 122.06C102.326 121.8 102.033 121.67 101.653 121.67C101.313 121.67 101.006 121.803 100.733 122.07C100.466 122.33 100.306 122.7 100.253 123.18ZM105.174 126V121.14H105.854L105.924 122.02H105.954C106.12 121.713 106.324 121.47 106.564 121.29C106.804 121.11 107.06 121.02 107.334 121.02C107.527 121.02 107.7 121.053 107.854 121.12L107.694 121.84C107.614 121.813 107.54 121.793 107.474 121.78C107.407 121.767 107.324 121.76 107.224 121.76C107.017 121.76 106.8 121.843 106.574 122.01C106.354 122.177 106.16 122.467 105.994 122.88V126H105.174ZM110.46 126.12C109.947 126.12 109.57 125.96 109.33 125.64C109.09 125.313 108.97 124.84 108.97 124.22V121.14H109.8V124.11C109.8 124.563 109.87 124.893 110.01 125.1C110.157 125.307 110.39 125.41 110.71 125.41C110.964 125.41 111.187 125.347 111.38 125.22C111.58 125.087 111.794 124.877 112.02 124.59V121.14H112.84V126H112.16L112.09 125.24H112.06C111.834 125.507 111.594 125.72 111.34 125.88C111.087 126.04 110.794 126.12 110.46 126.12ZM116.15 126.12C115.803 126.12 115.473 126.057 115.16 125.93C114.846 125.797 114.573 125.637 114.34 125.45L114.75 124.9C114.963 125.067 115.183 125.207 115.41 125.32C115.636 125.427 115.893 125.48 116.18 125.48C116.5 125.48 116.74 125.407 116.9 125.26C117.06 125.107 117.14 124.927 117.14 124.72C117.14 124.553 117.083 124.413 116.97 124.3C116.863 124.187 116.723 124.093 116.55 124.02C116.383 123.94 116.21 123.867 116.03 123.8C115.803 123.713 115.58 123.617 115.36 123.51C115.14 123.397 114.96 123.253 114.82 123.08C114.68 122.9 114.61 122.673 114.61 122.4C114.61 122.007 114.756 121.68 115.05 121.42C115.35 121.153 115.763 121.02 116.29 121.02C116.59 121.02 116.87 121.073 117.13 121.18C117.39 121.287 117.613 121.417 117.8 121.57L117.4 122.09C117.233 121.963 117.06 121.86 116.88 121.78C116.7 121.7 116.503 121.66 116.29 121.66C115.983 121.66 115.756 121.73 115.61 121.87C115.47 122.01 115.4 122.173 115.4 122.36C115.4 122.513 115.45 122.64 115.55 122.74C115.65 122.833 115.78 122.917 115.94 122.99C116.1 123.057 116.27 123.127 116.45 123.2C116.683 123.287 116.913 123.387 117.14 123.5C117.366 123.607 117.553 123.753 117.7 123.94C117.853 124.12 117.93 124.363 117.93 124.67C117.93 124.93 117.86 125.17 117.72 125.39C117.586 125.61 117.386 125.787 117.12 125.92C116.86 126.053 116.536 126.12 116.15 126.12ZM119.469 126V121.14H120.149L120.219 121.84H120.249C120.483 121.607 120.729 121.413 120.989 121.26C121.249 121.1 121.546 121.02 121.879 121.02C122.393 121.02 122.766 121.183 122.999 121.51C123.239 121.83 123.359 122.3 123.359 122.92V126H122.539V123.03C122.539 122.577 122.466 122.247 122.319 122.04C122.173 121.833 121.939 121.73 121.619 121.73C121.373 121.73 121.149 121.793 120.949 121.92C120.756 122.047 120.536 122.233 120.289 122.48V126H119.469ZM125.418 128.09C125.311 128.09 125.208 128.08 125.108 128.06C125.015 128.04 124.928 128.017 124.848 127.99L125.008 127.34C125.061 127.353 125.121 127.367 125.188 127.38C125.255 127.4 125.318 127.41 125.378 127.41C125.651 127.41 125.878 127.31 126.058 127.11C126.238 126.917 126.378 126.67 126.478 126.37L126.588 126.01L124.638 121.14H125.488L126.478 123.83C126.551 124.037 126.628 124.26 126.708 124.5C126.795 124.74 126.875 124.973 126.948 125.2H126.988C127.061 124.98 127.131 124.75 127.198 124.51C127.265 124.27 127.331 124.043 127.398 123.83L128.268 121.14H129.068L127.238 126.4C127.125 126.72 126.988 127.007 126.828 127.26C126.675 127.513 126.481 127.713 126.248 127.86C126.021 128.013 125.745 128.09 125.418 128.09ZM131.331 126.12C130.924 126.12 130.584 126 130.311 125.76C130.044 125.513 129.911 125.173 129.911 124.74C129.911 124.207 130.147 123.8 130.621 123.52C131.101 123.233 131.857 123.033 132.891 122.92C132.891 122.713 132.861 122.517 132.801 122.33C132.747 122.143 132.647 121.993 132.501 121.88C132.361 121.76 132.157 121.7 131.891 121.7C131.611 121.7 131.347 121.753 131.101 121.86C130.854 121.967 130.634 122.087 130.441 122.22L130.121 121.65C130.347 121.503 130.624 121.363 130.951 121.23C131.284 121.09 131.644 121.02 132.031 121.02C132.624 121.02 133.054 121.203 133.321 121.57C133.587 121.93 133.721 122.413 133.721 123.02V126H133.041L132.971 125.42H132.941C132.714 125.607 132.464 125.77 132.191 125.91C131.924 126.05 131.637 126.12 131.331 126.12ZM131.571 125.46C131.804 125.46 132.024 125.403 132.231 125.29C132.437 125.177 132.657 125.017 132.891 124.81V123.46C132.084 123.56 131.517 123.71 131.191 123.91C130.871 124.11 130.711 124.367 130.711 124.68C130.711 124.953 130.794 125.153 130.961 125.28C131.127 125.4 131.331 125.46 131.571 125.46Z" fill="#25262B"/>
<path d="M258.777 126V125.51C259.417 124.87 259.96 124.31 260.407 123.83C260.854 123.343 261.194 122.907 261.427 122.52C261.66 122.127 261.777 121.76 261.777 121.42C261.777 121.053 261.677 120.753 261.477 120.52C261.277 120.287 260.974 120.17 260.567 120.17C260.3 120.17 260.054 120.247 259.827 120.4C259.6 120.547 259.394 120.727 259.207 120.94L258.737 120.47C259.004 120.177 259.287 119.943 259.587 119.77C259.894 119.59 260.254 119.5 260.667 119.5C261.26 119.5 261.727 119.673 262.067 120.02C262.407 120.36 262.577 120.813 262.577 121.38C262.577 121.78 262.464 122.187 262.237 122.6C262.017 123.007 261.71 123.437 261.317 123.89C260.93 124.337 260.484 124.823 259.977 125.35C260.15 125.337 260.33 125.323 260.517 125.31C260.704 125.297 260.88 125.29 261.047 125.29H262.897V126H258.777ZM266.238 126.12C265.598 126.12 265.095 125.833 264.728 125.26C264.368 124.68 264.188 123.857 264.188 122.79C264.188 121.717 264.368 120.9 264.728 120.34C265.095 119.78 265.598 119.5 266.238 119.5C266.871 119.5 267.368 119.78 267.728 120.34C268.095 120.9 268.278 121.717 268.278 122.79C268.278 123.857 268.095 124.68 267.728 125.26C267.368 125.833 266.871 126.12 266.238 126.12ZM266.238 125.46C266.611 125.46 266.911 125.25 267.138 124.83C267.365 124.403 267.478 123.723 267.478 122.79C267.478 121.857 267.365 121.187 267.138 120.78C266.911 120.367 266.611 120.16 266.238 120.16C265.865 120.16 265.561 120.367 265.328 120.78C265.101 121.187 264.988 121.857 264.988 122.79C264.988 123.723 265.101 124.403 265.328 124.83C265.561 125.25 265.865 125.46 266.238 125.46ZM272.341 126V118.88H273.151V123.7H273.181L275.251 121.14H276.161L274.531 123.09L276.381 126H275.481L274.061 123.66L273.151 124.72V126H272.341ZM278.714 126.12C278.307 126.12 277.967 126 277.694 125.76C277.427 125.513 277.294 125.173 277.294 124.74C277.294 124.207 277.531 123.8 278.004 123.52C278.484 123.233 279.241 123.033 280.274 122.92C280.274 122.713 280.244 122.517 280.184 122.33C280.131 122.143 280.031 121.993 279.884 121.88C279.744 121.76 279.541 121.7 279.274 121.7C278.994 121.7 278.731 121.753 278.484 121.86C278.237 121.967 278.017 122.087 277.824 122.22L277.504 121.65C277.731 121.503 278.007 121.363 278.334 121.23C278.667 121.09 279.027 121.02 279.414 121.02C280.007 121.02 280.437 121.203 280.704 121.57C280.971 121.93 281.104 122.413 281.104 123.02V126H280.424L280.354 125.42H280.324C280.097 125.607 279.847 125.77 279.574 125.91C279.307 126.05 279.021 126.12 278.714 126.12ZM278.954 125.46C279.187 125.46 279.407 125.403 279.614 125.29C279.821 125.177 280.041 125.017 280.274 124.81V123.46C279.467 123.56 278.901 123.71 278.574 123.91C278.254 124.11 278.094 124.367 278.094 124.68C278.094 124.953 278.177 125.153 278.344 125.28C278.511 125.4 278.714 125.46 278.954 125.46ZM283.903 126.12C283.596 126.12 283.373 126.027 283.233 125.84C283.1 125.647 283.033 125.373 283.033 125.02V118.88H283.853V125.08C283.853 125.207 283.876 125.3 283.923 125.36C283.97 125.413 284.023 125.44 284.083 125.44C284.11 125.44 284.133 125.44 284.153 125.44C284.18 125.433 284.216 125.427 284.263 125.42L284.373 126.04C284.32 126.067 284.256 126.087 284.183 126.1C284.11 126.113 284.016 126.12 283.903 126.12ZM285.982 126V121.14H286.802V126H285.982ZM286.402 120.14C286.242 120.14 286.109 120.093 286.002 120C285.902 119.9 285.852 119.767 285.852 119.6C285.852 119.44 285.902 119.31 286.002 119.21C286.109 119.11 286.242 119.06 286.402 119.06C286.562 119.06 286.692 119.11 286.792 119.21C286.899 119.31 286.952 119.44 286.952 119.6C286.952 119.767 286.899 119.9 286.792 120C286.692 120.093 286.562 120.14 286.402 120.14Z" fill="#25262B"/>
<mask id="mask0_1417_154157" style="mask-type:alpha" maskUnits="userSpaceOnUse" x="0" y="0" width="322" height="138">
<rect x="0.5" y="0.5" width="321" height="137" fill="white" stroke="#E7EEF6"/>
</mask>
<g mask="url(#mask0_1417_154157)">
<rect width="322" height="40" fill="#E7EEF6"/>
<path d="M16.72 23.12C16.26 23.12 15.8333 23.0333 15.44 22.86C15.0467 22.68 14.7067 22.4433 14.42 22.15L14.92 21.57C15.1533 21.8167 15.4267 22.0167 15.74 22.17C16.06 22.3167 16.39 22.39 16.73 22.39C17.1633 22.39 17.5 22.2933 17.74 22.1C17.98 21.9 18.1 21.64 18.1 21.32C18.1 21.0933 18.05 20.9133 17.95 20.78C17.8567 20.6467 17.7267 20.5333 17.56 20.44C17.4 20.3467 17.2167 20.2533 17.01 20.16L16.07 19.75C15.8633 19.6633 15.6567 19.55 15.45 19.41C15.25 19.27 15.08 19.09 14.94 18.87C14.8067 18.65 14.74 18.38 14.74 18.06C14.74 17.7267 14.8267 17.43 15 17.17C15.18 16.9033 15.4267 16.6967 15.74 16.55C16.0533 16.3967 16.4067 16.32 16.8 16.32C17.1933 16.32 17.5567 16.3967 17.89 16.55C18.2233 16.6967 18.5067 16.89 18.74 17.13L18.29 17.67C18.09 17.4767 17.8667 17.3267 17.62 17.22C17.38 17.1067 17.1067 17.05 16.8 17.05C16.4333 17.05 16.1367 17.1367 15.91 17.31C15.69 17.4833 15.58 17.7167 15.58 18.01C15.58 18.2167 15.6333 18.39 15.74 18.53C15.8533 18.6633 15.9933 18.7733 16.16 18.86C16.3267 18.9467 16.4967 19.0267 16.67 19.1L17.6 19.5C17.8533 19.6067 18.08 19.7367 18.28 19.89C18.4867 20.0367 18.65 20.22 18.77 20.44C18.89 20.6533 18.95 20.9233 18.95 21.25C18.95 21.5967 18.86 21.9133 18.68 22.2C18.5 22.48 18.2433 22.7033 17.91 22.87C17.5767 23.0367 17.18 23.12 16.72 23.12ZM21.6818 23.12C21.2751 23.12 20.9351 23 20.6618 22.76C20.3951 22.5133 20.2618 22.1733 20.2618 21.74C20.2618 21.2067 20.4985 20.8 20.9718 20.52C21.4518 20.2333 22.2085 20.0333 23.2418 19.92C23.2418 19.7133 23.2118 19.5167 23.1518 19.33C23.0985 19.1433 22.9985 18.9933 22.8518 18.88C22.7118 18.76 22.5085 18.7 22.2418 18.7C21.9618 18.7 21.6985 18.7533 21.4518 18.86C21.2051 18.9667 20.9851 19.0867 20.7918 19.22L20.4718 18.65C20.6985 18.5033 20.9751 18.3633 21.3018 18.23C21.6351 18.09 21.9951 18.02 22.3818 18.02C22.9751 18.02 23.4051 18.2033 23.6718 18.57C23.9385 18.93 24.0718 19.4133 24.0718 20.02V23H23.3918L23.3218 22.42H23.2918C23.0651 22.6067 22.8151 22.77 22.5418 22.91C22.2751 23.05 21.9885 23.12 21.6818 23.12ZM21.9218 22.46C22.1551 22.46 22.3751 22.4033 22.5818 22.29C22.7885 22.1767 23.0085 22.0167 23.2418 21.81V20.46C22.4351 20.56 21.8685 20.71 21.5418 20.91C21.2218 21.11 21.0618 21.3667 21.0618 21.68C21.0618 21.9533 21.1451 22.1533 21.3118 22.28C21.4785 22.4 21.6818 22.46 21.9218 22.46ZM26.8709 23.12C26.5642 23.12 26.3409 23.0267 26.2009 22.84C26.0675 22.6467 26.0009 22.3733 26.0009 22.02V15.88H26.8209V22.08C26.8209 22.2067 26.8442 22.3 26.8909 22.36C26.9375 22.4133 26.9909 22.44 27.0509 22.44C27.0775 22.44 27.1009 22.44 27.1209 22.44C27.1475 22.4333 27.1842 22.4267 27.2309 22.42L27.3409 23.04C27.2875 23.0667 27.2242 23.0867 27.1509 23.1C27.0775 23.1133 26.9842 23.12 26.8709 23.12ZM30.6097 23.12C30.003 23.12 29.5164 22.9 29.1497 22.46C28.783 22.0133 28.5997 21.3867 28.5997 20.58C28.5997 20.0533 28.6964 19.6 28.8897 19.22C29.0897 18.8333 29.3497 18.5367 29.6697 18.33C29.9964 18.1233 30.343 18.02 30.7097 18.02C30.9897 18.02 31.233 18.07 31.4397 18.17C31.6464 18.27 31.8564 18.4067 32.0697 18.58L32.0297 17.75V15.88H32.8597V23H32.1797L32.1097 22.43H32.0797C31.893 22.6167 31.673 22.78 31.4197 22.92C31.1664 23.0533 30.8964 23.12 30.6097 23.12ZM30.7897 22.43C31.2164 22.43 31.6297 22.2067 32.0297 21.76V19.22C31.823 19.0333 31.623 18.9033 31.4297 18.83C31.243 18.75 31.0497 18.71 30.8497 18.71C30.5897 18.71 30.353 18.79 30.1397 18.95C29.933 19.1033 29.7664 19.32 29.6397 19.6C29.513 19.8733 29.4497 20.1967 29.4497 20.57C29.4497 21.15 29.5664 21.6067 29.7997 21.94C30.033 22.2667 30.363 22.43 30.7897 22.43ZM36.7866 23.12C36.3932 23.12 36.0232 23.02 35.6766 22.82C35.3366 22.62 35.0599 22.33 34.8466 21.95C34.6399 21.57 34.5366 21.1133 34.5366 20.58C34.5366 20.0333 34.6399 19.57 34.8466 19.19C35.0599 18.81 35.3366 18.52 35.6766 18.32C36.0232 18.12 36.3932 18.02 36.7866 18.02C37.1866 18.02 37.5566 18.12 37.8966 18.32C38.2366 18.52 38.5099 18.81 38.7166 19.19C38.9299 19.57 39.0366 20.0333 39.0366 20.58C39.0366 21.1133 38.9299 21.57 38.7166 21.95C38.5099 22.33 38.2366 22.62 37.8966 22.82C37.5566 23.02 37.1866 23.12 36.7866 23.12ZM36.7866 22.44C37.2066 22.44 37.5432 22.27 37.7966 21.93C38.0566 21.5833 38.1866 21.1333 38.1866 20.58C38.1866 20.02 38.0566 19.5667 37.7966 19.22C37.5432 18.8733 37.2066 18.7 36.7866 18.7C36.3732 18.7 36.0366 18.8733 35.7766 19.22C35.5166 19.5667 35.3866 20.02 35.3866 20.58C35.3866 21.1333 35.5166 21.5833 35.7766 21.93C36.0366 22.27 36.3732 22.44 36.7866 22.44ZM43.1184 23V18.14H43.7984L43.8684 19.02H43.8984C44.0651 18.7133 44.2684 18.47 44.5084 18.29C44.7484 18.11 45.0051 18.02 45.2784 18.02C45.4718 18.02 45.6451 18.0533 45.7984 18.12L45.6384 18.84C45.5584 18.8133 45.4851 18.7933 45.4184 18.78C45.3518 18.7667 45.2684 18.76 45.1684 18.76C44.9618 18.76 44.7451 18.8433 44.5184 19.01C44.2984 19.1767 44.1051 19.4667 43.9384 19.88V23H43.1184ZM47.8611 23.12C47.4544 23.12 47.1144 23 46.8411 22.76C46.5744 22.5133 46.4411 22.1733 46.4411 21.74C46.4411 21.2067 46.6778 20.8 47.1511 20.52C47.6311 20.2333 48.3878 20.0333 49.4211 19.92C49.4211 19.7133 49.3911 19.5167 49.3311 19.33C49.2778 19.1433 49.1778 18.9933 49.0311 18.88C48.8911 18.76 48.6878 18.7 48.4211 18.7C48.1411 18.7 47.8778 18.7533 47.6311 18.86C47.3844 18.9667 47.1644 19.0867 46.9711 19.22L46.6511 18.65C46.8778 18.5033 47.1544 18.3633 47.4811 18.23C47.8144 18.09 48.1744 18.02 48.5611 18.02C49.1544 18.02 49.5844 18.2033 49.8511 18.57C50.1178 18.93 50.2511 19.4133 50.2511 20.02V23H49.5711L49.5011 22.42H49.4711C49.2444 22.6067 48.9944 22.77 48.7211 22.91C48.4544 23.05 48.1678 23.12 47.8611 23.12ZM48.1011 22.46C48.3344 22.46 48.5544 22.4033 48.7611 22.29C48.9678 22.1767 49.1878 22.0167 49.4211 21.81V20.46C48.6144 20.56 48.0478 20.71 47.7211 20.91C47.4011 21.11 47.2411 21.3667 47.2411 21.68C47.2411 21.9533 47.3244 22.1533 47.4911 22.28C47.6578 22.4 47.8611 22.46 48.1011 22.46ZM53.5734 23.12C53.0534 23.12 52.6901 22.97 52.4834 22.67C52.2834 22.37 52.1834 21.98 52.1834 21.5V18.81H51.4634V18.19L52.2234 18.14L52.3234 16.78H53.0134V18.14H54.3234V18.81H53.0134V21.51C53.0134 21.81 53.0668 22.0433 53.1734 22.21C53.2868 22.37 53.4834 22.45 53.7634 22.45C53.8501 22.45 53.9434 22.4367 54.0434 22.41C54.1434 22.3767 54.2334 22.3467 54.3134 22.32L54.4734 22.94C54.3401 22.9867 54.1934 23.0267 54.0334 23.06C53.8801 23.1 53.7268 23.12 53.5734 23.12ZM56.7275 23.12C56.3208 23.12 55.9808 23 55.7075 22.76C55.4408 22.5133 55.3075 22.1733 55.3075 21.74C55.3075 21.2067 55.5442 20.8 56.0175 20.52C56.4975 20.2333 57.2542 20.0333 58.2875 19.92C58.2875 19.7133 58.2575 19.5167 58.1975 19.33C58.1442 19.1433 58.0442 18.9933 57.8975 18.88C57.7575 18.76 57.5542 18.7 57.2875 18.7C57.0075 18.7 56.7442 18.7533 56.4975 18.86C56.2508 18.9667 56.0308 19.0867 55.8375 19.22L55.5175 18.65C55.7442 18.5033 56.0208 18.3633 56.3475 18.23C56.6808 18.09 57.0408 18.02 57.4275 18.02C58.0208 18.02 58.4508 18.2033 58.7175 18.57C58.9842 18.93 59.1175 19.4133 59.1175 20.02V23H58.4375L58.3675 22.42H58.3375C58.1108 22.6067 57.8608 22.77 57.5875 22.91C57.3208 23.05 57.0342 23.12 56.7275 23.12ZM56.9675 22.46C57.2008 22.46 57.4208 22.4033 57.6275 22.29C57.8342 22.1767 58.0542 22.0167 58.2875 21.81V20.46C57.4808 20.56 56.9142 20.71 56.5875 20.91C56.2675 21.11 56.1075 21.3667 56.1075 21.68C56.1075 21.9533 56.1908 22.1533 56.3575 22.28C56.5242 22.4 56.7275 22.46 56.9675 22.46ZM60.6366 20.81V20.18H62.9366V20.81H60.6366ZM64.552 23V18.14H65.232L65.302 19.02H65.332C65.4987 18.7133 65.702 18.47 65.942 18.29C66.182 18.11 66.4387 18.02 66.712 18.02C66.9054 18.02 67.0787 18.0533 67.232 18.12L67.072 18.84C66.992 18.8133 66.9187 18.7933 66.852 18.78C66.7854 18.7667 66.702 18.76 66.602 18.76C66.3954 18.76 66.1787 18.8433 65.952 19.01C65.732 19.1767 65.5387 19.4667 65.372 19.88V23H64.552ZM69.2947 23.12C68.888 23.12 68.548 23 68.2747 22.76C68.008 22.5133 67.8747 22.1733 67.8747 21.74C67.8747 21.2067 68.1114 20.8 68.5847 20.52C69.0647 20.2333 69.8214 20.0333 70.8547 19.92C70.8547 19.7133 70.8247 19.5167 70.7647 19.33C70.7114 19.1433 70.6114 18.9933 70.4647 18.88C70.3247 18.76 70.1214 18.7 69.8547 18.7C69.5747 18.7 69.3114 18.7533 69.0647 18.86C68.818 18.9667 68.598 19.0867 68.4047 19.22L68.0847 18.65C68.3114 18.5033 68.588 18.3633 68.9147 18.23C69.248 18.09 69.608 18.02 69.9947 18.02C70.588 18.02 71.018 18.2033 71.2847 18.57C71.5514 18.93 71.6847 19.4133 71.6847 20.02V23H71.0047L70.9347 22.42H70.9047C70.678 22.6067 70.428 22.77 70.1547 22.91C69.888 23.05 69.6014 23.12 69.2947 23.12ZM69.5347 22.46C69.768 22.46 69.988 22.4033 70.1947 22.29C70.4014 22.1767 70.6214 22.0167 70.8547 21.81V20.46C70.048 20.56 69.4814 20.71 69.1547 20.91C68.8347 21.11 68.6747 21.3667 68.6747 21.68C68.6747 21.9533 68.758 22.1533 68.9247 22.28C69.0914 22.4 69.2947 22.46 69.5347 22.46ZM75.007 23.12C74.487 23.12 74.1237 22.97 73.917 22.67C73.717 22.37 73.617 21.98 73.617 21.5V18.81H72.897V18.19L73.657 18.14L73.757 16.78H74.447V18.14H75.757V18.81H74.447V21.51C74.447 21.81 74.5004 22.0433 74.607 22.21C74.7204 22.37 74.917 22.45 75.197 22.45C75.2837 22.45 75.377 22.4367 75.477 22.41C75.577 22.3767 75.667 22.3467 75.747 22.32L75.907 22.94C75.7737 22.9867 75.627 23.0267 75.467 23.06C75.3137 23.1 75.1604 23.12 75.007 23.12ZM78.1611 23.12C77.7544 23.12 77.4144 23 77.1411 22.76C76.8744 22.5133 76.7411 22.1733 76.7411 21.74C76.7411 21.2067 76.9778 20.8 77.4511 20.52C77.9311 20.2333 78.6878 20.0333 79.7211 19.92C79.7211 19.7133 79.6911 19.5167 79.6311 19.33C79.5778 19.1433 79.4778 18.9933 79.3311 18.88C79.1911 18.76 78.9878 18.7 78.7211 18.7C78.4411 18.7 78.1778 18.7533 77.9311 18.86C77.6844 18.9667 77.4644 19.0867 77.2711 19.22L76.9511 18.65C77.1778 18.5033 77.4544 18.3633 77.7811 18.23C78.1144 18.09 78.4744 18.02 78.8611 18.02C79.4544 18.02 79.8844 18.2033 80.1511 18.57C80.4178 18.93 80.5511 19.4133 80.5511 20.02V23H79.8711L79.8011 22.42H79.7711C79.5444 22.6067 79.2944 22.77 79.0211 22.91C78.7544 23.05 78.4678 23.12 78.1611 23.12ZM78.4011 22.46C78.6344 22.46 78.8544 22.4033 79.0611 22.29C79.2678 22.1767 79.4878 22.0167 79.7211 21.81V20.46C78.9144 20.56 78.3478 20.71 78.0211 20.91C77.7011 21.11 77.5411 21.3667 77.5411 21.68C77.5411 21.9533 77.6244 22.1533 77.7911 22.28C77.9578 22.4 78.1611 22.46 78.4011 22.46ZM87.0321 23.12C86.8054 23.12 86.5688 23.0667 86.3221 22.96C86.0821 22.8467 85.8554 22.6933 85.6421 22.5H85.6121L85.5421 23H84.8821V15.88H85.7021V17.82L85.6821 18.7C85.9021 18.5067 86.1421 18.3467 86.4021 18.22C86.6688 18.0867 86.9354 18.02 87.2021 18.02C87.8354 18.02 88.3154 18.2433 88.6421 18.69C88.9688 19.1367 89.1321 19.7367 89.1321 20.49C89.1321 21.0433 89.0321 21.5167 88.8321 21.91C88.6388 22.3033 88.3821 22.6033 88.0621 22.81C87.7488 23.0167 87.4054 23.12 87.0321 23.12ZM86.8921 22.43C87.2921 22.43 87.6221 22.26 87.8821 21.92C88.1488 21.5733 88.2821 21.1 88.2821 20.5C88.2821 19.9667 88.1821 19.5367 87.9821 19.21C87.7888 18.8767 87.4621 18.71 87.0021 18.71C86.7954 18.71 86.5854 18.7667 86.3721 18.88C86.1588 18.9933 85.9354 19.1567 85.7021 19.37V21.92C85.9154 22.1067 86.1254 22.24 86.3321 22.32C86.5454 22.3933 86.7321 22.43 86.8921 22.43ZM92.2295 23.12C91.7161 23.12 91.3395 22.96 91.0995 22.64C90.8595 22.3133 90.7395 21.84 90.7395 21.22V18.14H91.5695V21.11C91.5695 21.5633 91.6395 21.8933 91.7795 22.1C91.9261 22.3067 92.1595 22.41 92.4795 22.41C92.7328 22.41 92.9561 22.3467 93.1495 22.22C93.3495 22.0867 93.5628 21.8767 93.7895 21.59V18.14H94.6095V23H93.9295L93.8595 22.24H93.8295C93.6028 22.5067 93.3628 22.72 93.1095 22.88C92.8561 23.04 92.5628 23.12 92.2295 23.12ZM97.5189 23.12C97.2122 23.12 96.9889 23.0267 96.8489 22.84C96.7156 22.6467 96.6489 22.3733 96.6489 22.02V15.88H97.4689V22.08C97.4689 22.2067 97.4922 22.3 97.5389 22.36C97.5856 22.4133 97.6389 22.44 97.6989 22.44C97.7256 22.44 97.7489 22.44 97.7689 22.44C97.7956 22.4333 97.8322 22.4267 97.8789 22.42L97.9889 23.04C97.9356 23.0667 97.8722 23.0867 97.7989 23.1C97.7256 23.1133 97.6322 23.12 97.5189 23.12ZM100.718 23.12C100.311 23.12 99.9711 23 99.6977 22.76C99.4311 22.5133 99.2977 22.1733 99.2977 21.74C99.2977 21.2067 99.5344 20.8 100.008 20.52C100.488 20.2333 101.244 20.0333 102.278 19.92C102.278 19.7133 102.248 19.5167 102.188 19.33C102.134 19.1433 102.034 18.9933 101.888 18.88C101.748 18.76 101.544 18.7 101.278 18.7C100.998 18.7 100.734 18.7533 100.488 18.86C100.241 18.9667 100.021 19.0867 99.8277 19.22L99.5077 18.65C99.7344 18.5033 100.011 18.3633 100.338 18.23C100.671 18.09 101.031 18.02 101.418 18.02C102.011 18.02 102.441 18.2033 102.708 18.57C102.974 18.93 103.108 19.4133 103.108 20.02V23H102.428L102.358 22.42H102.328C102.101 22.6067 101.851 22.77 101.578 22.91C101.311 23.05 101.024 23.12 100.718 23.12ZM100.958 22.46C101.191 22.46 101.411 22.4033 101.618 22.29C101.824 22.1767 102.044 22.0167 102.278 21.81V20.46C101.471 20.56 100.904 20.71 100.578 20.91C100.258 21.11 100.098 21.3667 100.098 21.68C100.098 21.9533 100.181 22.1533 100.348 22.28C100.514 22.4 100.718 22.46 100.958 22.46ZM105.037 23V18.14H105.717L105.787 18.84H105.817C106.05 18.6067 106.297 18.4133 106.557 18.26C106.817 18.1 107.113 18.02 107.447 18.02C107.96 18.02 108.333 18.1833 108.567 18.51C108.807 18.83 108.927 19.3 108.927 19.92V23H108.107V20.03C108.107 19.5767 108.033 19.2467 107.887 19.04C107.74 18.8333 107.507 18.73 107.187 18.73C106.94 18.73 106.717 18.7933 106.517 18.92C106.323 19.0467 106.103 19.2333 105.857 19.48V23H105.037ZM114.578 23.12C114.231 23.12 113.901 23.0567 113.588 22.93C113.274 22.7967 113.001 22.6367 112.768 22.45L113.178 21.9C113.391 22.0667 113.611 22.2067 113.838 22.32C114.064 22.4267 114.321 22.48 114.608 22.48C114.928 22.48 115.168 22.4067 115.328 22.26C115.488 22.1067 115.568 21.9267 115.568 21.72C115.568 21.5533 115.511 21.4133 115.398 21.3C115.291 21.1867 115.151 21.0933 114.978 21.02C114.811 20.94 114.638 20.8667 114.458 20.8C114.231 20.7133 114.008 20.6167 113.788 20.51C113.568 20.3967 113.388 20.2533 113.248 20.08C113.108 19.9 113.038 19.6733 113.038 19.4C113.038 19.0067 113.184 18.68 113.478 18.42C113.778 18.1533 114.191 18.02 114.718 18.02C115.018 18.02 115.298 18.0733 115.558 18.18C115.818 18.2867 116.041 18.4167 116.228 18.57L115.828 19.09C115.661 18.9633 115.488 18.86 115.308 18.78C115.128 18.7 114.931 18.66 114.718 18.66C114.411 18.66 114.184 18.73 114.038 18.87C113.898 19.01 113.828 19.1733 113.828 19.36C113.828 19.5133 113.878 19.64 113.978 19.74C114.078 19.8333 114.208 19.9167 114.368 19.99C114.528 20.0567 114.698 20.1267 114.878 20.2C115.111 20.2867 115.341 20.3867 115.568 20.5C115.794 20.6067 115.981 20.7533 116.128 20.94C116.281 21.12 116.358 21.3633 116.358 21.67C116.358 21.93 116.288 22.17 116.148 22.39C116.014 22.61 115.814 22.7867 115.548 22.92C115.288 23.0533 114.964 23.12 114.578 23.12ZM119.867 23.12C119.434 23.12 119.04 23.02 118.687 22.82C118.334 22.6133 118.054 22.32 117.847 21.94C117.64 21.56 117.537 21.1067 117.537 20.58C117.537 20.0467 117.64 19.59 117.847 19.21C118.06 18.83 118.334 18.5367 118.667 18.33C119 18.1233 119.35 18.02 119.717 18.02C120.337 18.02 120.814 18.2267 121.147 18.64C121.487 19.0533 121.657 19.6067 121.657 20.3C121.657 20.3867 121.654 20.4733 121.647 20.56C121.647 20.64 121.64 20.71 121.627 20.77H118.347C118.38 21.2833 118.54 21.6933 118.827 22C119.12 22.3067 119.5 22.46 119.967 22.46C120.2 22.46 120.414 22.4267 120.607 22.36C120.807 22.2867 120.997 22.1933 121.177 22.08L121.467 22.62C121.26 22.7533 121.024 22.87 120.757 22.97C120.497 23.07 120.2 23.12 119.867 23.12ZM118.337 20.18H120.937C120.937 19.6867 120.83 19.3133 120.617 19.06C120.41 18.8 120.117 18.67 119.737 18.67C119.397 18.67 119.09 18.8033 118.817 19.07C118.55 19.33 118.39 19.7 118.337 20.18ZM125.408 23.12C125.181 23.12 124.945 23.0667 124.698 22.96C124.458 22.8467 124.231 22.6933 124.018 22.5H123.988L123.918 23H123.258V15.88H124.078V17.82L124.058 18.7C124.278 18.5067 124.518 18.3467 124.778 18.22C125.045 18.0867 125.311 18.02 125.578 18.02C126.211 18.02 126.691 18.2433 127.018 18.69C127.345 19.1367 127.508 19.7367 127.508 20.49C127.508 21.0433 127.408 21.5167 127.208 21.91C127.015 22.3033 126.758 22.6033 126.438 22.81C126.125 23.0167 125.781 23.12 125.408 23.12ZM125.268 22.43C125.668 22.43 125.998 22.26 126.258 21.92C126.525 21.5733 126.658 21.1 126.658 20.5C126.658 19.9667 126.558 19.5367 126.358 19.21C126.165 18.8767 125.838 18.71 125.378 18.71C125.171 18.71 124.961 18.7667 124.748 18.88C124.535 18.9933 124.311 19.1567 124.078 19.37V21.92C124.291 22.1067 124.501 22.24 124.708 22.32C124.921 22.3933 125.108 22.43 125.268 22.43ZM131.155 23.12C130.722 23.12 130.329 23.02 129.975 22.82C129.622 22.6133 129.342 22.32 129.135 21.94C128.929 21.56 128.825 21.1067 128.825 20.58C128.825 20.0467 128.929 19.59 129.135 19.21C129.349 18.83 129.622 18.5367 129.955 18.33C130.289 18.1233 130.639 18.02 131.005 18.02C131.625 18.02 132.102 18.2267 132.435 18.64C132.775 19.0533 132.945 19.6067 132.945 20.3C132.945 20.3867 132.942 20.4733 132.935 20.56C132.935 20.64 132.929 20.71 132.915 20.77H129.635C129.669 21.2833 129.829 21.6933 130.115 22C130.409 22.3067 130.789 22.46 131.255 22.46C131.489 22.46 131.702 22.4267 131.895 22.36C132.095 22.2867 132.285 22.1933 132.465 22.08L132.755 22.62C132.549 22.7533 132.312 22.87 132.045 22.97C131.785 23.07 131.489 23.12 131.155 23.12ZM129.625 20.18H132.225C132.225 19.6867 132.119 19.3133 131.905 19.06C131.699 18.8 131.405 18.67 131.025 18.67C130.685 18.67 130.379 18.8033 130.105 19.07C129.839 19.33 129.679 19.7 129.625 20.18ZM135.416 23.12C135.11 23.12 134.886 23.0267 134.746 22.84C134.613 22.6467 134.546 22.3733 134.546 22.02V15.88H135.366V22.08C135.366 22.2067 135.39 22.3 135.436 22.36C135.483 22.4133 135.536 22.44 135.596 22.44C135.623 22.44 135.646 22.44 135.666 22.44C135.693 22.4333 135.73 22.4267 135.776 22.42L135.886 23.04C135.833 23.0667 135.77 23.0867 135.696 23.1C135.623 23.1133 135.53 23.12 135.416 23.12ZM138.915 23.12C138.402 23.12 138.025 22.96 137.785 22.64C137.545 22.3133 137.425 21.84 137.425 21.22V18.14H138.255V21.11C138.255 21.5633 138.325 21.8933 138.465 22.1C138.612 22.3067 138.845 22.41 139.165 22.41C139.418 22.41 139.642 22.3467 139.835 22.22C140.035 22.0867 140.248 21.8767 140.475 21.59V18.14H141.295V23H140.615L140.545 22.24H140.515C140.288 22.5067 140.048 22.72 139.795 22.88C139.542 23.04 139.248 23.12 138.915 23.12ZM143.334 23V18.14H144.014L144.084 18.84H144.114C144.328 18.6067 144.561 18.4133 144.814 18.26C145.068 18.1 145.338 18.02 145.624 18.02C145.998 18.02 146.288 18.1033 146.494 18.27C146.708 18.43 146.864 18.6567 146.964 18.95C147.218 18.6767 147.474 18.4533 147.734 18.28C147.994 18.1067 148.271 18.02 148.564 18.02C149.064 18.02 149.434 18.1833 149.674 18.51C149.921 18.83 150.044 19.3 150.044 19.92V23H149.224V20.03C149.224 19.5767 149.151 19.2467 149.004 19.04C148.858 18.8333 148.631 18.73 148.324 18.73C147.964 18.73 147.558 18.98 147.104 19.48V23H146.284V20.03C146.284 19.5767 146.211 19.2467 146.064 19.04C145.918 18.8333 145.688 18.73 145.374 18.73C145.014 18.73 144.608 18.98 144.154 19.48V23H143.334ZM152.025 23V18.14H152.705L152.775 18.84H152.805C153.039 18.6067 153.285 18.4133 153.545 18.26C153.805 18.1 154.102 18.02 154.435 18.02C154.949 18.02 155.322 18.1833 155.555 18.51C155.795 18.83 155.915 19.3 155.915 19.92V23H155.095V20.03C155.095 19.5767 155.022 19.2467 154.875 19.04C154.729 18.8333 154.495 18.73 154.175 18.73C153.929 18.73 153.705 18.7933 153.505 18.92C153.312 19.0467 153.092 19.2333 152.845 19.48V23H152.025ZM157.974 25.09C157.868 25.09 157.764 25.08 157.664 25.06C157.571 25.04 157.484 25.0167 157.404 24.99L157.564 24.34C157.618 24.3533 157.678 24.3667 157.744 24.38C157.811 24.4 157.874 24.41 157.934 24.41C158.208 24.41 158.434 24.31 158.614 24.11C158.794 23.9167 158.934 23.67 159.034 23.37L159.144 23.01L157.194 18.14H158.044L159.034 20.83C159.108 21.0367 159.184 21.26 159.264 21.5C159.351 21.74 159.431 21.9733 159.504 22.2H159.544C159.618 21.98 159.688 21.75 159.754 21.51C159.821 21.27 159.888 21.0433 159.954 20.83L160.824 18.14H161.624L159.794 23.4C159.681 23.72 159.544 24.0067 159.384 24.26C159.231 24.5133 159.038 24.7133 158.804 24.86C158.578 25.0133 158.301 25.09 157.974 25.09ZM163.887 23.12C163.48 23.12 163.14 23 162.867 22.76C162.6 22.5133 162.467 22.1733 162.467 21.74C162.467 21.2067 162.704 20.8 163.177 20.52C163.657 20.2333 164.414 20.0333 165.447 19.92C165.447 19.7133 165.417 19.5167 165.357 19.33C165.304 19.1433 165.204 18.9933 165.057 18.88C164.917 18.76 164.714 18.7 164.447 18.7C164.167 18.7 163.904 18.7533 163.657 18.86C163.41 18.9667 163.19 19.0867 162.997 19.22L162.677 18.65C162.904 18.5033 163.18 18.3633 163.507 18.23C163.84 18.09 164.2 18.02 164.587 18.02C165.18 18.02 165.61 18.2033 165.877 18.57C166.144 18.93 166.277 19.4133 166.277 20.02V23H165.597L165.527 22.42H165.497C165.27 22.6067 165.02 22.77 164.747 22.91C164.48 23.05 164.194 23.12 163.887 23.12ZM164.127 22.46C164.36 22.46 164.58 22.4033 164.787 22.29C164.994 22.1767 165.214 22.0167 165.447 21.81V20.46C164.64 20.56 164.074 20.71 163.747 20.91C163.427 21.11 163.267 21.3667 163.267 21.68C163.267 21.9533 163.35 22.1533 163.517 22.28C163.684 22.4 163.887 22.46 164.127 22.46Z" fill="#25262B"/>
<path d="M14.9 61V54.44H16.54C17.5533 54.44 18.3233 54.7233 18.85 55.29C19.3767 55.85 19.64 56.65 19.64 57.69C19.64 58.7367 19.3767 59.55 18.85 60.13C18.33 60.71 17.5733 61 16.58 61H14.9ZM15.73 60.32H16.48C17.2467 60.32 17.82 60.09 18.2 59.63C18.5867 59.1633 18.78 58.5167 18.78 57.69C18.78 56.8633 18.5867 56.23 18.2 55.79C17.82 55.3433 17.2467 55.12 16.48 55.12H15.73V60.32ZM21.3723 61V56.14H22.1923V61H21.3723ZM21.7923 55.14C21.6323 55.14 21.499 55.0933 21.3923 55C21.2923 54.9 21.2423 54.7667 21.2423 54.6C21.2423 54.44 21.2923 54.31 21.3923 54.21C21.499 54.11 21.6323 54.06 21.7923 54.06C21.9523 54.06 22.0823 54.11 22.1823 54.21C22.289 54.31 22.3423 54.44 22.3423 54.6C22.3423 54.7667 22.289 54.9 22.1823 55C22.0823 55.0933 21.9523 55.14 21.7923 55.14ZM28.7852 61.12C28.5586 61.12 28.3219 61.0667 28.0752 60.96C27.8352 60.8467 27.6086 60.6933 27.3952 60.5H27.3652L27.2952 61H26.6352V53.88H27.4552V55.82L27.4352 56.7C27.6552 56.5067 27.8952 56.3467 28.1552 56.22C28.4219 56.0867 28.6886 56.02 28.9552 56.02C29.5886 56.02 30.0686 56.2433 30.3952 56.69C30.7219 57.1367 30.8852 57.7367 30.8852 58.49C30.8852 59.0433 30.7852 59.5167 30.5852 59.91C30.3919 60.3033 30.1352 60.6033 29.8152 60.81C29.5019 61.0167 29.1586 61.12 28.7852 61.12ZM28.6452 60.43C29.0452 60.43 29.3752 60.26 29.6352 59.92C29.9019 59.5733 30.0352 59.1 30.0352 58.5C30.0352 57.9667 29.9352 57.5367 29.7352 57.21C29.5419 56.8767 29.2152 56.71 28.7552 56.71C28.5486 56.71 28.3386 56.7667 28.1252 56.88C27.9119 56.9933 27.6886 57.1567 27.4552 57.37V59.92C27.6686 60.1067 27.8786 60.24 28.0852 60.32C28.2986 60.3933 28.4852 60.43 28.6452 60.43ZM33.5459 61.12C33.1392 61.12 32.7992 61 32.5259 60.76C32.2592 60.5133 32.1259 60.1733 32.1259 59.74C32.1259 59.2067 32.3625 58.8 32.8359 58.52C33.3159 58.2333 34.0725 58.0333 35.1059 57.92C35.1059 57.7133 35.0759 57.5167 35.0159 57.33C34.9625 57.1433 34.8625 56.9933 34.7159 56.88C34.5759 56.76 34.3725 56.7 34.1059 56.7C33.8259 56.7 33.5625 56.7533 33.3159 56.86C33.0692 56.9667 32.8492 57.0867 32.6559 57.22L32.3359 56.65C32.5625 56.5033 32.8392 56.3633 33.1659 56.23C33.4992 56.09 33.8592 56.02 34.2459 56.02C34.8392 56.02 35.2692 56.2033 35.5359 56.57C35.8025 56.93 35.9359 57.4133 35.9359 58.02V61H35.2559L35.1859 60.42H35.1559C34.9292 60.6067 34.6792 60.77 34.4059 60.91C34.1392 61.05 33.8525 61.12 33.5459 61.12ZM33.7859 60.46C34.0192 60.46 34.2392 60.4033 34.4459 60.29C34.6525 60.1767 34.8725 60.0167 35.1059 59.81V58.46C34.2992 58.56 33.7325 58.71 33.4059 58.91C33.0859 59.11 32.9259 59.3667 32.9259 59.68C32.9259 59.9533 33.0092 60.1533 33.1759 60.28C33.3425 60.4 33.5459 60.46 33.7859 60.46ZM38.6349 61L37.2849 56.14H38.1249L38.8449 58.95C38.8983 59.1767 38.9483 59.4033 38.9949 59.63C39.0416 59.85 39.0883 60.0733 39.1349 60.3H39.1749C39.2283 60.0733 39.2816 59.85 39.3349 59.63C39.3883 59.4033 39.4449 59.1767 39.5049 58.95L40.2549 56.14H41.0549L41.8149 58.95C41.8749 59.1767 41.9316 59.4033 41.9849 59.63C42.0449 59.85 42.1016 60.0733 42.1549 60.3H42.1949C42.2483 60.0733 42.2983 59.85 42.3449 59.63C42.3983 59.4033 42.4483 59.1767 42.4949 58.95L43.2049 56.14H43.9849L42.6849 61H41.6849L40.9849 58.39C40.9249 58.1567 40.8683 57.9267 40.8149 57.7C40.7683 57.4733 40.7149 57.2367 40.6549 56.99H40.6149C40.5616 57.2367 40.5083 57.4767 40.4549 57.71C40.4016 57.9367 40.3416 58.1667 40.2749 58.4L39.5949 61H38.6349ZM46.465 61.12C46.0583 61.12 45.7183 61 45.445 60.76C45.1783 60.5133 45.045 60.1733 45.045 59.74C45.045 59.2067 45.2817 58.8 45.755 58.52C46.235 58.2333 46.9917 58.0333 48.025 57.92C48.025 57.7133 47.995 57.5167 47.935 57.33C47.8817 57.1433 47.7817 56.9933 47.635 56.88C47.495 56.76 47.2917 56.7 47.025 56.7C46.745 56.7 46.4817 56.7533 46.235 56.86C45.9883 56.9667 45.7683 57.0867 45.575 57.22L45.255 56.65C45.4817 56.5033 45.7583 56.3633 46.085 56.23C46.4183 56.09 46.7783 56.02 47.165 56.02C47.7583 56.02 48.1883 56.2033 48.455 56.57C48.7217 56.93 48.855 57.4133 48.855 58.02V61H48.175L48.105 60.42H48.075C47.8483 60.6067 47.5983 60.77 47.325 60.91C47.0583 61.05 46.7717 61.12 46.465 61.12ZM46.705 60.46C46.9383 60.46 47.1583 60.4033 47.365 60.29C47.5717 60.1767 47.7917 60.0167 48.025 59.81V58.46C47.2183 58.56 46.6517 58.71 46.325 58.91C46.005 59.11 45.845 59.3667 45.845 59.68C45.845 59.9533 45.9283 60.1533 46.095 60.28C46.2617 60.4 46.465 60.46 46.705 60.46ZM50.7841 61V53.88H51.6041V55.82L51.5741 56.82C51.8074 56.6 52.0507 56.4133 52.3041 56.26C52.5641 56.1 52.8607 56.02 53.1941 56.02C53.7074 56.02 54.0807 56.1833 54.3141 56.51C54.5541 56.83 54.6741 57.3 54.6741 57.92V61H53.8541V58.03C53.8541 57.5767 53.7807 57.2467 53.6341 57.04C53.4874 56.8333 53.2541 56.73 52.9341 56.73C52.6874 56.73 52.4641 56.7933 52.2641 56.92C52.0707 57.0467 51.8507 57.2333 51.6041 57.48V61H50.7841ZM59.1055 61V54.44H61.1555C61.6021 54.44 61.9988 54.5 62.3455 54.62C62.6921 54.7333 62.9621 54.9267 63.1555 55.2C63.3555 55.4667 63.4555 55.8267 63.4555 56.28C63.4555 56.7867 63.3221 57.1967 63.0555 57.51C62.7888 57.8167 62.4288 58.0267 61.9755 58.14L63.6455 61H62.7055L61.1255 58.23H59.9355V61H59.1055ZM59.9355 57.55H61.0355C61.5488 57.55 61.9421 57.4467 62.2155 57.24C62.4888 57.0267 62.6255 56.7067 62.6255 56.28C62.6255 55.8467 62.4888 55.5433 62.2155 55.37C61.9421 55.1967 61.5488 55.11 61.0355 55.11H59.9355V57.55ZM65.1188 63.05V56.14H65.7988L65.8688 56.7H65.8988C66.1188 56.5133 66.3588 56.3533 66.6188 56.22C66.8855 56.0867 67.1622 56.02 67.4488 56.02C68.0755 56.02 68.5522 56.2467 68.8788 56.7C69.2055 57.1467 69.3688 57.7467 69.3688 58.5C69.3688 59.0467 69.2688 59.5167 69.0688 59.91C68.8755 60.3033 68.6188 60.6033 68.2988 60.81C67.9855 61.0167 67.6422 61.12 67.2688 61.12C67.0422 61.12 66.8155 61.07 66.5888 60.97C66.3688 60.87 66.1455 60.7333 65.9188 60.56L65.9388 61.41V63.05H65.1188ZM67.1288 60.43C67.5288 60.43 67.8588 60.26 68.1188 59.92C68.3855 59.5733 68.5188 59.1 68.5188 58.5C68.5188 57.9667 68.4188 57.5367 68.2188 57.21C68.0255 56.8767 67.6988 56.71 67.2388 56.71C67.0322 56.71 66.8222 56.7667 66.6088 56.88C66.4022 56.9933 66.1788 57.1567 65.9388 57.37V59.92C66.1588 60.1067 66.3722 60.24 66.5788 60.32C66.7855 60.3933 66.9688 60.43 67.1288 60.43ZM73.4377 61V60.32H74.8977V55.62H73.7377V55.09C74.031 55.0367 74.2843 54.9733 74.4977 54.9C74.7177 54.82 74.9143 54.7267 75.0877 54.62H75.7177V60.32H77.0377V61H73.4377ZM80.5084 61.12C79.8684 61.12 79.365 60.8333 78.9984 60.26C78.6384 59.68 78.4584 58.8567 78.4584 57.79C78.4584 56.7167 78.6384 55.9 78.9984 55.34C79.365 54.78 79.8684 54.5 80.5084 54.5C81.1417 54.5 81.6384 54.78 81.9984 55.34C82.365 55.9 82.5484 56.7167 82.5484 57.79C82.5484 58.8567 82.365 59.68 81.9984 60.26C81.6384 60.8333 81.1417 61.12 80.5084 61.12ZM80.5084 60.46C80.8817 60.46 81.1817 60.25 81.4084 59.83C81.635 59.4033 81.7484 58.7233 81.7484 57.79C81.7484 56.8567 81.635 56.1867 81.4084 55.78C81.1817 55.3667 80.8817 55.16 80.5084 55.16C80.135 55.16 79.8317 55.3667 79.5984 55.78C79.3717 56.1867 79.2584 56.8567 79.2584 57.79C79.2584 58.7233 79.3717 59.4033 79.5984 59.83C79.8317 60.25 80.135 60.46 80.5084 60.46ZM84.6391 61.12C84.4724 61.12 84.3291 61.0633 84.2091 60.95C84.0957 60.83 84.0391 60.68 84.0391 60.5C84.0391 60.3067 84.0957 60.1533 84.2091 60.04C84.3291 59.92 84.4724 59.86 84.6391 59.86C84.7991 59.86 84.9357 59.92 85.0491 60.04C85.1691 60.1533 85.2291 60.3067 85.2291 60.5C85.2291 60.68 85.1691 60.83 85.0491 60.95C84.9357 61.0633 84.7991 61.12 84.6391 61.12ZM88.7693 61.12C88.1293 61.12 87.626 60.8333 87.2593 60.26C86.8993 59.68 86.7193 58.8567 86.7193 57.79C86.7193 56.7167 86.8993 55.9 87.2593 55.34C87.626 54.78 88.1293 54.5 88.7693 54.5C89.4026 54.5 89.8993 54.78 90.2593 55.34C90.626 55.9 90.8093 56.7167 90.8093 57.79C90.8093 58.8567 90.626 59.68 90.2593 60.26C89.8993 60.8333 89.4026 61.12 88.7693 61.12ZM88.7693 60.46C89.1426 60.46 89.4426 60.25 89.6693 59.83C89.896 59.4033 90.0093 58.7233 90.0093 57.79C90.0093 56.8567 89.896 56.1867 89.6693 55.78C89.4426 55.3667 89.1426 55.16 88.7693 55.16C88.396 55.16 88.0926 55.3667 87.8593 55.78C87.6326 56.1867 87.5193 56.8567 87.5193 57.79C87.5193 58.7233 87.6326 59.4033 87.8593 59.83C88.0926 60.25 88.396 60.46 88.7693 60.46ZM94.14 61.12C93.5 61.12 92.9967 60.8333 92.63 60.26C92.27 59.68 92.09 58.8567 92.09 57.79C92.09 56.7167 92.27 55.9 92.63 55.34C92.9967 54.78 93.5 54.5 94.14 54.5C94.7733 54.5 95.27 54.78 95.63 55.34C95.9967 55.9 96.18 56.7167 96.18 57.79C96.18 58.8567 95.9967 59.68 95.63 60.26C95.27 60.8333 94.7733 61.12 94.14 61.12ZM94.14 60.46C94.5133 60.46 94.8133 60.25 95.04 59.83C95.2667 59.4033 95.38 58.7233 95.38 57.79C95.38 56.8567 95.2667 56.1867 95.04 55.78C94.8133 55.3667 94.5133 55.16 94.14 55.16C93.7667 55.16 93.4633 55.3667 93.23 55.78C93.0033 56.1867 92.89 56.8567 92.89 57.79C92.89 58.7233 93.0033 59.4033 93.23 59.83C93.4633 60.25 93.7667 60.46 94.14 60.46ZM99.5107 61.12C98.8707 61.12 98.3674 60.8333 98.0007 60.26C97.6407 59.68 97.4607 58.8567 97.4607 57.79C97.4607 56.7167 97.6407 55.9 98.0007 55.34C98.3674 54.78 98.8707 54.5 99.5107 54.5C100.144 54.5 100.641 54.78 101.001 55.34C101.367 55.9 101.551 56.7167 101.551 57.79C101.551 58.8567 101.367 59.68 101.001 60.26C100.641 60.8333 100.144 61.12 99.5107 61.12ZM99.5107 60.46C99.884 60.46 100.184 60.25 100.411 59.83C100.637 59.4033 100.751 58.7233 100.751 57.79C100.751 56.8567 100.637 56.1867 100.411 55.78C100.184 55.3667 99.884 55.16 99.5107 55.16C99.1374 55.16 98.834 55.3667 98.6007 55.78C98.374 56.1867 98.2607 56.8567 98.2607 57.79C98.2607 58.7233 98.374 59.4033 98.6007 59.83C98.834 60.25 99.1374 60.46 99.5107 60.46ZM103.641 61.12C103.475 61.12 103.331 61.0633 103.211 60.95C103.098 60.83 103.041 60.68 103.041 60.5C103.041 60.3067 103.098 60.1533 103.211 60.04C103.331 59.92 103.475 59.86 103.641 59.86C103.801 59.86 103.938 59.92 104.051 60.04C104.171 60.1533 104.231 60.3067 104.231 60.5C104.231 60.68 104.171 60.83 104.051 60.95C103.938 61.0633 103.801 61.12 103.641 61.12ZM107.772 61.12C107.132 61.12 106.628 60.8333 106.262 60.26C105.902 59.68 105.722 58.8567 105.722 57.79C105.722 56.7167 105.902 55.9 106.262 55.34C106.628 54.78 107.132 54.5 107.772 54.5C108.405 54.5 108.902 54.78 109.262 55.34C109.628 55.9 109.812 56.7167 109.812 57.79C109.812 58.8567 109.628 59.68 109.262 60.26C108.902 60.8333 108.405 61.12 107.772 61.12ZM107.772 60.46C108.145 60.46 108.445 60.25 108.672 59.83C108.898 59.4033 109.012 58.7233 109.012 57.79C109.012 56.8567 108.898 56.1867 108.672 55.78C108.445 55.3667 108.145 55.16 107.772 55.16C107.398 55.16 107.095 55.3667 106.862 55.78C106.635 56.1867 106.522 56.8567 106.522 57.79C106.522 58.7233 106.635 59.4033 106.862 59.83C107.095 60.25 107.398 60.46 107.772 60.46ZM113.142 61.12C112.502 61.12 111.999 60.8333 111.632 60.26C111.272 59.68 111.092 58.8567 111.092 57.79C111.092 56.7167 111.272 55.9 111.632 55.34C111.999 54.78 112.502 54.5 113.142 54.5C113.776 54.5 114.272 54.78 114.632 55.34C114.999 55.9 115.182 56.7167 115.182 57.79C115.182 58.8567 114.999 59.68 114.632 60.26C114.272 60.8333 113.776 61.12 113.142 61.12ZM113.142 60.46C113.516 60.46 113.816 60.25 114.042 59.83C114.269 59.4033 114.382 58.7233 114.382 57.79C114.382 56.8567 114.269 56.1867 114.042 55.78C113.816 55.3667 113.516 55.16 113.142 55.16C112.769 55.16 112.466 55.3667 112.232 55.78C112.006 56.1867 111.892 56.8567 111.892 57.79C111.892 58.7233 112.006 59.4033 112.232 59.83C112.466 60.25 112.769 60.46 113.142 60.46ZM118.513 61.12C117.873 61.12 117.37 60.8333 117.003 60.26C116.643 59.68 116.463 58.8567 116.463 57.79C116.463 56.7167 116.643 55.9 117.003 55.34C117.37 54.78 117.873 54.5 118.513 54.5C119.146 54.5 119.643 54.78 120.003 55.34C120.37 55.9 120.553 56.7167 120.553 57.79C120.553 58.8567 120.37 59.68 120.003 60.26C119.643 60.8333 119.146 61.12 118.513 61.12ZM118.513 60.46C118.886 60.46 119.186 60.25 119.413 59.83C119.64 59.4033 119.753 58.7233 119.753 57.79C119.753 56.8567 119.64 56.1867 119.413 55.78C119.186 55.3667 118.886 55.16 118.513 55.16C118.14 55.16 117.836 55.3667 117.603 55.78C117.376 56.1867 117.263 56.8567 117.263 57.79C117.263 58.7233 117.376 59.4033 117.603 59.83C117.836 60.25 118.14 60.46 118.513 60.46Z" fill="#25262B"/>
<path d="M259.167 61V60.32H260.627V55.62H259.467V55.09C259.76 55.0367 260.014 54.9733 260.227 54.9C260.447 54.82 260.644 54.7267 260.817 54.62H261.447V60.32H262.767V61H259.167ZM266.238 61.12C265.598 61.12 265.095 60.8333 264.728 60.26C264.368 59.68 264.188 58.8567 264.188 57.79C264.188 56.7167 264.368 55.9 264.728 55.34C265.095 54.78 265.598 54.5 266.238 54.5C266.871 54.5 267.368 54.78 267.728 55.34C268.095 55.9 268.278 56.7167 268.278 57.79C268.278 58.8567 268.095 59.68 267.728 60.26C267.368 60.8333 266.871 61.12 266.238 61.12ZM266.238 60.46C266.611 60.46 266.911 60.25 267.138 59.83C267.365 59.4033 267.478 58.7233 267.478 57.79C267.478 56.8567 267.365 56.1867 267.138 55.78C266.911 55.3667 266.611 55.16 266.238 55.16C265.865 55.16 265.561 55.3667 265.328 55.78C265.101 56.1867 264.988 56.8567 264.988 57.79C264.988 58.7233 265.101 59.4033 265.328 59.83C265.561 60.25 265.865 60.46 266.238 60.46ZM272.341 61V53.88H273.151V58.7H273.181L275.251 56.14H276.161L274.531 58.09L276.381 61H275.481L274.061 58.66L273.151 59.72V61H272.341ZM278.714 61.12C278.307 61.12 277.967 61 277.694 60.76C277.427 60.5133 277.294 60.1733 277.294 59.74C277.294 59.2067 277.531 58.8 278.004 58.52C278.484 58.2333 279.241 58.0333 280.274 57.92C280.274 57.7133 280.244 57.5167 280.184 57.33C280.131 57.1433 280.031 56.9933 279.884 56.88C279.744 56.76 279.541 56.7 279.274 56.7C278.994 56.7 278.731 56.7533 278.484 56.86C278.237 56.9667 278.017 57.0867 277.824 57.22L277.504 56.65C277.731 56.5033 278.007 56.3633 278.334 56.23C278.667 56.09 279.027 56.02 279.414 56.02C280.007 56.02 280.437 56.2033 280.704 56.57C280.971 56.93 281.104 57.4133 281.104 58.02V61H280.424L280.354 60.42H280.324C280.097 60.6067 279.847 60.77 279.574 60.91C279.307 61.05 279.021 61.12 278.714 61.12ZM278.954 60.46C279.187 60.46 279.407 60.4033 279.614 60.29C279.821 60.1767 280.041 60.0167 280.274 59.81V58.46C279.467 58.56 278.901 58.71 278.574 58.91C278.254 59.11 278.094 59.3667 278.094 59.68C278.094 59.9533 278.177 60.1533 278.344 60.28C278.511 60.4 278.714 60.46 278.954 60.46ZM283.903 61.12C283.596 61.12 283.373 61.0267 283.233 60.84C283.1 60.6467 283.033 60.3733 283.033 60.02V53.88H283.853V60.08C283.853 60.2067 283.876 60.3 283.923 60.36C283.97 60.4133 284.023 60.44 284.083 60.44C284.11 60.44 284.133 60.44 284.153 60.44C284.18 60.4333 284.216 60.4267 284.263 60.42L284.373 61.04C284.32 61.0667 284.256 61.0867 284.183 61.1C284.11 61.1133 284.016 61.12 283.903 61.12ZM285.982 61V56.14H286.802V61H285.982ZM286.402 55.14C286.242 55.14 286.109 55.0933 286.002 55C285.902 54.9 285.852 54.7667 285.852 54.6C285.852 54.44 285.902 54.31 286.002 54.21C286.109 54.11 286.242 54.06 286.402 54.06C286.562 54.06 286.692 54.11 286.792 54.21C286.899 54.31 286.952 54.44 286.952 54.6C286.952 54.7667 286.899 54.9 286.792 55C286.692 55.0933 286.562 55.14 286.402 55.14Z" fill="#25262B"/>
</g>
<rect x="218" y="137" width="98" height="1" transform="rotate(-90 218 137)" fill="#E7EEF6"/>
<rect y="72" width="322" height="1" fill="#EBECEE"/>
<rect y="105" width="322" height="1" fill="#EBECEE"/>
<rect x="218" y="40" width="40" height="1" transform="rotate(-90 218 40)" fill="white"/>
<path d="M237.48 23.12C236.907 23.12 236.397 22.9867 235.95 22.72C235.503 22.4467 235.153 22.0567 234.9 21.55C234.647 21.0433 234.52 20.4333 234.52 19.72C234.52 19.0133 234.65 18.4067 234.91 17.9C235.17 17.3933 235.527 17.0033 235.98 16.73C236.433 16.4567 236.95 16.32 237.53 16.32C237.983 16.32 238.363 16.4067 238.67 16.58C238.983 16.7467 239.233 16.93 239.42 17.13L238.96 17.67C238.793 17.4967 238.6 17.35 238.38 17.23C238.16 17.11 237.883 17.05 237.55 17.05C237.11 17.05 236.727 17.16 236.4 17.38C236.073 17.5933 235.82 17.8967 235.64 18.29C235.467 18.6833 235.38 19.1533 235.38 19.7C235.38 20.5267 235.567 21.1833 235.94 21.67C236.32 22.15 236.86 22.39 237.56 22.39C237.793 22.39 238.017 22.3567 238.23 22.29C238.443 22.2167 238.613 22.12 238.74 22V20.29H237.35V19.6H239.5V22.36C239.293 22.58 239.013 22.7633 238.66 22.91C238.313 23.05 237.92 23.12 237.48 23.12ZM241.392 23V18.14H242.072L242.142 19.02H242.172C242.339 18.7133 242.542 18.47 242.782 18.29C243.022 18.11 243.279 18.02 243.552 18.02C243.745 18.02 243.919 18.0533 244.072 18.12L243.912 18.84C243.832 18.8133 243.759 18.7933 243.692 18.78C243.625 18.7667 243.542 18.76 243.442 18.76C243.235 18.76 243.019 18.8433 242.792 19.01C242.572 19.1767 242.379 19.4667 242.212 19.88V23H241.392ZM246.135 23.12C245.728 23.12 245.388 23 245.115 22.76C244.848 22.5133 244.715 22.1733 244.715 21.74C244.715 21.2067 244.951 20.8 245.425 20.52C245.905 20.2333 246.661 20.0333 247.695 19.92C247.695 19.7133 247.665 19.5167 247.605 19.33C247.551 19.1433 247.451 18.9933 247.305 18.88C247.165 18.76 246.961 18.7 246.695 18.7C246.415 18.7 246.151 18.7533 245.905 18.86C245.658 18.9667 245.438 19.0867 245.245 19.22L244.925 18.65C245.151 18.5033 245.428 18.3633 245.755 18.23C246.088 18.09 246.448 18.02 246.835 18.02C247.428 18.02 247.858 18.2033 248.125 18.57C248.391 18.93 248.525 19.4133 248.525 20.02V23H247.845L247.775 22.42H247.745C247.518 22.6067 247.268 22.77 246.995 22.91C246.728 23.05 246.441 23.12 246.135 23.12ZM246.375 22.46C246.608 22.46 246.828 22.4033 247.035 22.29C247.241 22.1767 247.461 22.0167 247.695 21.81V20.46C246.888 20.56 246.321 20.71 245.995 20.91C245.675 21.11 245.515 21.3667 245.515 21.68C245.515 21.9533 245.598 22.1533 245.765 22.28C245.931 22.4 246.135 22.46 246.375 22.46ZM251.847 23.12C251.327 23.12 250.964 22.97 250.757 22.67C250.557 22.37 250.457 21.98 250.457 21.5V18.81H249.737V18.19L250.497 18.14L250.597 16.78H251.287V18.14H252.597V18.81H251.287V21.51C251.287 21.81 251.34 22.0433 251.447 22.21C251.56 22.37 251.757 22.45 252.037 22.45C252.124 22.45 252.217 22.4367 252.317 22.41C252.417 22.3767 252.507 22.3467 252.587 22.32L252.747 22.94C252.614 22.9867 252.467 23.0267 252.307 23.06C252.154 23.1 252 23.12 251.847 23.12ZM254.096 23V18.14H254.916V23H254.096ZM254.516 17.14C254.356 17.14 254.222 17.0933 254.116 17C254.016 16.9 253.966 16.7667 253.966 16.6C253.966 16.44 254.016 16.31 254.116 16.21C254.222 16.11 254.356 16.06 254.516 16.06C254.676 16.06 254.806 16.11 254.906 16.21C255.012 16.31 255.066 16.44 255.066 16.6C255.066 16.7667 255.012 16.9 254.906 17C254.806 17.0933 254.676 17.14 254.516 17.14ZM258.227 23.12C257.88 23.12 257.55 23.0567 257.237 22.93C256.923 22.7967 256.65 22.6367 256.417 22.45L256.827 21.9C257.04 22.0667 257.26 22.2067 257.487 22.32C257.713 22.4267 257.97 22.48 258.257 22.48C258.577 22.48 258.817 22.4067 258.977 22.26C259.137 22.1067 259.217 21.9267 259.217 21.72C259.217 21.5533 259.16 21.4133 259.047 21.3C258.94 21.1867 258.8 21.0933 258.627 21.02C258.46 20.94 258.287 20.8667 258.107 20.8C257.88 20.7133 257.657 20.6167 257.437 20.51C257.217 20.3967 257.037 20.2533 256.897 20.08C256.757 19.9 256.687 19.6733 256.687 19.4C256.687 19.0067 256.833 18.68 257.127 18.42C257.427 18.1533 257.84 18.02 258.367 18.02C258.667 18.02 258.947 18.0733 259.207 18.18C259.467 18.2867 259.69 18.4167 259.877 18.57L259.477 19.09C259.31 18.9633 259.137 18.86 258.957 18.78C258.777 18.7 258.58 18.66 258.367 18.66C258.06 18.66 257.833 18.73 257.687 18.87C257.547 19.01 257.477 19.1733 257.477 19.36C257.477 19.5133 257.527 19.64 257.627 19.74C257.727 19.8333 257.857 19.9167 258.017 19.99C258.177 20.0567 258.347 20.1267 258.527 20.2C258.76 20.2867 258.99 20.3867 259.217 20.5C259.443 20.6067 259.63 20.7533 259.777 20.94C259.93 21.12 260.007 21.3633 260.007 21.67C260.007 21.93 259.937 22.17 259.797 22.39C259.663 22.61 259.463 22.7867 259.197 22.92C258.937 23.0533 258.613 23.12 258.227 23.12ZM265.478 23.12C264.958 23.12 264.595 22.97 264.388 22.67C264.188 22.37 264.088 21.98 264.088 21.5V18.81H263.368V18.19L264.128 18.14L264.228 16.78H264.918V18.14H266.228V18.81H264.918V21.51C264.918 21.81 264.971 22.0433 265.078 22.21C265.191 22.37 265.388 22.45 265.668 22.45C265.755 22.45 265.848 22.4367 265.948 22.41C266.048 22.3767 266.138 22.3467 266.218 22.32L266.378 22.94C266.245 22.9867 266.098 23.0267 265.938 23.06C265.785 23.1 265.631 23.12 265.478 23.12ZM267.727 23V18.14H268.407L268.477 19.02H268.507C268.674 18.7133 268.877 18.47 269.117 18.29C269.357 18.11 269.614 18.02 269.887 18.02C270.08 18.02 270.254 18.0533 270.407 18.12L270.247 18.84C270.167 18.8133 270.094 18.7933 270.027 18.78C269.96 18.7667 269.877 18.76 269.777 18.76C269.57 18.76 269.354 18.8433 269.127 19.01C268.907 19.1767 268.714 19.4667 268.547 19.88V23H267.727ZM272.47 23.12C272.063 23.12 271.723 23 271.45 22.76C271.183 22.5133 271.05 22.1733 271.05 21.74C271.05 21.2067 271.286 20.8 271.76 20.52C272.24 20.2333 272.996 20.0333 274.03 19.92C274.03 19.7133 274 19.5167 273.94 19.33C273.886 19.1433 273.786 18.9933 273.64 18.88C273.5 18.76 273.296 18.7 273.03 18.7C272.75 18.7 272.486 18.7533 272.24 18.86C271.993 18.9667 271.773 19.0867 271.58 19.22L271.26 18.65C271.486 18.5033 271.763 18.3633 272.09 18.23C272.423 18.09 272.783 18.02 273.17 18.02C273.763 18.02 274.193 18.2033 274.46 18.57C274.726 18.93 274.86 19.4133 274.86 20.02V23H274.18L274.11 22.42H274.08C273.853 22.6067 273.603 22.77 273.33 22.91C273.063 23.05 272.776 23.12 272.47 23.12ZM272.71 22.46C272.943 22.46 273.163 22.4033 273.37 22.29C273.576 22.1767 273.796 22.0167 274.03 21.81V20.46C273.223 20.56 272.656 20.71 272.33 20.91C272.01 21.11 271.85 21.3667 271.85 21.68C271.85 21.9533 271.933 22.1533 272.1 22.28C272.266 22.4 272.47 22.46 272.71 22.46ZM276.789 23V18.14H277.469L277.539 18.84H277.569C277.802 18.6067 278.049 18.4133 278.309 18.26C278.569 18.1 278.865 18.02 279.199 18.02C279.712 18.02 280.085 18.1833 280.319 18.51C280.559 18.83 280.679 19.3 280.679 19.92V23H279.859V20.03C279.859 19.5767 279.785 19.2467 279.639 19.04C279.492 18.8333 279.259 18.73 278.939 18.73C278.692 18.73 278.469 18.7933 278.269 18.92C278.075 19.0467 277.855 19.2333 277.609 19.48V23H276.789ZM283.928 23.12C283.581 23.12 283.251 23.0567 282.938 22.93C282.624 22.7967 282.351 22.6367 282.118 22.45L282.528 21.9C282.741 22.0667 282.961 22.2067 283.188 22.32C283.414 22.4267 283.671 22.48 283.958 22.48C284.278 22.48 284.518 22.4067 284.678 22.26C284.838 22.1067 284.918 21.9267 284.918 21.72C284.918 21.5533 284.861 21.4133 284.748 21.3C284.641 21.1867 284.501 21.0933 284.328 21.02C284.161 20.94 283.988 20.8667 283.808 20.8C283.581 20.7133 283.358 20.6167 283.138 20.51C282.918 20.3967 282.738 20.2533 282.598 20.08C282.458 19.9 282.388 19.6733 282.388 19.4C282.388 19.0067 282.534 18.68 282.828 18.42C283.128 18.1533 283.541 18.02 284.068 18.02C284.368 18.02 284.648 18.0733 284.908 18.18C285.168 18.2867 285.391 18.4167 285.578 18.57L285.178 19.09C285.011 18.9633 284.838 18.86 284.658 18.78C284.478 18.7 284.281 18.66 284.068 18.66C283.761 18.66 283.534 18.73 283.388 18.87C283.248 19.01 283.178 19.1733 283.178 19.36C283.178 19.5133 283.228 19.64 283.328 19.74C283.428 19.8333 283.558 19.9167 283.718 19.99C283.878 20.0567 284.048 20.1267 284.228 20.2C284.461 20.2867 284.691 20.3867 284.918 20.5C285.144 20.6067 285.331 20.7533 285.478 20.94C285.631 21.12 285.708 21.3633 285.708 21.67C285.708 21.93 285.638 22.17 285.498 22.39C285.364 22.61 285.164 22.7867 284.898 22.92C284.638 23.0533 284.314 23.12 283.928 23.12ZM287.387 23V18.81H286.727V18.19L287.387 18.14V17.37C287.387 16.8767 287.5 16.4867 287.727 16.2C287.96 15.9067 288.32 15.76 288.807 15.76C288.96 15.76 289.107 15.7767 289.247 15.81C289.387 15.8367 289.51 15.8733 289.617 15.92L289.437 16.55C289.257 16.47 289.074 16.43 288.887 16.43C288.434 16.43 288.207 16.7433 288.207 17.37V18.14H289.237V18.81H288.207V23H287.387ZM292.439 23.12C292.006 23.12 291.613 23.02 291.259 22.82C290.906 22.6133 290.626 22.32 290.419 21.94C290.213 21.56 290.109 21.1067 290.109 20.58C290.109 20.0467 290.213 19.59 290.419 19.21C290.633 18.83 290.906 18.5367 291.239 18.33C291.573 18.1233 291.923 18.02 292.289 18.02C292.909 18.02 293.386 18.2267 293.719 18.64C294.059 19.0533 294.229 19.6067 294.229 20.3C294.229 20.3867 294.226 20.4733 294.219 20.56C294.219 20.64 294.213 20.71 294.199 20.77H290.919C290.953 21.2833 291.113 21.6933 291.399 22C291.693 22.3067 292.073 22.46 292.539 22.46C292.773 22.46 292.986 22.4267 293.179 22.36C293.379 22.2867 293.569 22.1933 293.749 22.08L294.039 22.62C293.833 22.7533 293.596 22.87 293.329 22.97C293.069 23.07 292.773 23.12 292.439 23.12ZM290.909 20.18H293.509C293.509 19.6867 293.403 19.3133 293.189 19.06C292.983 18.8 292.689 18.67 292.309 18.67C291.969 18.67 291.663 18.8033 291.389 19.07C291.123 19.33 290.963 19.7 290.909 20.18ZM295.83 23V18.14H296.51L296.58 19.02H296.61C296.777 18.7133 296.98 18.47 297.22 18.29C297.46 18.11 297.717 18.02 297.99 18.02C298.183 18.02 298.357 18.0533 298.51 18.12L298.35 18.84C298.27 18.8133 298.197 18.7933 298.13 18.78C298.063 18.7667 297.98 18.76 297.88 18.76C297.673 18.76 297.457 18.8433 297.23 19.01C297.01 19.1767 296.817 19.4667 296.65 19.88V23H295.83Z" fill="#25262B"/>
</svg>
