<svg fill="none" height="64" viewBox="0 0 360 64" width="360" xmlns="http://www.w3.org/2000/svg" xmlns:xlink="http://www.w3.org/1999/xlink"><linearGradient id="a" gradientUnits="userSpaceOnUse" x1="180" x2="180" y1="64" y2="0"><stop offset=".119792" stop-color="#e6ecf2"/><stop offset=".927083" stop-color="#fff"/></linearGradient><mask id="b" height="64" maskUnits="userSpaceOnUse" width="360" x="0" y="0"><path d="m360 64h-360v-64h360z" fill="url(#a)"/></mask><path d="m360 64h-360v-64h360z" fill="url(#a)"/><g mask="url(#b)" stroke="#194175"><path d="m237.373-74.3514c24.347-44.2106 91.703-41.2856 122.338-34.2966 100.581 21.0322 10.749 172.9745-66.872 143.222-77.62-29.75264-8.856 130.634-55.996 110.276-47.139-20.358-89.833-112.5224-84.98-157.1089 4.853-44.5864 55.076-6.8299 85.51-62.0925z"/><path d="m309.851-9.42811c12.843-23.27649 48.337-21.75629 64.479-18.08669 52.998 11.0416 5.615 91.0406-35.281 75.4027s-4.704 68.7601-29.54 58.0591c-24.836-10.702-47.308-59.1999-44.738-82.669 2.57-23.468991 29.026-3.6105 45.08-32.70611z"/><path d="m240.88-71.2655c23.763-43.2105 89.554-40.3255 119.478-33.4815 98.249 20.5996 10.565 169.1036-65.261 139.9878-75.826-29.11578-8.6 127.7032-54.651 107.7842-46.051-19.92-87.786-110.0361-83.063-153.6218 4.723-43.5858 53.792-6.6558 83.497-60.6687z"/><path d="m244.354-68.1824c23.238-42.2046 87.532-39.4086 116.774-32.7356 96.009 20.0854 10.27 165.1347-63.823 136.7263-74.093-28.40832-8.446 124.7117-53.444 105.2737-44.998-19.437-85.755-107.4267-81.126-149.99165 4.63-42.56495 52.572-6.51705 81.619-59.27275z"/><path d="m247.762-65.061c22.678-41.214 85.446-38.472 113.994-31.9499 93.731 19.6317 10.054 161.2754-62.283 133.5186-72.338-27.75685-8.225 121.7943-52.157 102.8033-43.931-18.991-83.735-104.9297-79.223-146.49876 4.512-41.56914 51.321-6.35584 79.669-57.87324z"/><path d="m251.237-61.9759c22.152-40.2081 83.423-37.5556 111.29-31.2033 91.491 19.1167 9.759 157.3057-60.846 130.2563-70.605-27.0493-8.071 118.8019-50.949 100.2929-42.879-18.508-81.705-102.3203-77.286-142.86864 4.419-40.54836 50.101-6.21706 77.791-56.47726z"/><path d="m254.645-58.8544c21.593-39.2175 81.337-36.6194 108.51-30.4181 89.213 18.6634 9.543 153.4468-59.306 127.049-68.849-26.3979-7.849 115.8845-49.662 97.8225-41.813-18.061-79.685-99.8233-75.384-139.37575 4.302-39.55245 48.851-6.0558 75.842-55.07765z"/><path d="m258.122-55.7713c21.067-38.2117 79.314-35.7025 105.805-29.6715 86.974 18.1486 9.248 149.4773-57.868 123.7868-67.117-25.6904-7.695 112.892-48.455 95.313-40.759-17.58-77.655-97.2149-73.446-135.74658 4.208-38.53172 47.63-5.91707 73.964-53.68172z"/><path d="m261.53-52.6498c20.507-37.2211 77.228-34.7664 103.025-28.8863 84.696 17.6953 9.032 145.6183-56.329 120.5794-65.36-25.0388-7.472 109.9757-47.166 92.8427s-75.636-94.7179-71.545-132.253696c4.092-37.535804 46.381-5.755774 72.015-52.282104z"/><path d="m265.045-49.7454c19.939-36.2547 75.14-33.8346 100.248-28.0927 82.434 17.2832 8.863 141.8826-54.758 117.4541s-7.217 107.147-45.855 90.434-73.655-92.3226-69.692-128.89226c3.962-36.56964 45.133-5.58469 70.057-50.90314z"/><path d="m268.449-46.6354c19.389-35.2398 73.054-32.8939 97.464-27.316 80.14 16.7889 8.6 137.9007-53.249 114.1649s-7.029 104.1415-44.591 87.9015c-37.562-16.239-71.597-89.7234-67.74-125.26744 3.857-35.54406 43.88-5.43318 68.116-49.48296z"/><path d="m271.928-43.5408c18.853-34.2583 71.031-31.9816 94.763-26.5609 77.916 16.3151 8.352 134.054-51.78 110.9845s-6.841 101.2372-43.36 85.4532c-36.52-15.784-69.605-87.2162-65.853-121.7692s42.663-5.284687 66.23-48.1076z"/><path d="m275.332-40.4289c18.303-33.2434 68.946-31.0409 91.979-25.7842 75.623 15.8207 8.09 130.0722-50.271 107.6954s-6.653 98.2317-42.096 82.9217c-35.443-15.311-67.547-84.618-63.9-118.14542 3.646-33.52738 41.408-5.13317 64.288-46.68748z"/><path d="m278.813-37.3343c17.768-32.2619 66.922-30.1285 89.278-25.0291 73.399 15.3469 7.842 126.2256-48.802 104.515-56.644-21.7105-6.465 95.3284-40.866 80.4724-34.4-14.855-65.555-82.1099-62.013-114.64619 3.542-32.53631 40.193-4.98467 62.403-45.31211z"/><path d="m282.221-34.2128c17.208-31.2713 64.835-29.1923 86.498-24.2439 71.121 14.8937 7.625 122.3667-47.263 101.3077s-6.243 92.411-39.577 78.003c-33.335-14.409-63.536-79.6139-60.111-111.1543 3.424-31.5404 38.942-4.82336 60.453-43.9125z"/><path d="m285.695-31.1297c16.683-30.2655 62.814-28.2755 83.794-23.4973 68.882 14.3788 7.331 118.3971-45.825 98.0455-53.155-20.3516-6.089 89.4185-38.37 75.4925-32.282-13.926-61.505-77.0044-58.174-107.5241 3.332-30.5197 37.722-4.6847 58.575-42.5166z"/><path d="m289.104-28.0082c16.123-29.2749 60.726-27.3393 81.013-22.7122 66.604 13.9256 7.115 114.5383-44.285 94.8382-51.4-19.7-5.867 86.5012-37.083 73.0222-31.215-13.48-59.485-74.5074-56.271-104.0312s36.471-4.52341 56.626-41.117z"/><path d="m292.675-24.9607c15.573-28.26 58.642-26.3986 78.229-21.9355 64.311 13.4312 6.853 110.5564-42.776 91.5491-49.628-19.0074-5.678 83.4961-35.818 70.4901-30.139-13.006-57.427-71.9087-54.319-100.4069s35.217-4.3719 54.684-39.6968z"/><path d="m296.083-21.8373c15.014-27.2693 56.555-25.4624 75.449-21.1503 62.033 12.9779 6.637 106.6976-41.236 88.3418s-5.457 80.5788-34.531 68.0198c-29.073-12.559-55.408-69.4118-52.417-96.9141s33.967-4.2105 52.735-38.2972z"/><path d="m299.559-18.7542c14.488-26.2635 54.534-24.5456 72.745-20.4036 59.794 12.4629 6.342 102.7279-39.798 85.0795s-5.303 77.5863-33.323 65.5093c-28.021-12.0771-53.378-66.8023-50.48-93.2839 2.897-26.48157 32.747-4.0718 50.856-36.9013z"/><path d="m302.968-15.6327c13.928-25.2729 52.446-23.6094 69.964-19.6185 57.516 12.0098 6.126 98.8691-38.258 81.8722-44.385-16.9968-5.081 74.67-32.036 63.039-26.955-11.6302-51.358-64.3053-48.578-89.791 2.781-25.48569 31.497-3.9106 48.908-35.5017z"/><path d="m306.447-12.5381c13.393-24.2914 50.422-22.697 67.263-18.8634 55.292 11.536 5.878 95.0224-36.79 78.6918-42.667-16.3305-4.893 71.7657-30.804 60.5907-25.912-11.1749-49.367-61.7982-46.691-86.2928 2.676-24.4946 30.28-3.762 47.022-34.1263z"/></g></svg>