<svg fill="none" height="96" viewBox="0 0 360 96" width="360" xmlns="http://www.w3.org/2000/svg" xmlns:xlink="http://www.w3.org/1999/xlink"><linearGradient id="a" gradientUnits="userSpaceOnUse" x1="180" x2="180" y1="0" y2="104"><stop offset=".348958" stop-color="#e6ecf2"/><stop offset="1" stop-color="#fff"/></linearGradient><mask id="b" height="96" maskUnits="userSpaceOnUse" width="360" x="0" y="0"><path d="m0 0h360v96c0-8.8366-7.163-16-16-16h-328c-8.83656 0-16 7.1634-16 16z" fill="#fff"/></mask><g mask="url(#b)"><path d="m360 0h-360v104h360z" fill="url(#a)"/><g stroke="#194175"><path d="m43.598 58.355c-6.4321-6.0927-7.7985 1.1621-7.6778 5.5511.1887 4.386-.9995 7.7678-1.6171 8.9104-12.0015 20.2932 29.952 5.905 16.0406 1.3716s1.2944-8.2172-6.7457-15.8331z"/><path d="m52.9125-110.526c-64.8177-61.415-78.5968 11.724-77.3841 55.9707 1.8969 44.2167-10.0812 78.3105-16.3074 89.8303-120.975 204.594 301.858 59.4986 161.66 13.8103-140.1983-45.68829 13.054-82.8414-67.9685-159.6113z"/><path d="m44.0419 50.3139c-9.2123-8.7271-11.1698 1.6651-10.9971 7.952.2701 6.2828-1.4319 11.127-2.3166 12.7638-17.1907 29.0693 42.8999 8.457 22.9748 1.9639-19.9251-6.4932 1.8544-11.7708-9.6611-22.6797z"/><path d="m44.4847 42.2709c-11.9926-11.3616-14.5412 2.1679-14.3165 10.3529.3514 8.1794-1.8644 14.4861-3.0162 16.6171-22.37987 37.8451 55.8478 11.0091 29.9091 2.5562-25.9387-8.453 2.4144-15.3243-12.5764-29.5262z"/><path d="m44.9286 34.2298c-14.7729-13.996-17.9125 2.6709-17.6358 12.7538.4327 10.0761-2.2968 17.8453-3.7157 20.4704-27.56911 46.622 68.7957 13.5612 36.8433 3.1485s2.9743-18.8778-15.4918-36.3727z"/><path d="m45.3723 26.1887c-17.5531-16.63047-21.2839 3.1738-20.9551 15.1547.514 11.9728-2.7294 21.2045-4.4153 24.3237-32.7583 55.3979 81.7431 16.1134 43.7776 3.7409-37.966-12.3724 3.5343-22.4313-18.4072-43.2193z"/><path d="m45.8151 18.1456c-20.3334-19.26488-24.6553 3.6768-24.2745 17.5557.5954 13.8695-3.1618 24.5636-5.1149 28.177-37.9475 64.1747 94.6913 18.6654 50.7119 4.3332-43.9797-14.3322 4.0943-25.9849-21.3225-50.0659z"/><path d="m46.259 10.1045c-23.1137-21.8993-28.0266 4.1797-27.5938 19.9566.6767 15.7662-3.5943 27.9228-5.8144 32.0304-43.1367 72.9505 107.6392 21.2175 57.6461 4.9255-49.9933-16.292 4.6543-29.5384-24.2379-56.9125z"/><path d="m46.7028 2.05948c-25.894-24.53368-31.398 4.68265-30.9133 22.35752.7581 17.6629-4.0267 31.282-6.51387 35.8837-48.32593 81.7263 120.58737 23.7696 64.58027 5.5178-56.0069-18.2517 5.2143-33.0919-27.1531-63.75902z"/><path d="m47.1455-5.97967c-28.6742-27.16813-34.7693 5.185591-34.2326 24.75847.8395 19.5596-4.45917 34.6412-7.21342 39.737-53.51518 90.5032 133.53552 26.3216 71.51452 6.1102-62.0206-20.2115 5.7743-36.6455-30.0685-70.60567z"/><path d="m47.5894-14.0227c-31.4545-29.8026-38.1406 5.68849-37.5519 27.1594.9208 21.4562-4.89163 38.0003-7.91295 43.5903-58.70435 99.279 146.48345 28.8737 78.44875 6.7025-68.0342-22.1713 6.3343-40.199-32.9839-77.4522z"/><path d="m48.0332-22.0658c-34.2348-32.437-41.51204 6.1915-40.87131 29.56033 1.00213 23.35297-5.32413 41.35957-8.61252 47.44367-63.89357 108.0558 159.43063 31.4258 85.38303 7.2948-74.04789-24.131 6.8942-43.7525-35.8992-84.2988z"/><path d="m48.4761-30.1069c-37.015-35.0714-44.88331 6.6944-44.19057 31.96124 1.08347 25.24966-5.7566 44.71866-9.31207 51.29696-69.08276 116.8317 172.37854 33.9779 92.31724 7.8872-80.0615-26.0908 7.4542-47.3061-38.8146-91.1454z"/><path d="m48.9211-38.148c-39.79534-37.7058-48.254722 7.1974-47.51 34.36217 1.16482 27.14633-6.18905 48.07783-10.01159 55.15033-74.27201 125.6075 185.32649 36.5299 99.25149 8.4794-86.07516-28.0505 8.0142-50.85956-41.7299-97.9919z"/><path d="m49.365-46.1911c-42.57555-40.3402-51.62601 7.7003-50.82928 36.76311 1.246155 29.04309-6.62153 51.43709-10.71112 59.00369-79.4612 134.3843 198.2744 39.082 106.1857 9.0717-92.0888-30.0102 8.5737-54.41311-44.6453-104.8385z"/><path d="m49.8078-54.2321c-45.35588-42.9747-54.99742 8.2032-54.1487 39.1639 1.3275 30.9398-7.054 54.7963-11.4107 62.857-84.6504 143.1602 211.2226 41.6341 113.12 9.6641-98.102461-31.97 9.1346-57.966667-47.5606-111.685z"/><path d="m50.2505-62.2732c-48.13612-45.6088-58.36873 8.7061-57.46802 41.5649 1.40886 32.8364-7.48648 58.1554-12.11018 66.7103-89.8393 151.936 224.1707 44.1862 120.0547 10.2564-104.11661-33.9298 9.694-61.52022-50.4765-118.5316z"/><path d="m50.6954-70.3163c-50.916364-48.2437-61.74 9.2091-60.7873 43.9658 1.49015 34.73321-7.919 61.5146-12.8098 70.5637-95.0293 160.7128 237.1187 46.7382 126.9887 10.8487-110.12997-35.8895 10.254-65.0737-53.3916-125.3782z"/><path d="m51.1382-78.3594c-53.69668-50.8776-65.1114 9.712-64.1067 46.3668 1.5715 36.62983-8.3514 64.8737-13.5093 74.4169-100.2182 169.4887 250.0658 49.2904 133.9228 11.4411-116.14352-37.8493 10.814-68.6273-56.3068-132.2248z"/><path d="m51.5821-86.4005c-56.47689-53.5125-68.4827 10.215-67.426 48.7677 1.6528 38.526563-8.7839 68.2329-14.2089 78.2703-105.4072 178.2655 263.0138 51.8424 140.8568 12.0334-122.1569-39.8091 11.374-72.1809-59.2219-139.0714z"/><path d="m52.0258-94.4416c-59.25716-56.1464-71.8541 10.7179-70.7454 51.1686 1.7342 40.42328-9.2163 71.5921-14.9083 82.1236-110.5961 187.0414 275.9619 54.3945 147.7909 12.6257-128.1704-41.76876 11.934-75.7343-62.1372-145.9179z"/><path d="m52.4686-102.485c-62.03748-58.781-75.2255 11.2212-74.0648 53.5699 1.8156 42.31993-9.6488 74.9513-15.6079 85.9769-115.7859 195.8172 288.9101 56.9466 154.7251 13.218-134.184-43.72851 12.494-79.2878-65.0524-152.7648z"/><path d="m330.769-91.1196c57.612 29.9394 23.504 88.92569-.751 114.6764-72.792 59.8461-94.205-14.38867-62.578-62.6103 31.627-48.2216-76.433-27.4314-70.367-98.9895 7.034-82.974 61.681 9.499 133.696 46.9234z"/><path d="m328.56-88.9698c58.623 27.9111 26.595 88.051458 3.253 114.6328-70.658 62.3492-94.65-11.0933-64.725-60.389 29.924-49.2957-77.344-24.7481-73.78-96.474 4.133-83.169 61.975 7.341 135.252 42.2302z" opacity=".95875"/><path d="m326.428-86.7444c59.561 25.8489 29.652 87.070089 7.253 114.4496-68.439 64.7764-94.98-7.7844-66.794-58.0941 28.185-50.3096-78.161-22.0346-77.103-93.8411 1.227-83.263 62.193 5.175 136.644 37.4856z" opacity=".9175"/><path d="m324.375-84.4458c60.427 23.7551 32.674 85.98247 11.243 114.1268-66.135 67.1247-95.193-4.466-68.781-55.7284 26.412-51.2623-78.882-19.2943-80.332-91.0936-1.68-83.255 62.336 3.001 137.87 32.6952z" opacity=".87625"/><path d="m322.403-82.0771c61.22 21.6325 35.656 84.79024 15.221 113.6651-63.752 69.391-95.291-1.1421-70.685-53.2947 24.606-52.1527-79.508-16.5305-83.463-88.2363-4.586-83.145 62.403.825 138.927 27.8659z" opacity=".835"/><path d="m320.515-79.641c61.938 19.4835 38.594 83.49466 19.18 113.0648-61.291 71.5732-95.273 2.1832-72.502-50.7961 22.77-52.9794-80.037-13.7465-86.493-85.2707-7.486-82.934 62.393-1.352 139.815 23.002z" opacity=".79375"/><path d="m318.714-77.1405c62.579 17.3107 41.485 82.09733 23.115 112.3268-58.755 73.6677-95.139 5.5058-74.232-48.2357s-80.468-10.9458-89.416-82.2009c-10.377-82.6227 62.308-3.5285 140.533 18.1098z" opacity=".7525"/><path d="m317-74.5787c63.146 15.1169 44.326 80.60001 27.023 111.452-56.147 75.6727-94.889 8.8216-75.871-45.61655 19.019-54.43815-80.8-8.13175-92.231-79.03115-13.255-82.2106 62.147-5.7003 141.079 13.1957z" opacity=".71125"/><path d="m315.377-71.9586c63.636 12.9045 47.113 79.00441 30.897 110.4413-53.471 77.5853-94.522 12.1267-77.416-42.9418s-81.036-5.30775-94.935-75.7653c-16.116-81.6986 61.91-7.8649 141.454 8.2658z" opacity=".67"/><path d="m313.847-69.2836c64.047 10.6766 49.842 77.31268 34.734 109.2961-50.73 79.4035-94.042 15.4172-78.869-40.21463 15.173-55.63177-81.171-2.47731-97.522-72.40697-18.958-81.0859 61.598-10.0201 141.657 3.3255z" opacity=".62875"/><path d="m312.411-66.5567c64.381 8.4355 52.511 75.52661 38.528 108.0177-47.927 81.125-93.446 18.6887-80.224-37.43859 13.221-56.12731-81.209.35613-99.99-68.96051-21.779-80.3759 61.21-12.1631 141.686-1.6186z" opacity=".5875"/><path d="m311.071-63.7815c64.636 6.1843 55.115 73.64868 42.275 106.6078-45.065 82.7487-92.736 21.9376-81.482-34.61686 11.254-56.55444-81.146 3.18916-102.337-65.43004-24.57-79.5664 60.749-14.2912 141.544-6.5609z" opacity=".54625"/><path d="m309.829-60.9611c64.812 3.9254 57.653 71.6809 45.971 105.0679-42.149 84.2702-91.914 25.1596-82.641-31.753s-80.986 6.0183-104.559-61.8198c-27.333-78.661 60.213-16.4019 141.229-11.4951z" opacity=".505"/><path d="m308.686-58.0992c64.91 1.6619 60.12 69.6259 49.611 103.4001-39.182 85.6891-90.98 28.351-83.699-28.8504 7.28-57.2015-80.727 8.84-106.653-58.1344-30.063-77.6591 59.603-18.4926 140.741-16.4153z" opacity=".46375"/><path d="m307.643-55.1991c64.929-.6038 62.514 67.486 53.191 101.6063-36.166 87.0038-89.935 31.5079-84.655-25.9128 5.279-57.4206-80.369 11.6511-108.618-54.3779-32.756-76.5635 58.921-20.5609 140.082-21.3156z" opacity=".4225"/><path d="m306.703-52.2644c64.867-2.8687 64.832 65.2638 56.705 99.6886-33.107 88.2128-88.78 34.6264-85.508-22.9434 3.271-57.5699-79.913 14.4479-110.45-50.5554-35.409-75.3744 58.168-22.604 139.253-26.1898z" opacity=".38125"/><path d="m305.865-49.2987c64.728-5.13 67.071 62.9622 60.151 97.6496-30.007 89.3141-87.517 37.7027-86.257-19.9462 1.259-57.649-79.36 17.2271-112.147-46.6712-38.019-74.0927 57.343-24.6196 138.253-31.0322z" opacity=".34"/><path d="m305.131-46.3055c64.51-7.3852 69.229 60.5838 63.524 95.4915-26.871 90.307-86.147 40.733-86.901-16.9247-.754-57.6578-78.71 19.9854-113.708-42.7302-40.582-72.7211 56.448-26.6051 137.085-35.8366z" opacity=".29875"/><path d="m304.503-43.2886c64.212-9.6314 71.301 58.1317 66.819 93.2171-23.702 91.1895-84.673 43.7138-87.44-13.8826-2.766-57.5964-77.964 22.7193-115.13-38.73696-43.096-71.26104 55.485-28.55844 135.751-40.59754z" opacity=".2575"/><path d="m303.98-40.2516c63.837-11.8658 73.287 55.6087 70.032 90.8291-20.504 91.9605-83.095 46.6414-87.87-10.8234-4.775-57.4649-77.124 25.4255-116.413-34.69672-45.557-69.71408 54.455-30.47678 134.251-45.30898z" opacity=".21625"/><path d="m303.564-37.1982c63.384-14.0858 75.183 53.0179 73.16 88.3305-17.281 92.6197-81.416 49.5117-88.195-7.7512-6.778-57.2632-76.189 28.1007-117.553-30.6141-47.963-68.0822 53.357-32.3581 132.588-49.9652z" opacity=".175"/><path d="m303.254-34.1322c62.854-16.2885 76.989 50.3627 76.199 85.7243-14.037 93.1669-79.638 52.3219-88.411-4.6695-8.774-56.9919-75.162 30.7417-118.551-26.4942-50.31-66.3674 52.196-34.2 130.763-54.5606z" opacity=".13375"/><path d="m303.051-31.0572c62.247-18.4714 78.7 47.646 79.146 83.0136-10.776 93.5996-77.763 55.0686-88.521-1.5821-10.757-56.65107-74.042 33.3453-119.403-22.342-52.597-64.5718 50.97-36.00016 128.778-59.0895z" opacity=".0925"/><path d="m302.956-27.977c61.564-20.6319 80.316 44.8712 81.996 80.2018-7.502 93.9182-75.793 57.7482-88.522 1.5072-12.729-56.24126-72.833 35.9082-120.11-18.1627-54.82-62.6973 49.682-37.75642 126.636-63.5463z" opacity=".05125"/><path d="m302.969-24.8954c60.806-22.7672 81.833 42.0419 84.746 77.2923-4.219 94.1231-73.732 60.3571-88.416 4.5947-14.684-55.76296-71.535 38.4273-120.671-13.9612-56.975-60.7466 48.333-39.46676 124.341-67.9258z" opacity=".01"/></g></g></svg>