<svg width="150" height="44" viewBox="0 0 150 44" xmlns="http://www.w3.org/2000/svg">
    <g fill-rule="nonzero" fill="none">
        <path d="M53.726 10.51c3.905 7.809 1.922 15.495-2.658 20.075 0 0 4.907-6.971 2.249-15.66S42.032 2.7 40.907 3.109c-1.124.408-4.313 1.717-7.42 4.354-2.963 2.515-3.12 2.65-3.128 2.657 0 0 9.465 1.534 13.717 9.446 4.253 7.911 1.268 15.067-2.044 18.42-3.291 3.352-7.441 5.356-11.673 5.478-4.661.123-10.16-2.392-13.023-5.52 0 0 6.46 3.844 12.185 3.21 3.945-.43 7.36-1.37 10.467-5.458 1.206-1.595 1.82-3.333 2.208-5.295.817-4.17.327-8.75-3.721-12.982-4.661-4.886-13.759-5.193-16.069-5.172l.02-.021.296-.296c1.305-1.293 6.41-6.217 10.703-8.515 4.86-2.6 7.45-3.067 7.56-3.086.005 0 8.489 1.635 12.74 10.18zm-39.6 19.932c.716.756 3.149 3.168 6.256 4.272 4.334 1.534 7.176 1.104 8.607.92 2.964-.368 5.213-2.412 5.213-2.412l.007.009.053.065c.176.222.685.912.82 1.602.163.839 0 1.554 0 1.554s-2.372 1.636-4.866 1.922c-2.494.286-5.418.102-8.525-1.329-3.108-1.431-5.643-4.007-6.706-5.418l-.879-1.165c-.02-.02 0-.04.02-.02zM28.11 22.08c.838-.286 1.942.062 2.33.205.062.02.082.102.021.143l-.879.654c-1.022.736-1.8 2.147-1.8 2.147s4.99.429 7.872 3.311c2.882 2.863 1.983 7.156 1.983 7.156s-.164-6.379-7.79-7.81c-4.497-.858-8.422-.347-8.422-.347l1.206-1.309c1.39-1.513 4.436-3.802 5.479-4.15zM48.451 9.671c.237.163.46.342.663.543l.441-.339.614.736-.47.366c.387.692.561 1.6.367 2.864l-1.43-.51s.374-.818.118-1.62L47.12 12.98c.055.107.111.21.165.31.47.858.777 2.146.164 2.8-.614.654-1.493.961-2.494.43a4.91 4.91 0 0 1-1.21-.921l-.446.348-.695-.756.505-.387a3.848 3.848 0 0 1-.158-.267c-.307-.573-.47-1.595-.266-2.78l1.41.633s-.19.83.04 1.629l1.682-1.285c-.424-.942-.859-1.863-.474-2.572.797-1.452 1.942-1.288 3.107-.491zM25.78 14.332l-2.575 2.024-12.594-2.024h15.17zm20.432-.646L44.647 14.9c.045.044.093.086.145.126 1.124.859 1.615.184 1.615-.347 0-.32-.079-.654-.196-.994zm.564-3.116c-.314.361-.257.913-.064 1.48l1.512-1.157c-.612-.609-1.216-.59-1.448-.323zm23.163 2.147-.511 2.596h2.943c.062 0 .287.041.287.103.061.817-.246 2.064-.675 2.76h-3.107l-1.288 6.194s-.511 1.963.674 2.044a4.272 4.272 0 0 0 1.697-.265.384.384 0 0 1 .511.327c.062.674.02 1.88-.9 2.576-1.349 1.042-4.824.245-5.356-.675-.531-.92-.368-2.372-.163-3.946.204-1.553 1.227-6.337 1.227-6.337h-1.86v-.614c0-.797.224-1.553.674-2.207h1.758l.675-3.047s.143-.613 1.512-.552c1.35.082 2.045.307 1.902 1.043zm8.402 3.25a.659.659 0 0 0-.49-.674c-.634-.164-1.289-.184-1.943-.123-.736.082-.94.41-1.063.9l-.368 1.43s-2.044 8.26-1.308 9.916c.715 1.656 2.371 2.351 4.6 1.922 1.737-.327 2.923-1.615 3.373-2.167.04-.062.143-.02.122.061l-.204 1.043c-.102.47.266.92.756.92h1.677a.724.724 0 0 0 .715-.593l2.494-12.634a.481.481 0 0 0-.286-.532l-.04-.02a3.795 3.795 0 0 0-2.842.02.778.778 0 0 0-.47.593c-.246 1.39-1.043 5.785-1.718 7.34-.817 1.84-2.535 3.209-3.761 2.964-1.207-.246-.736-2.617-.736-2.617l1.492-7.748zm10.815.185-2.29 12.327a.514.514 0 0 0 .511.613h2.27a.806.806 0 0 0 .776-.633c.327-1.779 1.309-6.706 1.8-7.626.613-1.124 2.453-2.821 3.352-2.698.9.122 1.492.633 1.084 2.882-.348 1.86-1.248 6.235-1.534 7.646-.04.225.123.45.368.45h2.515a.72.72 0 0 0 .695-.552c.43-1.942 1.84-8.423 1.799-10.16-.061-2.045-.981-3.251-3.046-3.435-2.065-.184-3.762.879-4.518 1.635-.368.368-.614.777-.736.982-.02.02-.061 0-.061-.02l.245-1.616a.366.366 0 0 0-.245-.43l-.041-.02a4.04 4.04 0 0 0-2.147-.143c-.43.082-.736.389-.797.798zm19.821-1.228.03.001s1.349.02 2.432 1.043c.197.185.361.344.497.478l.185.184.145.15.011-.056.246-.96a.724.724 0 0 1 .695-.532h1.778c.389 0 .696.368.614.736l-2.474 12.49c-.082.369-.388.634-.756.634l-1.82.02a.683.683 0 0 1-.674-.837l.29-1.255c-.32.404-1.937 2.318-3.766 2.318-2.044 0-2.923-.368-2.923-.368s-1.779-.675-1.902-3.885c-.122-3.21 1.227-6.93 3.047-8.606 1.535-1.415 3.594-1.548 4.2-1.556h.11l.035.001zm-2.873 5.398c-.696 1.513-.757 2.474-.798 2.617-.04.143-.306 1.738.205 2.678.286.532 1.001.9 1.86.634.826-.256 2.2-1.022 2.96-2.864l-.037-.019s.839-2.187.92-3.189a2.643 2.643 0 0 0-.002-.481 1.256 1.256 0 0 0-.243-.48c-.347-.43-1.002-1.083-1.86-1.145-1.33-.102-2.31.736-3.005 2.25zm15.128-5.09a3.483 3.483 0 0 0-2.045-.062l-.306.082a.868.868 0 0 0-.614.654l-2.494 12.512a.593.593 0 0 0 .573.695h2.044c.49 0 .94-.348 1.022-.838l2.351-12.185a.78.78 0 0 0-.531-.858zm-.082-1.8h-1.267c-.736 0-1.207-.49-1.288-1.206-.02-.286.02-.572.122-.838l.143-.409a1.96 1.96 0 0 1 1.86-1.308h1.207c.859 0 1.472.859 1.165 1.656l-.347.96a1.696 1.696 0 0 1-1.595 1.146z" fill="#93BB4D"/>
        <path d="M30.44 14.516c1.043.02 1.902.818 1.902.818s-.102.061-1.206.797c-1.104.736-2.188 1.922-2.188 1.922s2.004.286 3.72.818c1.739.531 4.315 2.044 6.134 5.05 1.339 2.236 1.534 5.083 1.546 6.394v.227c0 .208-.006.358-.01.434l-.002.032.001-.038c-.009-1.245-2.353-7.718-8.076-9.74l-.328-.11c-5.274-1.657-10.59-.307-10.59-.307s2.392-2.494 4.17-3.864c1.78-1.37 3.885-2.453 4.928-2.433zm-8.463 3.21-2.494 2.76-19.38-2.76h21.874zm117.94-2.494c.49 0 .858.45.756.92-.389 1.84-1.227 5.908-1.615 7.686-.511 2.351.695 2.495.695 2.495 1.86.06 3.087-1.513 3.66-2.474a4.12 4.12 0 0 0 .51-1.247l1.595-6.604c.102-.45.51-.776.981-.776h1.697a.898.898 0 0 1 .879 1.083L146.54 28.52c-.061.348-.388.613-.756.613h-1.636a.633.633 0 0 1-.613-.756l.327-1.574-1.595 1.533s-2.29 1.86-4.886.92c-2.596-.94-1.962-4.436-1.962-4.436l1.594-8.525a1.309 1.309 0 0 1 1.268-1.063zm-11.388-5.786c.511 0 .88.45.777.94l-2.065 9.997c-.02.062.062.123.123.062l4.436-4.518c.573-.593 1.35-.9 2.147-.859l1.43.061c.655.041.941.818.491 1.268l-4.865 4.825c-.102.102-.123.265-.061.408l2.943 6.072a1.062 1.062 0 0 1-.96 1.534h-1.697a1.454 1.454 0 0 1-1.33-.86l-2.78-6.234c-.02-.062-.102-.041-.122.02l-1.084 6.03a1.14 1.14 0 0 1-1.124.941h-2.208a.502.502 0 0 1-.49-.593l3.638-18.42a.909.909 0 0 1 .798-.674z" fill="#467CB8"/>
    </g>
</svg>
