<svg xmlns="http://www.w3.org/2000/svg" width="24" height="24" viewBox="0 0 24 24">
    <g fill="none" fill-rule="evenodd">
        <g>
            <g>
                <g transform="translate(-54 -358) translate(0 347) translate(54 11)">
                    <g fill-rule="nonzero">
                        <path fill="#F15A23" d="M0 2.254L1.688 4.611 0 6.16zM.679 6.16L1.951 4.981 2.827 6.16zM0 .99l.438.62 1.809 2.509.586-.517c-.311-.417-.585-.866-.817-1.342C1.376.875 1.83.012 1.83.012H0V.99zM2.51 4.501l.597-.546s.57.832 1.233 1.026c.865.255 1.249-.37 1.249-.37V6.16H3.682l.428-.413s-.225.164-.773-.255c-.318-.243-.827-.99-.827-.99zM2.564 0s-.191.286-.054.99c.142.753.723 1.55.717 1.531 0 0 .039-.79.455-1.257C4.174.689 4.942.527 5.59.863V0H2.564z" transform="translate(2 9)"/>
                        <path fill="#F15A23" d="M5.589 1.907s-.564-.534-1.057-.534c-.524 0-.953.459-.97 1.039 0 .638.274.99.553 1.294.395.437.877.91 1.474.534V1.907z" transform="translate(2 9)"/>
                        <path fill="#005E6A" d="M12.016.06h1.332s1.178 1.981 1.759 2.801c.58.82 1.205 1.75 1.205 1.75V.504c0-.176-.422-.443-.422-.443h1.535s-.504.23-.504.443v5.972s-.483-.298-1.03-1.003c-.614-.795-2.806-3.997-2.806-3.997v4.15c0 .212.422.534.422.534h-1.49s.405-.322.405-.535V.505c.005-.19-.406-.444-.406-.444zM18.29.06H20s-.46.244-.46.444v5.121c0 .219.46.535.46.535h-1.71s.428-.322.428-.535V.505c0-.195-.428-.444-.428-.444zM6.986.06s.444.244.444.444v5.121c0 .219-.444.535-.444.535h2.532c.159 0 1.929-.322 1.929-1.835 0-1.512-1.376-1.658-1.376-1.658s.839-.261.839-1.294C10.91.255 9.677.06 9.518.06H6.986zm1.348 2.51V.662h1.03c.16 0 .713.207.713.966 0 .626-.554.942-.713.942h-1.03zm0 .498h1.19c.158 0 1.09.267 1.09 1.166 0 .917-.932 1.24-1.09 1.24h-1.19V3.067z" transform="translate(2 9)"/>
                    </g>
                    <circle cx="12" cy="12" r="11.75" stroke="#EBECEE" stroke-width=".5"/>
                </g>
            </g>
        </g>
    </g>
</svg>
