<svg xmlns="http://www.w3.org/2000/svg" width="24" height="24" viewBox="0 0 24 24">
    <g fill="none" fill-rule="evenodd">
        <g>
            <g>
                <g transform="translate(-54 -282) translate(0 270) translate(54 12)">
                    <circle cx="12" cy="12" r="11.75" stroke="#EBECEE" stroke-width=".5"/>
                    <g fill="#1F489D" fill-rule="nonzero">
                        <path d="M1.481 2.328c0-.488.554-.944 1.107-.944h1.238c.862 0 1.725.797 1.725 1.676v.18c0 1.416-2.296 2.718-2.963 3.776.18.308 1.238 1.368 1.547 1.677.44.44 1.302 1.172 1.302 1.921v.374c0 .684-.863 1.612-1.481 1.612H2.474c-.44 0-.993-.488-.993-.928V2.328zm5.763.846c0-.308-.003-.7-.179-1.058-.13-.244-.44-.684-.44-.797h1.238c.749 0 1.713.689 1.713 1.421l-.005.448c0 .993-3.319 3.324-3.319 3.763 0 0 2.475 2.54 2.719 2.784l1.367 1.367c.245.244 1.173 1.172 1.303 1.417H6.626c.308-.44.618-.863.618-1.612v-.244c0-.928-.684-1.612-1.107-2.1-.31-.308-1.302-1.482-1.546-1.677.732-1.107 2.653-1.904 2.653-3.712zm3.777-.308c0-.749-.44-1.058-.749-1.481 1.237 0 1.921-.13 2.23.863.18.553.066 2.23.066 3.027v6.185L8.172 7c.684-.993 2.832-2.162 2.832-3.66l.017-.491v.017zM0 2.621v8.971C0 12.828 1.172 14 2.474 14h9.23C12.811 14 14 12.763 14 11.526v-9.23C14 1.124 12.828 0 11.526 0H2.474C1.058.016 0 1.204 0 2.62z" transform="translate(5 5)"/>
                    </g>
                </g>
            </g>
        </g>
    </g>
</svg>
