<svg xmlns="http://www.w3.org/2000/svg" width="24" height="24" viewBox="0 0 24 24">
    <g fill="none" fill-rule="evenodd">
        <g>
            <g>
                <g transform="translate(-53 -206) translate(0 195) translate(53 11)">
                    <circle cx="12" cy="12" r="11.75" stroke="#EBECEE" stroke-width=".5"/>
                    <g fill-rule="nonzero">
                        <path fill="#0D2B5B" d="M.022 4.409c0-.315-.006-.579-.022-.815h.575l.027.405h.016c.13-.214.368-.467.813-.467.347 0 .618.203.732.506h.01c.093-.152.2-.264.325-.343.147-.107.315-.163.532-.163.439 0 .883.309.883 1.187v1.613h-.65V4.819c0-.455-.152-.725-.472-.725-.227 0-.395.169-.466.366-.02.075-.03.152-.032.23v1.642h-.65V4.746c0-.382-.147-.652-.456-.652-.249 0-.417.203-.477.393-.027.068-.038.147-.038.225v1.62h-.65V4.409zm6.426 1.265c0 .247.01.489.037.658h-.601l-.044-.303h-.016c-.163.213-.44.365-.78.365-.531 0-.83-.399-.83-.815 0-.692.59-1.04 1.567-1.035V4.5c0-.18-.07-.478-.537-.478-.26 0-.531.085-.71.203l-.13-.45c.195-.124.537-.242.954-.242.846 0 1.09.557 1.09 1.152v.99zm-.651-.68c-.472-.011-.921.096-.921.512 0 .27.168.394.38.394.264 0 .46-.18.52-.377.014-.05.021-.1.021-.152v-.376zm1.111-.585c0-.315-.006-.579-.021-.815h.585l.032.411h.017c.113-.214.4-.473.84-.473.46 0 .938.31.938 1.176v1.624h-.667V4.786c0-.394-.141-.692-.504-.692-.265 0-.45.197-.52.405-.022.061-.027.146-.027.224v1.609h-.673V4.409zm5.28-1.915v3.068c0 .281.012.585.022.77h-.595l-.028-.432h-.011c-.157.303-.477.494-.862.494-.629 0-1.127-.556-1.127-1.399-.006-.917.547-1.462 1.182-1.462.363 0 .623.157.742.36h.011V2.494h.667zm-.666 2.241c0-.06-.005-.12-.016-.18-.06-.269-.27-.488-.574-.488-.429 0-.668.393-.668.905 0 .5.24.865.662.865.27 0 .51-.191.574-.489.017-.066.024-.134.023-.202v-.41zm1.138 1.597V3.594h.672v2.738h-.672zm1.144-1.855c0-.371-.005-.636-.022-.883h.58l.021.523h.022c.13-.388.44-.523.722-.523.065 0 .102-.011.156 0v.608c-.064-.015-.129-.023-.194-.023-.32 0-.538.214-.597.523-.013.07-.02.142-.021.214v1.416h-.668V4.477zm1.789 1.855V3.594h.672v2.738h-.672z" transform="translate(2 9)"/>
                        <path fill="#FDD213" d="M20.444.77c-.335-.4-.69-.219-.974-.072-.119.062-.978.57-.978.57-.47.204-.837-.018-.981-.204-.014-.018-.026-.037-.037-.056L17.44.947c-.057-.102-.12-.2-.189-.295-.041-.057-.087-.11-.135-.162-.322-.34-.837-.578-1.697-.145-.408.246-1.735 1.04-1.735 1.04-.499.214-.88-.047-1.004-.24-.005-.007-.01-.014-.014-.023l-.016-.029-.084-.143c-.038-.063-.079-.124-.122-.183-.042-.057-.088-.11-.136-.162-.32-.338-.832-.575-1.685-.151L8.908 1.479l-.879.524.455.584c.19.19.55.503 1.106.24 0 0 1.534-.93 1.54-.932 1.311-.753 1.959-.034 2.245.446l.027.045v.001l.01.017.032.055c.139.221.359.364.62.357.145-.003.244-.052.386-.135l1.485-.9.003-.002c1.328-.761 1.986.005 2.267.484.022.04.046.08.072.118.14.197.331.326.575.32.16-.003.342-.104.369-.123L21 1.504s-.181-.287-.556-.734z" transform="translate(2 9)"/>
                    </g>
                </g>
            </g>
        </g>
    </g>
</svg>
